<svg width="2549" height="770" xmlns="http://www.w3.org/2000/svg" xmlns:xlink="http://www.w3.org/1999/xlink" xml:space="preserve" overflow="hidden"><defs><clipPath id="clip0"><rect x="925" y="994" width="2549" height="770"/></clipPath><clipPath id="clip1"><rect x="925" y="994" width="2549" height="770"/></clipPath></defs><g clip-path="url(#clip0)" transform="translate(-925 -994)"><g clip-path="url(#clip1)"><rect x="2395" y="1384" width="506" height="380" fill="#FEC857" fill-opacity="1"/><text fill="#FFFFFF" fill-opacity="1" font-family="Corbel,Corbel_MSFontService,sans-serif" font-style="normal" font-variant="normal" font-weight="700" font-stretch="normal" font-size="64" text-anchor="start" direction="ltr" writing-mode="lr-tb" unicode-bidi="normal" text-decoration="none" transform="matrix(1 0 0 1 2491.52 1557)">Adversarial </text><text fill="#FFFFFF" fill-opacity="1" font-family="Corbel,Corbel_MSFontService,sans-serif" font-style="normal" font-variant="normal" font-weight="700" font-stretch="normal" font-size="64" text-anchor="start" direction="ltr" writing-mode="lr-tb" unicode-bidi="normal" text-decoration="none" transform="matrix(1 0 0 1 2561.14 1634)">Model</text><rect x="1500" y="1384" width="506" height="380" fill="#5662D5" fill-opacity="1"/><text fill="#FFFFFF" fill-opacity="1" font-family="Corbel,Corbel_MSFontService,sans-serif" font-style="normal" font-variant="normal" font-weight="700" font-stretch="normal" font-size="64" text-anchor="start" direction="ltr" writing-mode="lr-tb" unicode-bidi="normal" text-decoration="none" transform="matrix(1 0 0 1 1625.39 1557)">Predictor </text><text fill="#FFFFFF" fill-opacity="1" font-family="Corbel,Corbel_MSFontService,sans-serif" font-style="normal" font-variant="normal" font-weight="700" font-stretch="normal" font-size="64" text-anchor="start" direction="ltr" writing-mode="lr-tb" unicode-bidi="normal" text-decoration="none" transform="matrix(1 0 0 1 1666.37 1634)">Model</text><path d="M1157.5 1569.92 1430.83 1569.92 1430.83 1579.08 1157.5 1579.08ZM1426.25 1560.75 1453.75 1574.5 1426.25 1588.25Z" fill="#3C3C3C" fill-rule="nonzero" fill-opacity="1"/><path d="M2052.5 1569.92 2325.83 1569.92 2325.83 1579.08 2052.5 1579.08ZM2321.25 1560.75 2348.75 1574.5 2321.25 1588.25Z" fill="#3C3C3C" fill-rule="nonzero" fill-opacity="1"/><path d="M2947.5 1567.92 3220.83 1567.92 3220.83 1577.08 2947.5 1577.08ZM3216.25 1558.75 3243.75 1572.5 3216.25 1586.25Z" fill="#3C3C3C" fill-rule="nonzero" fill-opacity="1"/><text fill="#242225" fill-opacity="1" font-family="Cambria Math,Cambria Math_MSFontService,sans-serif" font-style="normal" font-variant="normal" font-weight="400" font-stretch="normal" font-size="83" text-anchor="start" direction="ltr" writing-mode="lr-tb" unicode-bidi="normal" text-decoration="none" transform="matrix(1 0 0 1 1281.18 1522)">ğ’™</text><text fill="#242225" fill-opacity="1" font-family="Cambria Math,Cambria Math_MSFontService,sans-serif" font-style="normal" font-variant="normal" font-weight="400" font-stretch="normal" font-size="83" text-anchor="start" direction="ltr" writing-mode="lr-tb" unicode-bidi="normal" text-decoration="none" transform="matrix(1 0 0 1 2168.39 1522)">ğ’š</text><path d="M25.978-58.6836 47.0522-45.9175 45.3906-43.3643 23.7085-53.4556 23.2627-53.4556 1.62109-43.3643 0-45.9175 20.5474-58.6836Z" fill="#242225" fill-rule="nonzero" fill-opacity="1" transform="matrix(1 0 0 1 2169.65 1521)"/><text fill="#000000" fill-opacity="0" font-family="Arial,Arial_MSFontService,sans-serif" font-size="15.3193" direction="ltr" writing-mode="lr-tb" y="-45.2792">à·</text><text fill="#242225" fill-opacity="1" font-family="Cambria Math,Cambria Math_MSFontService,sans-serif" font-style="normal" font-variant="normal" font-weight="400" font-stretch="normal" font-size="83" text-anchor="start" direction="ltr" writing-mode="lr-tb" unicode-bidi="normal" text-decoration="none" transform="matrix(1 0 0 1 3063.53 1522)">ğ’‚</text><path d="M25.978-58.6836 47.0522-45.9175 45.3906-43.3643 23.7085-53.4556 23.2627-53.4556 1.62109-43.3643 0-45.9175 20.5474-58.6836Z" fill="#242225" fill-rule="nonzero" fill-opacity="1" transform="matrix(1 0 0 1 3065.64 1521)"/><text fill="#000000" fill-opacity="0" font-family="Arial,Arial_MSFontService,sans-serif" font-size="15.3193" direction="ltr" writing-mode="lr-tb" y="-45.2792">à·</text><text fill="#242225" fill-opacity="1" font-family="Corbel,Corbel_MSFontService,sans-serif" font-style="normal" font-variant="normal" font-weight="400" font-stretch="normal" font-size="64" text-anchor="start" direction="ltr" writing-mode="lr-tb" unicode-bidi="normal" text-decoration="none" transform="matrix(1 0 0 1 1030.27 1075)">Optimized to predict </text><text fill="#242225" fill-opacity="1" font-family="Corbel,Corbel_MSFontService,sans-serif" font-style="normal" font-variant="normal" font-weight="700" font-stretch="normal" font-size="64" text-anchor="start" direction="ltr" writing-mode="lr-tb" unicode-bidi="normal" text-decoration="none" transform="matrix(1 0 0 1 1102.74 1152)">target variable</text><text fill="#242225" fill-opacity="1" font-family="Cambria Math,Cambria Math_MSFontService,sans-serif" font-style="normal" font-variant="normal" font-weight="400" font-stretch="normal" font-size="64" text-anchor="start" direction="ltr" writing-mode="lr-tb" unicode-bidi="normal" text-decoration="none" transform="matrix(1 0 0 1 1156.38 1230)">ğ¿</text><text fill="#242225" fill-opacity="1" font-family="Cambria Math,Cambria Math_MSFontService,sans-serif" font-style="normal" font-variant="normal" font-weight="400" font-stretch="normal" font-size="47" text-anchor="start" direction="ltr" writing-mode="lr-tb" unicode-bidi="normal" text-decoration="none" transform="matrix(1 0 0 1 1190.76 1243)">ğ‘ğ‘Ÿğ‘’ğ‘‘</text><text fill="#242225" fill-opacity="1" font-family="Cambria Math,Cambria Math_MSFontService,sans-serif" font-style="normal" font-variant="normal" font-weight="400" font-stretch="normal" font-size="64" text-anchor="start" direction="ltr" writing-mode="lr-tb" unicode-bidi="normal" text-decoration="none" transform="matrix(1 0 0 1 1303.76 1230)">(</text><text fill="#242225" fill-opacity="1" font-family="Cambria Math,Cambria Math_MSFontService,sans-serif" font-style="normal" font-variant="normal" font-weight="400" font-stretch="normal" font-size="64" text-anchor="start" direction="ltr" writing-mode="lr-tb" unicode-bidi="normal" text-decoration="none" transform="matrix(1 0 0 1 1330.12 1230)">ğ‘¦</text><path d="M15.3437-45.0625 25.9687-35.2187 24.2812-33.4375 13.25-41.0312 12.9062-41.0312 1.6875-33.4375 0-35.2187 11.1562-45.0625Z" fill="#242225" fill-rule="nonzero" fill-opacity="1" transform="matrix(1 0 0 1 1338.53 1230)"/><text fill="#000000" fill-opacity="0" font-family="Arial,Arial_MSFontService,sans-serif" font-size="11.625" direction="ltr" writing-mode="lr-tb" y="-34.8906">à·œ</text><text fill="#242225" fill-opacity="1" font-family="Cambria Math,Cambria Math_MSFontService,sans-serif" font-style="normal" font-variant="normal" font-weight="400" font-stretch="normal" font-size="64" text-anchor="start" direction="ltr" writing-mode="lr-tb" unicode-bidi="normal" text-decoration="none" transform="matrix(1 0 0 1 1367.31 1230)">,</text><text fill="#242225" fill-opacity="1" font-family="Cambria Math,Cambria Math_MSFontService,sans-serif" font-style="normal" font-variant="normal" font-weight="400" font-stretch="normal" font-size="64" text-anchor="start" direction="ltr" writing-mode="lr-tb" unicode-bidi="normal" text-decoration="none" transform="matrix(1 0 0 1 1391.19 1230)">ğ‘¦</text><text fill="#242225" fill-opacity="1" font-family="Cambria Math,Cambria Math_MSFontService,sans-serif" font-style="normal" font-variant="normal" font-weight="400" font-stretch="normal" font-size="64" text-anchor="start" direction="ltr" writing-mode="lr-tb" unicode-bidi="normal" text-decoration="none" transform="matrix(1 0 0 1 1428.38 1230)">)</text><text fill="#242225" fill-opacity="1" font-family="Corbel,Corbel_MSFontService,sans-serif" font-style="normal" font-variant="normal" font-weight="400" font-stretch="normal" font-size="64" text-anchor="start" direction="ltr" writing-mode="lr-tb" unicode-bidi="normal" text-decoration="none" transform="matrix(1 0 0 1 2819.15 1075)">Optimized to predict </text><text fill="#242225" fill-opacity="1" font-family="Corbel,Corbel_MSFontService,sans-serif" font-style="normal" font-variant="normal" font-weight="700" font-stretch="normal" font-size="64" text-anchor="start" direction="ltr" writing-mode="lr-tb" unicode-bidi="normal" text-decoration="none" transform="matrix(1 0 0 1 2951.77 1152)">unfairness</text><text fill="#242225" fill-opacity="1" font-family="Cambria Math,Cambria Math_MSFontService,sans-serif" font-style="normal" font-variant="normal" font-weight="400" font-stretch="normal" font-size="64" text-anchor="start" direction="ltr" writing-mode="lr-tb" unicode-bidi="normal" text-decoration="none" transform="matrix(1 0 0 1 2957.27 1229)">ğ¿</text><text fill="#242225" fill-opacity="1" font-family="Cambria Math,Cambria Math_MSFontService,sans-serif" font-style="normal" font-variant="normal" font-weight="400" font-stretch="normal" font-size="47" text-anchor="start" direction="ltr" writing-mode="lr-tb" unicode-bidi="normal" text-decoration="none" transform="matrix(1 0 0 1 2991.65 1242)">ğ‘ğ‘‘ğ‘£</text><text fill="#242225" fill-opacity="1" font-family="Cambria Math,Cambria Math_MSFontService,sans-serif" font-style="normal" font-variant="normal" font-weight="400" font-stretch="normal" font-size="64" text-anchor="start" direction="ltr" writing-mode="lr-tb" unicode-bidi="normal" text-decoration="none" transform="matrix(1 0 0 1 3080.86 1229)">(</text><text fill="#242225" fill-opacity="1" font-family="Cambria Math,Cambria Math_MSFontService,sans-serif" font-style="normal" font-variant="normal" font-weight="400" font-stretch="normal" font-size="64" text-anchor="start" direction="ltr" writing-mode="lr-tb" unicode-bidi="normal" text-decoration="none" transform="matrix(1 0 0 1 3107.21 1229)">ğ‘</text><path d="M15.3437-45.0625 25.9687-35.2187 24.2812-33.4375 13.25-41.0312 12.9062-41.0312 1.6875-33.4375 0-35.2187 11.1562-45.0625Z" fill="#242225" fill-rule="nonzero" fill-opacity="1" transform="matrix(1 0 0 1 3115.26 1229)"/><text fill="#000000" fill-opacity="0" font-family="Arial,Arial_MSFontService,sans-serif" font-size="11.625" direction="ltr" writing-mode="lr-tb" y="-34.8906">à·œ</text><text fill="#242225" fill-opacity="1" font-family="Cambria Math,Cambria Math_MSFontService,sans-serif" font-style="normal" font-variant="normal" font-weight="400" font-stretch="normal" font-size="64" text-anchor="start" direction="ltr" writing-mode="lr-tb" unicode-bidi="normal" text-decoration="none" transform="matrix(1 0 0 1 3144.29 1229)">,</text><text fill="#242225" fill-opacity="1" font-family="Cambria Math,Cambria Math_MSFontService,sans-serif" font-style="normal" font-variant="normal" font-weight="400" font-stretch="normal" font-size="64" text-anchor="start" direction="ltr" writing-mode="lr-tb" unicode-bidi="normal" text-decoration="none" transform="matrix(1 0 0 1 3168.17 1229)">ğ‘</text><text fill="#242225" fill-opacity="1" font-family="Cambria Math,Cambria Math_MSFontService,sans-serif" font-style="normal" font-variant="normal" font-weight="400" font-stretch="normal" font-size="64" text-anchor="start" direction="ltr" writing-mode="lr-tb" unicode-bidi="normal" text-decoration="none" transform="matrix(1 0 0 1 3205.25 1229)">)</text><path d="M0 0C82.4998 0 165 77.8583 165 155.716" stroke="#5662D5" stroke-width="10.3125" stroke-linecap="butt" stroke-linejoin="miter" stroke-miterlimit="8" stroke-opacity="1" fill="none" fill-rule="evenodd" transform="matrix(-1 1.22465e-16 1.22465e-16 1 2812 1182)"/><path d="M1602 1182C1684.5 1182 1767 1259.86 1767 1337.72" stroke="#5662D5" stroke-width="10.3125" stroke-linecap="butt" stroke-linejoin="miter" stroke-miterlimit="8" stroke-opacity="1" fill="none" fill-rule="evenodd"/></g></g></svg>