<svg width="1136" height="908" xmlns="http://www.w3.org/2000/svg" xmlns:xlink="http://www.w3.org/1999/xlink" xml:space="preserve" overflow="hidden"><g transform="translate(-2970 -861)"><g><path d="M2975.5 1470.5C2975.5 1452.27 2990.05 1437.5 3008 1437.5 3025.95 1437.5 3040.5 1452.27 3040.5 1470.5 3040.5 1488.73 3025.95 1503.5 3008 1503.5 2990.05 1503.5 2975.5 1488.73 2975.5 1470.5Z" stroke="#3D469C" stroke-width="4.58333" stroke-linecap="butt" stroke-linejoin="miter" stroke-miterlimit="8" stroke-opacity="1" fill="#5662D5" fill-rule="evenodd" fill-opacity="1"/><path d="M3095.5 1498C3095.5 1480.05 3110.05 1465.5 3128 1465.5 3145.95 1465.5 3160.5 1480.05 3160.5 1498 3160.5 1515.95 3145.95 1530.5 3128 1530.5 3110.05 1530.5 3095.5 1515.95 3095.5 1498Z" stroke="#3D469C" stroke-width="4.58333" stroke-linecap="butt" stroke-linejoin="miter" stroke-miterlimit="8" stroke-opacity="1" fill="#5662D5" fill-rule="evenodd" fill-opacity="1"/><text fill="#FFFFFF" fill-opacity="1" font-family="Corbel,Corbel_MSFontService,sans-serif" font-style="normal" font-variant="normal" font-weight="400" font-stretch="normal" font-size="50" text-anchor="start" direction="ltr" writing-mode="lr-tb" unicode-bidi="normal" text-decoration="none" transform="matrix(1 0 0 1 3114.36 1514)">+</text><path d="M3217.5 1418C3217.5 1400.05 3232.05 1385.5 3250 1385.5 3267.95 1385.5 3282.5 1400.05 3282.5 1418 3282.5 1435.95 3267.95 1450.5 3250 1450.5 3232.05 1450.5 3217.5 1435.95 3217.5 1418Z" stroke="#3D469C" stroke-width="4.58333" stroke-linecap="butt" stroke-linejoin="miter" stroke-miterlimit="8" stroke-opacity="1" fill="#5662D5" fill-rule="evenodd" fill-opacity="1"/><text fill="#FFFFFF" fill-opacity="1" font-family="Corbel,Corbel_MSFontService,sans-serif" font-style="normal" font-variant="normal" font-weight="400" font-stretch="normal" font-size="50" text-anchor="start" direction="ltr" writing-mode="lr-tb" unicode-bidi="normal" text-decoration="none" transform="matrix(1 0 0 1 3236.76 1434)">+</text><path d="M3009.5 1321C3009.5 1303.05 3024.05 1288.5 3042 1288.5 3059.95 1288.5 3074.5 1303.05 3074.5 1321 3074.5 1338.95 3059.95 1353.5 3042 1353.5 3024.05 1353.5 3009.5 1338.95 3009.5 1321Z" stroke="#3D469C" stroke-width="4.58333" stroke-linecap="butt" stroke-linejoin="miter" stroke-miterlimit="8" stroke-opacity="1" fill="#5662D5" fill-rule="evenodd" fill-opacity="1"/><text fill="#FFFFFF" fill-opacity="1" font-family="Corbel,Corbel_MSFontService,sans-serif" font-style="normal" font-variant="normal" font-weight="400" font-stretch="normal" font-size="50" text-anchor="start" direction="ltr" writing-mode="lr-tb" unicode-bidi="normal" text-decoration="none" transform="matrix(1 0 0 1 3028.38 1337)">+</text><path d="M3258.5 1532C3258.5 1514.05 3273.05 1499.5 3291 1499.5 3308.95 1499.5 3323.5 1514.05 3323.5 1532 3323.5 1549.95 3308.95 1564.5 3291 1564.5 3273.05 1564.5 3258.5 1549.95 3258.5 1532Z" stroke="#3D469C" stroke-width="4.58333" stroke-linecap="butt" stroke-linejoin="miter" stroke-miterlimit="8" stroke-opacity="1" fill="#5662D5" fill-rule="evenodd" fill-opacity="1"/><text fill="#FFFFFF" fill-opacity="1" font-family="Corbel,Corbel_MSFontService,sans-serif" font-style="normal" font-variant="normal" font-weight="400" font-stretch="normal" font-size="50" text-anchor="start" direction="ltr" writing-mode="lr-tb" unicode-bidi="normal" text-decoration="none" transform="matrix(1 0 0 1 3277.43 1549)">+</text><path d="M3123.5 1603C3123.5 1585.05 3138.05 1570.5 3156 1570.5 3173.95 1570.5 3188.5 1585.05 3188.5 1603 3188.5 1620.95 3173.95 1635.5 3156 1635.5 3138.05 1635.5 3123.5 1620.95 3123.5 1603Z" stroke="#3D469C" stroke-width="4.58333" stroke-linecap="butt" stroke-linejoin="miter" stroke-miterlimit="8" stroke-opacity="1" fill="#5662D5" fill-rule="evenodd" fill-opacity="1"/><path d="M3328.5 1405C3328.5 1387.05 3343.05 1372.5 3361 1372.5 3378.95 1372.5 3393.5 1387.05 3393.5 1405 3393.5 1422.95 3378.95 1437.5 3361 1437.5 3343.05 1437.5 3328.5 1422.95 3328.5 1405Z" stroke="#3D469C" stroke-width="4.58333" stroke-linecap="butt" stroke-linejoin="miter" stroke-miterlimit="8" stroke-opacity="1" fill="#5662D5" fill-rule="evenodd" fill-opacity="1"/><path d="M2983.5 1607C2983.5 1589.05 2998.05 1574.5 3016 1574.5 3033.95 1574.5 3048.5 1589.05 3048.5 1607 3048.5 1624.95 3033.95 1639.5 3016 1639.5 2998.05 1639.5 2983.5 1624.95 2983.5 1607Z" stroke="#3D469C" stroke-width="4.58333" stroke-linecap="butt" stroke-linejoin="miter" stroke-miterlimit="8" stroke-opacity="1" fill="#5662D5" fill-rule="evenodd" fill-opacity="1"/><path d="M3114.5 1333C3114.5 1315.05 3129.05 1300.5 3147 1300.5 3164.95 1300.5 3179.5 1315.05 3179.5 1333 3179.5 1350.95 3164.95 1365.5 3147 1365.5 3129.05 1365.5 3114.5 1350.95 3114.5 1333Z" stroke="#3D469C" stroke-width="4.58333" stroke-linecap="butt" stroke-linejoin="miter" stroke-miterlimit="8" stroke-opacity="1" fill="#5662D5" fill-rule="evenodd" fill-opacity="1"/><path d="M3240.5 1284C3240.5 1266.05 3255.05 1251.5 3273 1251.5 3290.95 1251.5 3305.5 1266.05 3305.5 1284 3305.5 1301.95 3290.95 1316.5 3273 1316.5 3255.05 1316.5 3240.5 1301.95 3240.5 1284Z" stroke="#3D469C" stroke-width="4.58333" stroke-linecap="butt" stroke-linejoin="miter" stroke-miterlimit="8" stroke-opacity="1" fill="#5662D5" fill-rule="evenodd" fill-opacity="1"/><text fill="#FFFFFF" fill-opacity="1" font-family="Corbel,Corbel_MSFontService,sans-serif" font-style="normal" font-variant="normal" font-weight="400" font-stretch="normal" font-size="50" text-anchor="start" direction="ltr" writing-mode="lr-tb" unicode-bidi="normal" text-decoration="none" transform="matrix(1 0 0 1 3259.22 1300)">+</text><path d="M3694 1507.5C3694 1489.55 3708.55 1475 3726.5 1475 3744.45 1475 3759 1489.55 3759 1507.5 3759 1525.45 3744.45 1540 3726.5 1540 3708.55 1540 3694 1525.45 3694 1507.5Z" fill="#FDAC02" fill-rule="evenodd" fill-opacity="1"/><path d="M3992 1499.5C3992 1481.55 4006.55 1467 4024.5 1467 4042.45 1467 4057 1481.55 4057 1499.5 4057 1517.45 4042.45 1532 4024.5 1532 4006.55 1532 3992 1517.45 3992 1499.5Z" fill="#FDAC02" fill-rule="evenodd" fill-opacity="1"/><path d="M3790 1234.5C3790 1216.55 3804.55 1202 3822.5 1202 3840.45 1202 3855 1216.55 3855 1234.5 3855 1252.45 3840.45 1267 3822.5 1267 3804.55 1267 3790 1252.45 3790 1234.5Z" fill="#FDAC02" fill-rule="evenodd" fill-opacity="1"/><text fill="#FFFFFF" fill-opacity="1" font-family="Corbel,Corbel_MSFontService,sans-serif" font-style="normal" font-variant="normal" font-weight="400" font-stretch="normal" font-size="50" text-anchor="start" direction="ltr" writing-mode="lr-tb" unicode-bidi="normal" text-decoration="none" transform="matrix(1 0 0 1 3809.22 1251)">+</text><path d="M3670 1248.5C3670 1230.55 3684.55 1216 3702.5 1216 3720.45 1216 3735 1230.55 3735 1248.5 3735 1266.45 3720.45 1281 3702.5 1281 3684.55 1281 3670 1266.45 3670 1248.5Z" fill="#FDAC02" fill-rule="evenodd" fill-opacity="1"/><text fill="#FFFFFF" fill-opacity="1" font-family="Corbel,Corbel_MSFontService,sans-serif" font-style="normal" font-variant="normal" font-weight="400" font-stretch="normal" font-size="50" text-anchor="start" direction="ltr" writing-mode="lr-tb" unicode-bidi="normal" text-decoration="none" transform="matrix(1 0 0 1 3689.54 1265)">+</text><path d="M3787 1395.5C3787 1377.55 3801.55 1363 3819.5 1363 3837.45 1363 3852 1377.55 3852 1395.5 3852 1413.45 3837.45 1428 3819.5 1428 3801.55 1428 3787 1413.45 3787 1395.5Z" fill="#FDAC02" fill-rule="evenodd" fill-opacity="1"/><path d="M3910 1407.5C3910 1389.55 3924.55 1375 3942.5 1375 3960.45 1375 3975 1389.55 3975 1407.5 3975 1425.45 3960.45 1440 3942.5 1440 3924.55 1440 3910 1425.45 3910 1407.5Z" fill="#FDAC02" fill-rule="evenodd" fill-opacity="1"/><path d="M3852 1499.5C3852 1481.55 3866.55 1467 3884.5 1467 3902.45 1467 3917 1481.55 3917 1499.5 3917 1517.45 3902.45 1532 3884.5 1532 3866.55 1532 3852 1517.45 3852 1499.5Z" fill="#FDAC02" fill-rule="evenodd" fill-opacity="1"/><path d="M3929 1647.5C3929 1629.55 3943.55 1615 3961.5 1615 3979.45 1615 3994 1629.55 3994 1647.5 3994 1665.45 3979.45 1680 3961.5 1680 3943.55 1680 3929 1665.45 3929 1647.5Z" fill="#FDAC02" fill-rule="evenodd" fill-opacity="1"/><path d="M3771 1594.5C3771 1576.55 3785.55 1562 3803.5 1562 3821.45 1562 3836 1576.55 3836 1594.5 3836 1612.45 3821.45 1627 3803.5 1627 3785.55 1627 3771 1612.45 3771 1594.5Z" fill="#FDAC02" fill-rule="evenodd" fill-opacity="1"/><path d="M3930 1264.5C3930 1246.55 3944.55 1232 3962.5 1232 3980.45 1232 3995 1246.55 3995 1264.5 3995 1282.45 3980.45 1297 3962.5 1297 3944.55 1297 3930 1282.45 3930 1264.5Z" fill="#FDAC02" fill-rule="evenodd" fill-opacity="1"/><text fill="#FFFFFF" fill-opacity="1" font-family="Corbel,Corbel_MSFontService,sans-serif" font-style="normal" font-variant="normal" font-weight="400" font-stretch="normal" font-size="50" text-anchor="start" direction="ltr" writing-mode="lr-tb" unicode-bidi="normal" text-decoration="none" transform="matrix(1 0 0 1 3949.18 1281)">+</text><text fill="#242225" fill-opacity="1" font-family="Corbel,Corbel_MSFontService,sans-serif" font-style="normal" font-variant="normal" font-weight="700" font-stretch="normal" font-size="83" text-anchor="start" direction="ltr" writing-mode="lr-tb" unicode-bidi="normal" text-decoration="none" transform="matrix(1 0 0 1 3035.16 968)">Group A</text><text fill="#242225" fill-opacity="1" font-family="Corbel,Corbel_MSFontService,sans-serif" font-style="normal" font-variant="normal" font-weight="400" font-stretch="normal" font-size="55" text-anchor="start" direction="ltr" writing-mode="lr-tb" unicode-bidi="normal" text-decoration="none" transform="matrix(1 0 0 1 3011.6 1041)">True base rate: </text><text fill="#242225" fill-opacity="1" font-family="Corbel,Corbel_MSFontService,sans-serif" font-style="normal" font-variant="normal" font-weight="400" font-stretch="normal" font-size="55" text-anchor="start" direction="ltr" writing-mode="lr-tb" unicode-bidi="normal" text-decoration="none" transform="matrix(1 0 0 1 3144.79 1107)">0.5</text><text fill="#242225" fill-opacity="1" font-family="Corbel,Corbel_MSFontService,sans-serif" font-style="normal" font-variant="normal" font-weight="700" font-stretch="normal" font-size="83" text-anchor="start" direction="ltr" writing-mode="lr-tb" unicode-bidi="normal" text-decoration="none" transform="matrix(1 0 0 1 3701.76 968)">Group B</text><text fill="#242225" fill-opacity="1" font-family="Corbel,Corbel_MSFontService,sans-serif" font-style="normal" font-variant="normal" font-weight="400" font-stretch="normal" font-size="55" text-anchor="start" direction="ltr" writing-mode="lr-tb" unicode-bidi="normal" text-decoration="none" transform="matrix(1 0 0 1 3678.57 1041)">True base rate: </text><text fill="#242225" fill-opacity="1" font-family="Corbel,Corbel_MSFontService,sans-serif" font-style="normal" font-variant="normal" font-weight="400" font-stretch="normal" font-size="55" text-anchor="start" direction="ltr" writing-mode="lr-tb" unicode-bidi="normal" text-decoration="none" transform="matrix(1 0 0 1 3811.76 1107)">0.5</text><path d="M3625 1532.5C3625 1405.75 3730.88 1303 3861.5 1303 3992.11 1303 4098 1405.75 4098 1532.5 4098 1659.25 3992.11 1762 3861.5 1762 3730.88 1762 3625 1659.25 3625 1532.5Z" stroke="#3D469C" stroke-width="10.3125" stroke-linecap="butt" stroke-linejoin="miter" stroke-miterlimit="8" stroke-dasharray="10.3125 10.3125" stroke-opacity="1" fill="none" fill-rule="evenodd"/></g></g></svg>