<svg width="1004" height="1009" xmlns="http://www.w3.org/2000/svg" xmlns:xlink="http://www.w3.org/1999/xlink" xml:space="preserve" overflow="hidden"><g transform="translate(-673 -1232)"><g><path d="M0 0 799.744 799.744" stroke="#B5B5B5" stroke-width="10.3125" stroke-linecap="square" stroke-linejoin="miter" stroke-miterlimit="8" stroke-dasharray="30.9375 10.3125" stroke-opacity="1" fill="none" fill-rule="evenodd" transform="matrix(1 0 0 -1 782 2128.74)"/><path d="M782 2120.98 1584.49 2120.98 1584.49 2137.02 782 2137.02ZM1576.47 2104.94 1624.59 2129 1576.47 2153.06Z" fill="#242225" fill-rule="nonzero" fill-opacity="1"/><path d="M773.979 2128.59 773.98 1326.1 790.021 1326.1 790.021 2128.59ZM757.938 1334.12 782 1286 806.063 1334.12Z" fill="#242225" fill-rule="nonzero" fill-opacity="1"/><text fill="#242225" fill-opacity="1" font-family="Corbel,Corbel_MSFontService,sans-serif" font-style="normal" font-variant="normal" font-weight="400" font-stretch="normal" font-size="48" text-anchor="start" direction="ltr" writing-mode="lr-tb" unicode-bidi="normal" text-decoration="none" transform="matrix(1 0 0 1 976.718 2195)">false positive rate</text><text fill="#242225" fill-opacity="1" font-family="Corbel,Corbel_MSFontService,sans-serif" font-style="normal" font-variant="normal" font-weight="400" font-stretch="normal" font-size="48" text-anchor="start" direction="ltr" writing-mode="lr-tb" unicode-bidi="normal" text-decoration="none" transform="matrix(-1.83697e-16 -1 1 -1.83697e-16 736.846 1878)">true positive rate</text><path d="M792.5 2123.5C811.977 1842.62 823.3 1606.13 955.362 1472.91 1087.42 1339.68 1407.37 1319.31 1583.5 1326.87" stroke="#5662D5" stroke-width="9.16667" stroke-linecap="butt" stroke-linejoin="miter" stroke-miterlimit="8" stroke-dasharray="9.16667 9.16667" stroke-opacity="1" fill="none" fill-rule="evenodd"/><path d="M792.5 2123.5C841.875 1894.79 891.25 1666.09 1022.92 1532.26 1154.58 1398.42 1582.5 1320.5 1582.5 1320.5L1582.5 1320.5" stroke="#FFC000" stroke-width="6.875" stroke-linecap="butt" stroke-linejoin="miter" stroke-miterlimit="8" stroke-dasharray="27.5 20.625" stroke-opacity="1" fill="none" fill-rule="evenodd"/></g></g></svg>