<svg width="2888" height="1696" xmlns="http://www.w3.org/2000/svg" xmlns:xlink="http://www.w3.org/1999/xlink" xml:space="preserve" overflow="hidden"><defs><clipPath id="clip0"><rect x="682" y="536" width="2888" height="1696"/></clipPath></defs><g clip-path="url(#clip0)" transform="translate(-682 -536)"><rect x="687" y="1549" width="2881" height="680" fill="#DDE0F7" fill-opacity="1"/><text fill="#242225" fill-opacity="1" font-family="Corbel,Corbel_MSFontService,sans-serif" font-style="normal" font-variant="normal" font-weight="700" font-stretch="normal" font-size="92" text-anchor="start" direction="ltr" writing-mode="lr-tb" unicode-bidi="normal" text-decoration="none" transform="matrix(1 0 0 1 1744.01 1762)">The Modeled World</text><path d="M797 1892.67C797 1866.34 818.342 1845 844.668 1845L1293.33 1845C1319.66 1845 1341 1866.34 1341 1892.67L1341 2083.33C1341 2109.66 1319.66 2131 1293.33 2131L844.668 2131C818.342 2131 797 2109.66 797 2083.33Z" fill="#5662D5" fill-rule="evenodd" fill-opacity="1"/><text fill="#FFFFFF" fill-opacity="1" font-family="Corbel,Corbel_MSFontService,sans-serif" font-style="normal" font-variant="normal" font-weight="700" font-stretch="normal" font-size="73" text-anchor="start" direction="ltr" writing-mode="lr-tb" unicode-bidi="normal" text-decoration="none" transform="matrix(1 0 0 1 855.131 2013)">Training Data</text><path d="M2915 1892.67C2915 1866.34 2936.34 1845 2962.67 1845L3411.33 1845C3437.66 1845 3459 1866.34 3459 1892.67L3459 2083.33C3459 2109.66 3437.66 2131 3411.33 2131L2962.67 2131C2936.34 2131 2915 2109.66 2915 2083.33Z" fill="#5662D5" fill-rule="evenodd" fill-opacity="1"/><text fill="#FFFFFF" fill-opacity="1" font-family="Corbel,Corbel_MSFontService,sans-serif" font-style="normal" font-variant="normal" font-weight="700" font-stretch="normal" font-size="73" text-anchor="start" direction="ltr" writing-mode="lr-tb" unicode-bidi="normal" text-decoration="none" transform="matrix(1 0 0 1 3008.16 2013)">Predictions</text><path d="M1422.31 845.854C1403.64 737.587 1499.74 637.881 1636.96 623.154 1692.56 617.186 1749.09 626.107 1797.51 648.489 1848.81 572.185 1968.69 543.185 2065.27 583.717 2082.16 590.804 2097.66 599.787 2111.28 610.385 2151.24 547.135 2248.56 521.438 2328.66 552.99 2350.83 561.722 2370.16 574.352 2385.19 589.908 2449.59 530.093 2563.38 522.705 2639.36 573.405 2671.29 594.714 2692.82 624.105 2700.24 656.539 2805.75 679.257 2868 765.311 2839.27 848.745 2836.85 855.76 2833.82 862.632 2830.2 869.314 2914.83 956.251 2894.11 1080.86 2783.93 1147.63 2749.63 1168.42 2709.12 1181.87 2666.31 1186.7 2665.36 1280.24 2568.42 1355.45 2449.8 1354.7 2410.17 1354.45 2371.39 1345.56 2337.77 1329.01 2297.65 1433.87 2157.7 1493.14 2025.18 1461.39 1969.65 1448.08 1921.66 1419.94 1889.41 1381.77 1753.73 1446.35 1577.63 1411.61 1496.07 1304.18 1495.04 1302.82 1494.03 1301.46 1493.04 1300.09 1404.24 1308.29 1323.8 1258.29 1313.38 1188.41 1307.83 1151.16 1323.41 1113.88 1355.97 1086.5 1279.09 1050.78 1253.26 972.377 1298.29 911.383 1324.26 876.195 1369.82 852.933 1420.95 848.751Z" stroke="#3D469C" stroke-width="4.58333" stroke-linecap="butt" stroke-linejoin="miter" stroke-miterlimit="8" stroke-opacity="1" fill="#5662D5" fill-rule="evenodd" fill-opacity="1"/><path d="M1451.75 1100.03C1418.93 1102.06 1386.11 1096.07 1357.7 1082.87M1534.73 1287.8C1521.53 1291.94 1507.7 1294.71 1493.58 1296.01M1889.32 1378.02C1879.39 1366.27 1871.08 1353.71 1864.53 1340.56M2347.84 1284.61C2346.38 1298.55 2343.06 1312.33 2337.94 1325.71M2544.7 1030.65C2619.12 1059.23 2666.09 1118.99 2665.42 1184.26M2829.44 867.038C2817.39 889.263 2798.99 908.979 2775.69 924.639M2700.46 653.31C2702.51 662.285 2703.46 671.395 2703.29 680.514M2357.16 621.578C2364.16 609.028 2373.44 597.342 2384.69 586.885M2099.59 638.111C2102.44 627.74 2106.93 617.689 2112.93 608.191M1797.31 648.272C1814.83 656.371 1831.04 666.118 1845.58 677.3M1430.73 876.402C1426.91 866.413 1424.09 856.201 1422.31 845.862" stroke="#3D469C" stroke-width="4.58333" stroke-linecap="butt" stroke-linejoin="miter" stroke-miterlimit="8" stroke-opacity="1" fill="none" fill-rule="evenodd"/><text fill="#FFFFFF" fill-opacity="1" font-family="Corbel,Corbel_MSFontService,sans-serif" font-style="normal" font-variant="normal" font-weight="700" font-stretch="normal" font-size="92" text-anchor="start" direction="ltr" writing-mode="lr-tb" unicode-bidi="normal" text-decoration="none" transform="matrix(1 0 0 1 1725.29 779)">The Real World</text><path d="M0.132313-3.43495 19.184-2.70109 38.3212-0.516384 57.3714 3.0655 76.2964 7.99594 95.0585 14.2265 113.621 21.7088 131.947 30.3951 150.001 40.2376 167.747 51.1891 185.147 63.2025 202.168 76.2311 218.772 90.2284 234.923 105.148 250.586 120.944 265.724 137.57 280.301 154.979 294.28 173.127 307.626 191.968 320.3 211.455 332.268 231.542 343.491 252.185 353.934 273.337 363.559 294.953 372.329 316.987 380.207 339.394 387.156 362.127 393.139 385.141 398.119 408.391 402.057 431.83 404.919 455.426 406.513 479.694 399.653 480.144 398.065 455.971 398.082 456.16 395.242 432.735 395.264 432.891 391.352 409.605 391.38 409.756 386.432 386.654 386.467 386.799 380.521 363.927 380.56 364.067 373.653 341.472 373.698 341.607 365.866 319.334 365.915 319.465 357.196 297.56 357.25 297.687 347.681 276.196 347.739 276.32 337.356 255.289 337.419 255.41 326.26 234.886 326.327 235.003 314.429 215.031 314.5 215.146 301.9 195.773 301.976 195.886 288.71 177.158 288.792 177.268 274.897 159.23 274.985 159.339 260.499 142.038 260.593 142.145 245.552 125.627 245.653 125.733 230.095 110.042 230.203 110.147 214.164 95.3315 214.281 95.4346 197.799 81.5397 197.925 81.6411 181.036 68.713 181.172 68.8122 163.913 56.8968 164.061 56.9933 146.469 46.1367 146.629 46.2296 128.742 36.4778 128.915 36.566 110.769 27.9651 110.956 28.0471 92.588 20.6431 92.7898 20.7172 74.237 14.5562 74.4537 14.6204 55.753 9.74833 55.9844 9.80017 37.1728 6.26316 37.4181 6.30017 18.5326 4.1442 18.7902 4.16384-0.132313 3.43495ZM416.68 474.901 403.812 502.824 389.194 475.775Z" fill="#3C3C3C" fill-rule="nonzero" fill-opacity="1" transform="matrix(-1 1.22465e-16 1.22465e-16 1 1473.31 1343.5)"/><path d="M0.02993-3.43737 42.728-3.06559 85.3713-1.96516 127.847-0.159866 170.071 2.32677 211.961 5.47126 253.433 9.25015 294.406 13.64 334.794 18.6173 374.517 24.1587 413.49 30.2409 451.63 36.8404 488.855 43.9339 525.081 51.4983 560.227 59.5102 594.208 67.9465 626.943 76.7843 658.339 85.9975 673.526 90.7433 688.342 95.5723 702.784 100.485 716.842 105.477 730.507 110.548 743.767 115.693 756.613 120.911 769.035 126.199 781.022 131.553 792.564 136.972 803.652 142.453 814.275 147.994 824.423 153.592 834.086 159.245 843.255 164.952 851.918 170.71 860.068 176.518 867.692 182.374 874.782 188.278 881.326 194.23 887.315 200.228 892.737 206.274 897.579 212.367 901.83 218.509 905.578 224.876 908.36 232.914 901.863 235.163 899.193 227.449 899.479 228.068 895.969 222.106 896.105 222.318 891.991 216.373 892.126 216.556 887.418 210.631 887.55 210.788 882.258 204.887 882.385 205.02 876.519 199.146 876.639 199.26 870.212 193.415 870.325 193.513 863.345 187.701 863.45 187.785 855.928 182.007 856.027 182.081 847.974 176.341 848.066 176.405 839.492 170.706 839.578 170.762 830.493 165.107 830.574 165.156 820.989 159.548 821.064 159.591 810.989 154.033 811.06 154.071 800.506 148.566 800.572 148.6 789.549 143.151 789.611 143.181 778.13 137.79 778.188 137.817 766.259 132.488 766.314 132.513 753.947 127.248 754 127.27 741.205 122.073 741.255 122.093 728.044 116.966 728.091 116.985 714.473 111.931 714.519 111.948 700.505 106.971 700.548 106.986 686.149 102.088 686.19 102.102 671.416 97.2863 671.456 97.2991 656.317 92.5685 656.374 92.5859 625.043 83.3916 625.115 83.4119 592.45 74.593 592.518 74.6106 558.602 66.1906 558.666 66.2059 523.584 58.2083 523.645 58.2217 487.479 50.67 487.538 50.6818 450.372 43.5993 450.429 43.6097 412.345 37.02 412.401 37.0293 373.484 30.9558 373.539 30.9639 333.872 25.4302 333.926 25.4373 293.592 20.4667 293.646 20.4729 252.728 16.0889 252.782 16.0943 211.364 12.3204 211.419 12.3249 169.584 9.18455 169.639 9.18825 127.47 6.70489 127.527 6.70774 85.108 4.90486 85.1653 4.90682 42.58 3.80788 42.6387 3.8089-0.02993 3.43737ZM917.378 226.317 910.561 256.298 890.666 232.856Z" fill="#3C3C3C" fill-rule="nonzero" fill-opacity="1" transform="matrix(-1.83697e-16 -1 -1 1.83697e-16 3187.8 1846.06)"/><path d="M1341.5 1985.06 1833.44 1985.06 1833.44 1991.94 1341.5 1991.94ZM1828.86 1974.75 1856.36 1988.5 1828.86 2002.25Z" fill="#3C3C3C" fill-rule="nonzero" fill-opacity="1"/><path d="M1856 1892.67C1856 1866.34 1877.34 1845 1903.67 1845L2352.33 1845C2378.66 1845 2400 1866.34 2400 1892.67L2400 2083.33C2400 2109.66 2378.66 2131 2352.33 2131L1903.67 2131C1877.34 2131 1856 2109.66 1856 2083.33Z" fill="#5662D5" fill-rule="evenodd" fill-opacity="1"/><text fill="#FFFFFF" fill-opacity="1" font-family="Corbel,Corbel_MSFontService,sans-serif" font-style="normal" font-variant="normal" font-weight="700" font-stretch="normal" font-size="73" text-anchor="start" direction="ltr" writing-mode="lr-tb" unicode-bidi="normal" text-decoration="none" transform="matrix(1 0 0 1 2028.88 2013)">Model</text><path d="M2400.5 1985.06 2892.44 1985.06 2892.44 1991.94 2400.5 1991.94ZM2887.86 1974.75 2915.36 1988.5 2887.86 2002.25Z" fill="#3C3C3C" fill-rule="nonzero" fill-opacity="1"/><path d="M2301.18 1149.5 2356.44 1249.99 2333.65 1261.84 2403.25 1347.95 2380.45 1362.33 2466.5 1506.5 2320.58 1396.01 2348.41 1380.67 2257.74 1309.9 2290.23 1288.04 2194.5 1213.79Z" stroke="#2D39B4" stroke-width="9.16667" stroke-linecap="butt" stroke-linejoin="miter" stroke-miterlimit="8" stroke-opacity="1" fill="#FFFFFF" fill-rule="evenodd" fill-opacity="1"/><text fill="#242225" fill-opacity="1" font-family="Corbel,Corbel_MSFontService,sans-serif" font-style="normal" font-variant="normal" font-weight="700" font-stretch="normal" font-size="73" text-anchor="start" direction="ltr" writing-mode="lr-tb" unicode-bidi="normal" text-decoration="none" transform="matrix(1 0 0 1 1518.54 1870)">Train </text><text fill="#242225" fill-opacity="1" font-family="Corbel,Corbel_MSFontService,sans-serif" font-style="normal" font-variant="normal" font-weight="700" font-stretch="normal" font-size="73" text-anchor="start" direction="ltr" writing-mode="lr-tb" unicode-bidi="normal" text-decoration="none" transform="matrix(1 0 0 1 1499.31 1958)">Model</text><text fill="#242225" fill-opacity="1" font-family="Corbel,Corbel_MSFontService,sans-serif" font-style="normal" font-variant="normal" font-weight="700" font-stretch="normal" font-size="73" text-anchor="start" direction="ltr" writing-mode="lr-tb" unicode-bidi="normal" text-decoration="none" transform="matrix(1 0 0 1 2562.63 1870)">Make </text><text fill="#242225" fill-opacity="1" font-family="Corbel,Corbel_MSFontService,sans-serif" font-style="normal" font-variant="normal" font-weight="700" font-stretch="normal" font-size="73" text-anchor="start" direction="ltr" writing-mode="lr-tb" unicode-bidi="normal" text-decoration="none" transform="matrix(1 0 0 1 2477.67 1958)">Predictions</text><path d="M2520.5 848.834C2520.5 824.901 2539.9 805.5 2563.83 805.5L2888.17 805.5C2912.1 805.5 2931.5 824.901 2931.5 848.834L2931.5 1022.17C2931.5 1046.1 2912.1 1065.5 2888.17 1065.5L2563.83 1065.5C2539.9 1065.5 2520.5 1046.1 2520.5 1022.17Z" stroke="#2D39B4" stroke-width="9.16667" stroke-linecap="butt" stroke-linejoin="miter" stroke-miterlimit="8" stroke-opacity="1" fill="#FFFFFF" fill-rule="evenodd" fill-opacity="1"/><text fill="#242225" fill-opacity="1" font-family="Corbel,Corbel_MSFontService,sans-serif" font-style="normal" font-variant="normal" font-weight="700" font-stretch="normal" font-size="73" text-anchor="start" direction="ltr" writing-mode="lr-tb" unicode-bidi="normal" text-decoration="none" transform="matrix(1 0 0 1 2638.96 916)">Make </text><text fill="#242225" fill-opacity="1" font-family="Corbel,Corbel_MSFontService,sans-serif" font-style="normal" font-variant="normal" font-weight="700" font-stretch="normal" font-size="73" text-anchor="start" direction="ltr" writing-mode="lr-tb" unicode-bidi="normal" text-decoration="none" transform="matrix(1 0 0 1 2575.21 1004)">Decisions</text><path d="M1473.5 1256.67C1473.5 1232.83 1492.83 1213.5 1516.67 1213.5L1840.33 1213.5C1864.17 1213.5 1883.5 1232.83 1883.5 1256.67L1883.5 1429.33C1883.5 1453.17 1864.17 1472.5 1840.33 1472.5L1516.67 1472.5C1492.83 1472.5 1473.5 1453.17 1473.5 1429.33Z" stroke="#2D39B4" stroke-width="9.16667" stroke-linecap="butt" stroke-linejoin="miter" stroke-miterlimit="8" stroke-opacity="1" fill="#FFFFFF" fill-rule="evenodd" fill-opacity="1"/><text fill="#242225" fill-opacity="1" font-family="Corbel,Corbel_MSFontService,sans-serif" font-style="normal" font-variant="normal" font-weight="700" font-stretch="normal" font-size="73" text-anchor="start" direction="ltr" writing-mode="lr-tb" unicode-bidi="normal" text-decoration="none" transform="matrix(1 0 0 1 1569.05 1324)">Collect </text><text fill="#242225" fill-opacity="1" font-family="Corbel,Corbel_MSFontService,sans-serif" font-style="normal" font-variant="normal" font-weight="700" font-stretch="normal" font-size="73" text-anchor="start" direction="ltr" writing-mode="lr-tb" unicode-bidi="normal" text-decoration="none" transform="matrix(1 0 0 1 1601.14 1412)">Data</text><path d="M0.103787-3.43593 10.4859-3.12233 20.9453-2.18597 31.3565-0.650896 41.6991 1.4621 51.9529 4.1323 62.0979 7.33911 72.1143 11.0621 81.9824 15.2809 91.6826 19.9753 101.195 25.1254 110.501 30.7111 119.579 36.7127 128.411 43.1106 137.006 49.9072 153.234 64.4841 168.164 80.3317 175.126 88.7256 181.68 97.3523 187.828 106.221 193.551 115.311 198.828 124.605 203.639 134.083 207.963 143.726 211.779 153.515 215.066 163.431 217.804 173.454 219.985 183.636 220.812 191.013 213.979 191.779 213.172 184.571 213.227 184.909 211.101 174.988 211.146 175.173 208.458 165.331 208.511 165.507 205.281 155.763 205.341 155.929 201.588 146.303 201.654 146.461 197.4 136.971 197.471 137.121 192.734 127.788 192.81 127.93 187.611 118.774 187.691 118.908 182.051 109.948 182.135 110.075 176.072 101.331 176.16 101.452 169.696 92.9431 169.787 93.0581 162.941 84.8043 163.085 84.9669 148.329 69.3027 148.534 69.5029 132.492 55.0939 132.657 55.2328 124.204 48.5481 124.32 48.6357 115.606 42.3236 115.727 42.4073 106.772 36.4874 106.898 36.5672 97.7223 31.0592 97.8549 31.1348 88.4782 26.0583 88.6173 26.1296 79.0599 21.5042 79.206 21.5708 69.4879 17.4161 69.6415 17.4775 59.7828 13.8131 59.9443 13.8687 49.965 10.7142 50.1348 10.7631 40.0551 8.13827 40.2333 8.17965 30.0733 6.10394 30.2599 6.13674 20.0396 4.62981 20.2345 4.65289 9.97406 3.73435 10.1768 3.74647-0.103787 3.43593ZM230.694 185.633 219.39 214.226 203.299 188.027Z" fill="#FFFFFF" fill-rule="nonzero" fill-opacity="1" transform="matrix(-1 1.22465e-16 1.22465e-16 1 2520.89 935.5)"/><text fill="#FFFFFF" fill-opacity="1" font-family="Corbel,Corbel_MSFontService,sans-serif" font-style="normal" font-variant="normal" font-weight="700" font-stretch="normal" font-size="73" text-anchor="start" direction="ltr" writing-mode="lr-tb" unicode-bidi="normal" text-decoration="none" transform="matrix(1 0 0 1 2394.74 1244)">impact</text><path d="M1553.5 942.834C1553.5 918.901 1572.9 899.5 1596.83 899.5L2001.17 899.5C2025.1 899.5 2044.5 918.901 2044.5 942.834L2044.5 1116.17C2044.5 1140.1 2025.1 1159.5 2001.17 1159.5L1596.83 1159.5C1572.9 1159.5 1553.5 1140.1 1553.5 1116.17Z" stroke="#2D39B4" stroke-width="9.16667" stroke-linecap="butt" stroke-linejoin="miter" stroke-miterlimit="8" stroke-opacity="1" fill="#FFFFFF" fill-rule="evenodd" fill-opacity="1"/><text fill="#242225" fill-opacity="1" font-family="Corbel,Corbel_MSFontService,sans-serif" font-style="normal" font-variant="normal" font-weight="700" font-stretch="normal" font-size="73" text-anchor="start" direction="ltr" writing-mode="lr-tb" unicode-bidi="normal" text-decoration="none" transform="matrix(1 0 0 1 1663.77 1010)">Problem </text><text fill="#242225" fill-opacity="1" font-family="Corbel,Corbel_MSFontService,sans-serif" font-style="normal" font-variant="normal" font-weight="700" font-stretch="normal" font-size="73" text-anchor="start" direction="ltr" writing-mode="lr-tb" unicode-bidi="normal" text-decoration="none" transform="matrix(1 0 0 1 1603.04 1098)">Formulation</text><path d="M1802.41 1159.96 1802 1162.92 1800.71 1166.15 1798.75 1169.14 1796.22 1171.92 1793.2 1174.51 1789.73 1176.93 1785.84 1179.18 1781.54 1181.28 1772.1 1184.87 1761.58 1187.63 1750.35 1189.41 1738.94 1190.02 1727.7 1190.63 1728.05 1190.6 1717.16 1192.32 1717.5 1192.24 1707.32 1194.92 1708.1 1194.61 1696.7 1200.85 1693.4 1194.82 1705.17 1188.37 1715.92 1185.55 1727.15 1183.78 1738.56 1183.16 1749.8 1182.55 1749.45 1182.59 1760.34 1180.87 1760 1180.94 1770.18 1178.27 1769.83 1178.38 1778.95 1174.91 1778.66 1175.04 1782.72 1173.06 1782.5 1173.17 1786.16 1171.05 1785.92 1171.2 1789.13 1168.97 1788.86 1169.18 1791.59 1166.84 1791.28 1167.13 1793.48 1164.72 1793.15 1165.14 1794.77 1162.67 1794.46 1163.28 1795.46 1160.76 1795.25 1161.57 1795.6 1159.04ZM1707.87 1204.6 1678.5 1213.68 1688.85 1184.73Z" fill="#FFFFFF" fill-rule="nonzero" fill-opacity="1"/></g></svg>