<svg width="1375" height="1306" xmlns="http://www.w3.org/2000/svg" xmlns:xlink="http://www.w3.org/1999/xlink" xml:space="preserve" overflow="hidden"><defs><clipPath id="clip0"><rect x="1512" y="962" width="1375" height="1306"/></clipPath></defs><g clip-path="url(#clip0)" transform="translate(-1512 -962)"><path d="M1517.5 1349C1517.5 1138.86 1687.86 968.5 1898 968.5 2108.14 968.5 2278.5 1138.86 2278.5 1349 2278.5 1559.14 2108.14 1729.5 1898 1729.5 1687.86 1729.5 1517.5 1559.14 1517.5 1349Z" stroke="#3D469C" stroke-width="4.58333" stroke-linecap="butt" stroke-linejoin="miter" stroke-miterlimit="8" stroke-opacity="1" fill="#5662D5" fill-rule="evenodd" fill-opacity="0.8"/><text fill="#FFFFFF" fill-opacity="1" font-family="Corbel,Corbel_MSFontService,sans-serif" font-style="normal" font-variant="normal" font-weight="700" font-stretch="normal" font-size="73" text-anchor="start" direction="ltr" writing-mode="lr-tb" unicode-bidi="normal" text-decoration="none" transform="matrix(1 0 0 1 1729.23 1307)">Social Bias</text><text fill="#FFFFFF" fill-opacity="1" font-family="Corbel,Corbel_MSFontService,sans-serif" font-style="normal" font-variant="normal" font-weight="400" font-stretch="normal" font-size="55" text-anchor="start" direction="ltr" writing-mode="lr-tb" unicode-bidi="normal" text-decoration="none" transform="matrix(1 0 0 1 1684.27 1377)">Prejudice against a </text><text fill="#FFFFFF" fill-opacity="1" font-family="Corbel,Corbel_MSFontService,sans-serif" font-style="normal" font-variant="normal" font-weight="400" font-stretch="normal" font-size="55" text-anchor="start" direction="ltr" writing-mode="lr-tb" unicode-bidi="normal" text-decoration="none" transform="matrix(1 0 0 1 1691.99 1443)">person or a group.</text><path d="M2122.5 1349C2122.5 1138.86 2292.86 968.5 2503 968.5 2713.14 968.5 2883.5 1138.86 2883.5 1349 2883.5 1559.14 2713.14 1729.5 2503 1729.5 2292.86 1729.5 2122.5 1559.14 2122.5 1349Z" stroke="#3D469C" stroke-width="4.58333" stroke-linecap="butt" stroke-linejoin="miter" stroke-miterlimit="8" stroke-opacity="1" fill="#5662D5" fill-rule="evenodd" fill-opacity="0.8"/><text fill="#FFFFFF" fill-opacity="1" font-family="Corbel,Corbel_MSFontService,sans-serif" font-style="normal" font-variant="normal" font-weight="700" font-stretch="normal" font-size="73" text-anchor="start" direction="ltr" writing-mode="lr-tb" unicode-bidi="normal" text-decoration="none" transform="matrix(1 0 0 1 2268 1241)">Statistical Bias</text><text fill="#FFFFFF" fill-opacity="1" font-family="Corbel,Corbel_MSFontService,sans-serif" font-style="normal" font-variant="normal" font-weight="400" font-stretch="normal" font-size="55" text-anchor="start" direction="ltr" writing-mode="lr-tb" unicode-bidi="normal" text-decoration="none" transform="matrix(1 0 0 1 2287.48 1311)">Systematic error in </text><text fill="#FFFFFF" fill-opacity="1" font-family="Corbel,Corbel_MSFontService,sans-serif" font-style="normal" font-variant="normal" font-weight="400" font-stretch="normal" font-size="55" text-anchor="start" direction="ltr" writing-mode="lr-tb" unicode-bidi="normal" text-decoration="none" transform="matrix(1 0 0 1 2307.83 1377)">the estimation of </text><text fill="#FFFFFF" fill-opacity="1" font-family="Corbel,Corbel_MSFontService,sans-serif" font-style="normal" font-variant="normal" font-weight="400" font-stretch="normal" font-size="55" text-anchor="start" direction="ltr" writing-mode="lr-tb" unicode-bidi="normal" text-decoration="none" transform="matrix(1 0 0 1 2341.91 1443)">parameters or </text><text fill="#FFFFFF" fill-opacity="1" font-family="Corbel,Corbel_MSFontService,sans-serif" font-style="normal" font-variant="normal" font-weight="400" font-stretch="normal" font-size="55" text-anchor="start" direction="ltr" writing-mode="lr-tb" unicode-bidi="normal" text-decoration="none" transform="matrix(1 0 0 1 2394.04 1509)">variables.</text><path d="M1819.5 1883C1819.5 1672.86 1989.86 1502.5 2200 1502.5 2410.14 1502.5 2580.5 1672.86 2580.5 1883 2580.5 2093.14 2410.14 2263.5 2200 2263.5 1989.86 2263.5 1819.5 2093.14 1819.5 1883Z" stroke="#3D469C" stroke-width="4.58333" stroke-linecap="butt" stroke-linejoin="miter" stroke-miterlimit="8" stroke-opacity="1" fill="#5662D5" fill-rule="evenodd" fill-opacity="0.8"/><text fill="#FFFFFF" fill-opacity="1" font-family="Corbel,Corbel_MSFontService,sans-serif" font-style="normal" font-variant="normal" font-weight="700" font-stretch="normal" font-size="73" text-anchor="start" direction="ltr" writing-mode="lr-tb" unicode-bidi="normal" text-decoration="none" transform="matrix(1 0 0 1 1980.19 1776)">Systemic Bias</text><text fill="#FFFFFF" fill-opacity="1" font-family="Corbel,Corbel_MSFontService,sans-serif" font-style="normal" font-variant="normal" font-weight="400" font-stretch="normal" font-size="55" text-anchor="start" direction="ltr" writing-mode="lr-tb" unicode-bidi="normal" text-decoration="none" transform="matrix(1 0 0 1 1991.35 1846)">inherent tendency </text><text fill="#FFFFFF" fill-opacity="1" font-family="Corbel,Corbel_MSFontService,sans-serif" font-style="normal" font-variant="normal" font-weight="400" font-stretch="normal" font-size="55" text-anchor="start" direction="ltr" writing-mode="lr-tb" unicode-bidi="normal" text-decoration="none" transform="matrix(1 0 0 1 1990.78 1912)">of an institution or </text><text fill="#FFFFFF" fill-opacity="1" font-family="Corbel,Corbel_MSFontService,sans-serif" font-style="normal" font-variant="normal" font-weight="400" font-stretch="normal" font-size="55" text-anchor="start" direction="ltr" writing-mode="lr-tb" unicode-bidi="normal" text-decoration="none" transform="matrix(1 0 0 1 1989.64 1978)">process to support </text><text fill="#FFFFFF" fill-opacity="1" font-family="Corbel,Corbel_MSFontService,sans-serif" font-style="normal" font-variant="normal" font-weight="400" font-stretch="normal" font-size="55" text-anchor="start" direction="ltr" writing-mode="lr-tb" unicode-bidi="normal" text-decoration="none" transform="matrix(1 0 0 1 1972.45 2044)">particular outcomes</text></g></svg>