<svg width="3782" height="889" xmlns="http://www.w3.org/2000/svg" xmlns:xlink="http://www.w3.org/1999/xlink" xml:space="preserve" overflow="hidden"><g transform="translate(-453 -1132)"><g><path d="M741.5 1745C741.5 1669.06 803.061 1607.5 879 1607.5 954.939 1607.5 1016.5 1669.06 1016.5 1745 1016.5 1820.94 954.939 1882.5 879 1882.5 803.061 1882.5 741.5 1820.94 741.5 1745Z" stroke="#3D469C" stroke-width="4.58333" stroke-linecap="butt" stroke-linejoin="miter" stroke-miterlimit="8" stroke-opacity="1" fill="#5662D5" fill-rule="evenodd" fill-opacity="1"/><path d="M2064.5 1745C2064.5 1669.06 2126.06 1607.5 2202 1607.5 2277.94 1607.5 2339.5 1669.06 2339.5 1745 2339.5 1820.94 2277.94 1882.5 2202 1882.5 2126.06 1882.5 2064.5 1820.94 2064.5 1745Z" stroke="#3D469C" stroke-width="4.58333" stroke-linecap="butt" stroke-linejoin="miter" stroke-miterlimit="8" stroke-opacity="1" fill="#5662D5" fill-rule="evenodd" fill-opacity="1"/><path d="M3343.5 1745C3343.5 1669.06 3405.06 1607.5 3481 1607.5 3556.94 1607.5 3618.5 1669.06 3618.5 1745 3618.5 1820.94 3556.94 1882.5 3481 1882.5 3405.06 1882.5 3343.5 1820.94 3343.5 1745Z" stroke="#3D469C" stroke-width="4.58333" stroke-linecap="butt" stroke-linejoin="miter" stroke-miterlimit="8" stroke-opacity="1" fill="#5662D5" fill-rule="evenodd" fill-opacity="1"/><text fill="#242225" fill-opacity="1" font-family="Corbel,Corbel_MSFontService,sans-serif" font-style="normal" font-variant="normal" font-weight="700" font-stretch="normal" font-size="83" text-anchor="start" direction="ltr" writing-mode="lr-tb" unicode-bidi="normal" text-decoration="none" transform="matrix(1 0 0 1 715.052 1285)">potential</text><text fill="#242225" fill-opacity="1" font-family="Corbel,Corbel_MSFontService,sans-serif" font-style="italic" font-variant="normal" font-weight="400" font-stretch="normal" font-size="55" text-anchor="start" direction="ltr" writing-mode="lr-tb" unicode-bidi="normal" text-decoration="none" transform="matrix(1 0 0 1 688.698 1358)">inate potential to </text><text fill="#242225" fill-opacity="1" font-family="Corbel,Corbel_MSFontService,sans-serif" font-style="italic" font-variant="normal" font-weight="400" font-stretch="normal" font-size="55" text-anchor="start" direction="ltr" writing-mode="lr-tb" unicode-bidi="normal" text-decoration="none" transform="matrix(1 0 0 1 716.473 1424)">become a data </text><text fill="#242225" fill-opacity="1" font-family="Corbel,Corbel_MSFontService,sans-serif" font-style="italic" font-variant="normal" font-weight="400" font-stretch="normal" font-size="55" text-anchor="start" direction="ltr" writing-mode="lr-tb" unicode-bidi="normal" text-decoration="none" transform="matrix(1 0 0 1 787.514 1490)">scientist</text><text fill="#242225" fill-opacity="1" font-family="Corbel,Corbel_MSFontService,sans-serif" font-style="normal" font-variant="normal" font-weight="700" font-stretch="normal" font-size="64" text-anchor="start" direction="ltr" writing-mode="lr-tb" unicode-bidi="normal" text-decoration="none" transform="matrix(1 0 0 1 2582.31 1668)">measurement bias</text><text fill="#242225" fill-opacity="1" font-family="Corbel,Corbel_MSFontService,sans-serif" font-style="normal" font-variant="normal" font-weight="700" font-stretch="normal" font-size="83" text-anchor="start" direction="ltr" writing-mode="lr-tb" unicode-bidi="normal" text-decoration="none" transform="matrix(1 0 0 1 2031.29 1284)">construct</text><text fill="#242225" fill-opacity="1" font-family="Corbel,Corbel_MSFontService,sans-serif" font-style="italic" font-variant="normal" font-weight="400" font-stretch="normal" font-size="55" text-anchor="start" direction="ltr" writing-mode="lr-tb" unicode-bidi="normal" text-decoration="none" transform="matrix(1 0 0 1 2011.51 1357)">employee quality</text><text fill="#242225" fill-opacity="1" font-family="Corbel,Corbel_MSFontService,sans-serif" font-style="normal" font-variant="normal" font-weight="700" font-stretch="normal" font-size="83" text-anchor="start" direction="ltr" writing-mode="lr-tb" unicode-bidi="normal" text-decoration="none" transform="matrix(1 0 0 1 3232.19 1284)">measurement</text><text fill="#242225" fill-opacity="1" font-family="Corbel,Corbel_MSFontService,sans-serif" font-style="italic" font-variant="normal" font-weight="400" font-stretch="normal" font-size="55" text-anchor="start" direction="ltr" writing-mode="lr-tb" unicode-bidi="normal" text-decoration="none" transform="matrix(1 0 0 1 3312.97 1357)">hiring decisions</text><text fill="#242225" fill-opacity="1" font-family="Corbel,Corbel_MSFontService,sans-serif" font-style="normal" font-variant="normal" font-weight="700" font-stretch="normal" font-size="64" text-anchor="start" direction="ltr" writing-mode="lr-tb" unicode-bidi="normal" text-decoration="none" transform="matrix(1 0 0 1 1338.02 1668)">(un)just life bias</text><path d="M3178.5 1148.5C3240.72 1128.77 3276.66 1150.9 3370.24 1148.5 3463.81 1146.1 3464.86 1161.12 3550.11 1148.5 3635.37 1135.88 3718.21 1155.74 3771.5 1148.5 3786.93 1199.19 3748.9 1255.62 3771.5 1347.94 3794.1 1440.26 3758.72 1495.53 3771.5 1539.07 3784.28 1582.61 3761.33 1672.65 3771.5 1730.2 3781.68 1787.75 3763.08 1884.27 3771.5 1979.5 3713.32 1995.72 3627.54 1968.36 3573.83 1979.5 3520.13 1990.64 3446.92 1958.35 3393.96 1979.5 3341 2000.65 3262.68 1957.19 3178.5 1979.5 3163.44 1926.04 3203.07 1862.09 3178.5 1771.75 3153.93 1681.41 3194.01 1600.82 3178.5 1555.69 3162.99 1510.56 3190.37 1426.95 3178.5 1356.25 3166.63 1285.55 3202.24 1201.58 3178.5 1148.5Z" stroke="#3D469C" stroke-width="9.16667" stroke-linecap="butt" stroke-linejoin="miter" stroke-miterlimit="8" stroke-dasharray="36.6667 27.5" stroke-opacity="1" fill="none" fill-rule="evenodd"/><path d="M0.00101606-4.58333 39.9021-4.57449 79.4931-4.5487 118.46-4.50711 156.49-4.45083 175.057-4.41754 193.272-4.381 211.097-4.34135 228.493-4.29874 245.421-4.25331 261.842-4.20519 277.716-4.15453 293.006-4.10147 307.671-4.04615 321.673-3.98871 334.973-3.92929 347.531-3.86803 359.31-3.80508 370.27-3.74057 380.371-3.67464 389.576-3.60743 397.846-3.53908 405.141-3.46973 411.424-3.3995 416.665-3.32839 420.818-3.25655 423.867-3.18349 425.906-3.10299 426.699-3.01019 427.317-2.93797 426.965-2.96543 428.792-2.89333 428.721-2.89558 431.719-2.82375 431.689-2.82438 435.818-2.75299 435.801-2.75325 441.023-2.68242 447.287-2.61242 454.569-2.54322 462.828-2.47498 472.025-2.40785 482.121-2.34198 493.075-2.27752 504.849-2.2146 517.404-2.15338 530.7-2.09399 544.699-2.03657 559.361-1.98127 574.648-1.92822 590.52-1.87758 606.938-1.82947 623.864-1.78405 641.258-1.74145 659.081-1.70181 677.294-1.66528 695.859-1.63199 733.885-1.57572 772.848-1.53413 812.435-1.50835 829.418-1.50459 829.416 7.66208 812.429 7.65831 772.838 7.63253 733.872 7.59093 695.842 7.53466 677.276 7.50137 659.06 7.46483 641.235 7.42519 623.839 7.38258 606.911 7.33715 590.49 7.28904 574.616 7.23839 559.326 7.18534 544.661 7.13002 530.659 7.07259 517.359 7.01318 504.8 6.95193 493.021 6.88899 482.061 6.82449 471.958 6.75857 462.753 6.69137 454.482 6.62303 447.184 6.55367 440.898 6.48341 435.668 6.41246 431.515 6.34065 428.466 6.26761 426.427 6.18715 425.634 6.09437 425.016 6.0221 425.368 6.04958 423.541 5.97745 423.612 5.9797 420.614 5.90785 420.645 5.90848 416.515 5.83705 416.532 5.83732 411.322 5.76659 405.054 5.69652 397.77 5.62727 389.509 5.55899 380.312 5.49183 370.216 5.42594 359.261 5.36146 347.487 5.29853 334.932 5.23729 321.635 5.17788 307.636 5.12045 292.974 5.06514 277.687 5.01209 261.815 4.96144 245.396 4.91333 228.471 4.8679 211.077 4.82529 193.254 4.78565 175.04 4.74911 156.476 4.71583 118.45 4.65955 79.4871 4.61796 39.9001 4.59218-0.00101606 4.58333ZM824.836-10.6723 852.333 3.08383 824.83 16.8277Z" fill="#5662D5" fill-rule="nonzero" fill-opacity="1" transform="matrix(1 0 0 -1 1113.5 1738.58)"/><path d="M0.00101606-4.58333 39.9021-4.57449 79.4931-4.5487 118.46-4.50711 156.49-4.45083 175.057-4.41754 193.272-4.381 211.097-4.34135 228.493-4.29874 245.421-4.25331 261.842-4.20519 277.716-4.15453 293.006-4.10147 307.671-4.04615 321.673-3.98871 334.973-3.92929 347.531-3.86803 359.31-3.80508 370.27-3.74057 380.371-3.67464 389.576-3.60743 397.846-3.53908 405.141-3.46973 411.424-3.3995 416.665-3.32839 420.818-3.25655 423.867-3.18349 425.906-3.10299 426.699-3.01019 427.317-2.93797 426.965-2.96543 428.792-2.89333 428.721-2.89558 431.719-2.82375 431.689-2.82438 435.818-2.75299 435.801-2.75325 441.023-2.68242 447.287-2.61242 454.569-2.54322 462.828-2.47498 472.025-2.40785 482.121-2.34198 493.075-2.27752 504.849-2.2146 517.404-2.15338 530.7-2.09399 544.699-2.03657 559.361-1.98127 574.648-1.92822 590.52-1.87758 606.938-1.82947 623.864-1.78405 641.258-1.74145 659.081-1.70181 677.294-1.66528 695.859-1.63199 733.885-1.57572 772.848-1.53413 812.435-1.50835 829.418-1.50459 829.416 7.66208 812.429 7.65831 772.838 7.63253 733.872 7.59093 695.842 7.53466 677.276 7.50137 659.06 7.46483 641.235 7.42519 623.839 7.38258 606.911 7.33715 590.49 7.28904 574.616 7.23839 559.326 7.18534 544.661 7.13002 530.659 7.07259 517.359 7.01318 504.8 6.95193 493.021 6.88899 482.061 6.82449 471.958 6.75857 462.753 6.69137 454.482 6.62303 447.184 6.55367 440.898 6.48341 435.668 6.41246 431.515 6.34065 428.466 6.26761 426.427 6.18715 425.634 6.09437 425.016 6.0221 425.368 6.04958 423.541 5.97745 423.612 5.9797 420.614 5.90785 420.645 5.90848 416.515 5.83705 416.532 5.83732 411.322 5.76659 405.054 5.69652 397.77 5.62727 389.509 5.55899 380.312 5.49183 370.216 5.42594 359.261 5.36146 347.487 5.29853 334.932 5.23729 321.635 5.17788 307.636 5.12045 292.974 5.06514 277.687 5.01209 261.815 4.96144 245.396 4.91333 228.471 4.8679 211.077 4.82529 193.254 4.78565 175.04 4.74911 156.476 4.71583 118.45 4.65955 79.4871 4.61796 39.9001 4.59218-0.00101606 4.58333ZM824.836-10.6723 852.333 3.08383 824.83 16.8277Z" fill="#5662D5" fill-rule="nonzero" fill-opacity="1" transform="matrix(1 0 0 -1 2410.5 1738.58)"/><text fill="#3C3C3C" fill-opacity="0.8" font-family="Corbel,Corbel_MSFontService,sans-serif" font-style="italic" font-variant="normal" font-weight="400" font-stretch="normal" font-size="55" text-anchor="start" direction="ltr" writing-mode="lr-tb" unicode-bidi="normal" text-decoration="none" transform="matrix(1 0 0 1 1380.07 1839)">innate potential</text><text fill="#3C3C3C" fill-opacity="0.8" font-family="Corbel,Corbel_MSFontService,sans-serif" font-style="italic" font-variant="normal" font-weight="400" font-stretch="normal" font-size="55" text-anchor="start" direction="ltr" writing-mode="lr-tb" unicode-bidi="normal" text-decoration="none" transform="matrix(1 0 0 1 1519.86 1905)">=/= </text><text fill="#3C3C3C" fill-opacity="0.8" font-family="Corbel,Corbel_MSFontService,sans-serif" font-style="italic" font-variant="normal" font-weight="400" font-stretch="normal" font-size="55" text-anchor="start" direction="ltr" writing-mode="lr-tb" unicode-bidi="normal" text-decoration="none" transform="matrix(1 0 0 1 1368.04 1971)">employee quality</text><text fill="#3C3C3C" fill-opacity="0.8" font-family="Corbel,Corbel_MSFontService,sans-serif" font-style="italic" font-variant="normal" font-weight="400" font-stretch="normal" font-size="55" text-anchor="start" direction="ltr" writing-mode="lr-tb" unicode-bidi="normal" text-decoration="none" transform="matrix(1 0 0 1 2673.69 1833)">employee quality</text><text fill="#3C3C3C" fill-opacity="0.8" font-family="Corbel,Corbel_MSFontService,sans-serif" font-style="italic" font-variant="normal" font-weight="400" font-stretch="normal" font-size="55" text-anchor="start" direction="ltr" writing-mode="lr-tb" unicode-bidi="normal" text-decoration="none" transform="matrix(1 0 0 1 2825.51 1899)">=/= </text><text fill="#3C3C3C" fill-opacity="0.8" font-family="Corbel,Corbel_MSFontService,sans-serif" font-style="italic" font-variant="normal" font-weight="400" font-stretch="normal" font-size="55" text-anchor="start" direction="ltr" writing-mode="lr-tb" unicode-bidi="normal" text-decoration="none" transform="matrix(1 0 0 1 2693.74 1965)">hiring decisions</text><text fill="#242225" fill-opacity="1" font-family="Corbel,Corbel_MSFontService,sans-serif" font-style="normal" font-variant="normal" font-weight="400" font-stretch="normal" font-size="55" text-anchor="start" direction="ltr" writing-mode="lr-tb" unicode-bidi="normal" text-decoration="none" transform="matrix(1 0 0 1 3827.75 1337)">Data consists of </text><text fill="#242225" fill-opacity="1" font-family="Corbel,Corbel_MSFontService,sans-serif" font-style="normal" font-variant="normal" font-weight="400" font-stretch="normal" font-size="55" text-anchor="start" direction="ltr" writing-mode="lr-tb" unicode-bidi="normal" text-decoration="none" transform="matrix(1 0 0 1 3829.77 1403)">measurements, </text><text fill="#242225" fill-opacity="1" font-family="Corbel,Corbel_MSFontService,sans-serif" font-style="normal" font-variant="normal" font-weight="700" font-stretch="normal" font-size="55" text-anchor="start" direction="ltr" writing-mode="lr-tb" unicode-bidi="normal" text-decoration="none" transform="matrix(1 0 0 1 3836.07 1469)">not</text><text fill="#242225" fill-opacity="1" font-family="Corbel,Corbel_MSFontService,sans-serif" font-style="normal" font-variant="normal" font-weight="400" font-stretch="normal" font-size="55" text-anchor="start" direction="ltr" writing-mode="lr-tb" unicode-bidi="normal" text-decoration="none" transform="matrix(1 0 0 1 3928.31 1469)">constructs!</text><path d="M4006.3 1515.5C4006.3 1573.1 3935.9 1630.69 3865.5 1630.69" stroke="#5662D5" stroke-width="9.16667" stroke-linecap="butt" stroke-linejoin="miter" stroke-miterlimit="8" stroke-opacity="1" fill="none" fill-rule="evenodd"/><text fill="#242225" fill-opacity="1" font-family="Corbel,Corbel_MSFontService,sans-serif" font-style="normal" font-variant="normal" font-weight="700" font-stretch="normal" font-size="64" text-anchor="start" direction="ltr" writing-mode="lr-tb" unicode-bidi="normal" text-decoration="none" transform="matrix(1 0 0 1 2581.06 1291)">operationalization</text><path d="M2198.92 1566.87 2199.16 1561.64 2199.91 1556.21 2201.15 1550.8 2202.86 1545.44 2205.02 1540.12 2207.63 1534.84 2210.67 1529.61 2214.12 1524.42 2217.99 1519.28 2222.26 1514.19 2226.92 1509.14 2231.96 1504.14 2237.37 1499.19 2243.18 1494.25 2255.78 1484.6 2269.8 1475.12 2285.14 1465.83 2301.75 1456.77 2319.58 1447.94 2338.57 1439.36 2358.65 1431.04 2379.79 1423 2401.9 1415.27 2424.95 1407.85 2448.88 1400.78 2473.61 1394.06 2499.11 1387.71 2525.31 1381.77 2552.14 1376.23 2579.57 1371.13 2607.51 1366.49 2635.93 1362.32 2664.75 1358.64 2693.93 1355.47 2723.4 1352.83 2753.11 1350.75 2782.99 1349.23 2813 1348.31 2843.06 1348 2873.12 1348.3 2903.12 1349.21 2933.01 1350.69 2962.71 1352.73 2992.18 1355.31 3021.36 1358.41 3050.18 1362.01 3078.59 1366.09 3106.54 1370.64 3133.96 1375.63 3160.8 1381.04 3186.99 1386.86 3212.48 1393.07 3237.22 1399.65 3261.14 1406.57 3284.19 1413.83 3306.31 1421.4 3327.44 1429.26 3347.52 1437.4 3366.51 1445.8 3384.33 1454.44 3400.94 1463.31 3416.28 1472.39 3430.3 1481.67 3442.9 1491.12 3448.71 1495.95 3454.13 1500.8 3459.17 1505.7 3463.83 1510.64 3468.1 1515.62 3471.97 1520.66 3475.43 1525.73 3478.63 1531.12 3481.31 1538.77 3472.66 1541.8 3470.13 1534.58 3470.51 1535.41 3467.62 1530.54 3467.78 1530.78 3464.47 1525.93 3464.62 1526.14 3460.91 1521.31 3461.06 1521.49 3456.94 1516.68 3457.09 1516.85 3452.57 1512.06 3452.71 1512.2 3447.81 1507.44 3447.94 1507.57 3442.66 1502.83 3442.79 1502.95 3437.13 1498.24 3437.31 1498.39 3424.91 1489.09 3425.13 1489.24 3411.32 1480.1 3411.52 1480.22 3396.36 1471.25 3396.54 1471.35 3380.09 1462.57 3380.25 1462.65 3362.58 1454.08 3362.72 1454.15 3343.88 1445.81 3344.01 1445.87 3324.05 1437.78 3324.18 1437.83 3303.17 1430.01 3303.28 1430.05 3281.28 1422.52 3281.38 1422.55 3258.44 1415.33 3258.54 1415.36 3234.72 1408.47 3234.82 1408.49 3210.18 1401.94 3210.27 1401.97 3184.87 1395.78 3184.96 1395.8 3158.85 1390 3158.94 1390.02 3132.19 1384.62 3132.28 1384.64 3104.94 1379.66 3105.03 1379.68 3077.16 1375.15 3077.25 1375.16 3048.92 1371.09 3049 1371.1 3020.26 1367.51 3020.35 1367.52 2991.25 1364.43 2991.34 1364.44 2961.95 1361.86 2962.04 1361.87 2932.42 1359.84 2932.51 1359.84 2902.71 1358.37 2902.8 1358.37 2872.89 1357.47 2872.98 1357.47 2843.01 1357.17 2843.11 1357.17 2813.14 1357.48 2813.23 1357.48 2783.32 1358.39 2783.41 1358.39 2753.62 1359.9 2753.71 1359.89 2724.09 1361.97 2724.18 1361.97 2694.79 1364.59 2694.88 1364.59 2665.79 1367.74 2665.87 1367.73 2637.13 1371.4 2637.22 1371.39 2608.89 1375.55 2608.97 1375.54 2581.11 1380.17 2581.2 1380.15 2553.86 1385.24 2553.95 1385.22 2527.2 1390.73 2527.29 1390.72 2501.19 1396.64 2501.28 1396.62 2475.88 1402.94 2475.97 1402.92 2451.33 1409.61 2451.43 1409.58 2427.61 1416.63 2427.71 1416.6 2404.77 1423.98 2404.88 1423.94 2382.87 1431.64 2382.99 1431.59 2361.97 1439.58 2362.1 1439.53 2342.14 1447.8 2342.28 1447.74 2323.43 1456.26 2323.58 1456.19 2305.91 1464.94 2306.07 1464.86 2289.62 1473.83 2289.8 1473.73 2274.64 1482.9 2274.84 1482.77 2261.03 1492.12 2261.25 1491.96 2248.85 1501.46 2249.03 1501.32 2243.37 1506.12 2243.5 1506.01 2238.21 1510.84 2238.35 1510.72 2233.44 1515.58 2233.58 1515.44 2229.07 1520.33 2229.21 1520.16 2225.1 1525.08 2225.24 1524.89 2221.53 1529.83 2221.68 1529.62 2218.37 1534.58 2218.52 1534.33 2215.63 1539.31 2215.78 1539.04 2213.31 1544.03 2213.45 1543.72 2211.42 1548.73 2211.54 1548.39 2209.94 1553.4 2210.04 1553.03 2208.9 1558.05 2208.97 1557.66 2208.27 1562.68 2208.31 1562.27 2208.08 1567.3ZM3489.18 1532.46 3482.62 1562.5 3462.53 1539.23Z" fill="#5662D5" fill-rule="nonzero" fill-opacity="1"/><path d="M3341.5 1744C3341.5 1667.51 3403.51 1605.5 3480 1605.5 3556.49 1605.5 3618.5 1667.51 3618.5 1744 3618.5 1820.49 3556.49 1882.5 3480 1882.5 3403.51 1882.5 3341.5 1820.49 3341.5 1744Z" stroke="#3D469C" stroke-width="4.58333" stroke-linecap="butt" stroke-linejoin="miter" stroke-miterlimit="8" stroke-opacity="1" fill="#5662D5" fill-rule="evenodd" fill-opacity="1"/><path d="M3389.5 1744C3389.5 1694.02 3430.02 1653.5 3480 1653.5 3529.98 1653.5 3570.5 1694.02 3570.5 1744 3570.5 1793.98 3529.98 1834.5 3480 1834.5 3430.02 1834.5 3389.5 1793.98 3389.5 1744Z" stroke="#3D469C" stroke-width="4.58333" stroke-linecap="butt" stroke-linejoin="miter" stroke-miterlimit="8" stroke-opacity="1" fill="#FFFFFF" fill-rule="evenodd" fill-opacity="1"/><path d="M3433.5 1744.5C3433.5 1719.09 3454.32 1698.5 3480 1698.5 3505.68 1698.5 3526.5 1719.09 3526.5 1744.5 3526.5 1769.91 3505.68 1790.5 3480 1790.5 3454.32 1790.5 3433.5 1769.91 3433.5 1744.5Z" stroke="#3D469C" stroke-width="4.58333" stroke-linecap="butt" stroke-linejoin="miter" stroke-miterlimit="8" stroke-opacity="1" fill="#5662D5" fill-rule="evenodd" fill-opacity="1"/><path d="M3513 1646C3513 1641.03 3517.03 1637 3522 1637 3526.97 1637 3531 1641.03 3531 1646 3531 1650.97 3526.97 1655 3522 1655 3517.03 1655 3513 1650.97 3513 1646Z" fill="#181818" fill-rule="evenodd" fill-opacity="1"/><path d="M3544 1644.5C3544 1639.81 3548.03 1636 3553 1636 3557.97 1636 3562 1639.81 3562 1644.5 3562 1649.19 3557.97 1653 3553 1653 3548.03 1653 3544 1649.19 3544 1644.5Z" fill="#181818" fill-rule="evenodd" fill-opacity="1"/><path d="M3527 1671C3527 1666.03 3530.81 1662 3535.5 1662 3540.19 1662 3544 1666.03 3544 1671 3544 1675.97 3540.19 1680 3535.5 1680 3530.81 1680 3527 1675.97 3527 1671Z" fill="#181818" fill-rule="evenodd" fill-opacity="1"/><path d="M3550 1669.5C3550 1664.81 3554.03 1661 3559 1661 3563.97 1661 3568 1664.81 3568 1669.5 3568 1674.19 3563.97 1678 3559 1678 3554.03 1678 3550 1674.19 3550 1669.5Z" fill="#181818" fill-rule="evenodd" fill-opacity="1"/><path d="M3505 1674C3505 1669.03 3508.81 1665 3513.5 1665 3518.19 1665 3522 1669.03 3522 1674 3522 1678.97 3518.19 1683 3513.5 1683 3508.81 1683 3505 1678.97 3505 1674Z" fill="#181818" fill-rule="evenodd" fill-opacity="1"/><path d="M3542 1690C3542 1685.03 3545.81 1681 3550.5 1681 3555.19 1681 3559 1685.03 3559 1690 3559 1694.97 3555.19 1699 3550.5 1699 3545.81 1699 3542 1694.97 3542 1690Z" fill="#181818" fill-rule="evenodd" fill-opacity="1"/></g></g></svg>