<svg width="2218" height="1302" xmlns="http://www.w3.org/2000/svg" xmlns:xlink="http://www.w3.org/1999/xlink" xml:space="preserve" overflow="hidden"><g transform="translate(-348 -843)"><g><rect x="1545" y="913" width="402" height="222" fill="#797979" fill-opacity="0.278431"/><rect x="933" y="913" width="604" height="394" fill="#797979" fill-opacity="0.278431"/><rect x="1545" y="1130" width="971" height="535" fill="#797979" fill-opacity="0.278431"/><path d="M0.0224924-8.0208 1552-3.66866 1551.96 12.3729-0.0224924 8.0208ZM1544.02-19.7328 1592.08 4.4646 1543.89 28.392Z" fill="#242225" fill-rule="nonzero" fill-opacity="1" transform="matrix(1 0 0 -1 924 2000.46)"/><path d="M8.02083-2.61794e-06 8.02118 1065.6-8.02049 1065.6-8.02083 2.61794e-06ZM24.0628 1057.58 0.000360892 1105.7-24.0622 1057.58Z" fill="#242225" fill-rule="nonzero" fill-opacity="1" transform="matrix(1 0 0 -1 924 2000.7)"/><text fill="#242225" fill-opacity="1" font-family="Corbel,Corbel_MSFontService,sans-serif" font-style="normal" font-variant="normal" font-weight="400" font-stretch="normal" font-size="55" text-anchor="start" direction="ltr" writing-mode="lr-tb" unicode-bidi="normal" text-decoration="none" transform="matrix(1 0 0 1 1619.31 2096)">feature 1</text><text fill="#242225" fill-opacity="1" font-family="Corbel,Corbel_MSFontService,sans-serif" font-style="normal" font-variant="normal" font-weight="400" font-stretch="normal" font-size="55" text-anchor="start" direction="ltr" writing-mode="lr-tb" unicode-bidi="normal" text-decoration="none" transform="matrix(-1.83697e-16 -1 1 -1.83697e-16 862.947 1549)">feature 2</text><path d="M1214 1027.5C1214 1003.48 1233.48 984 1257.5 984 1281.52 984 1301 1003.48 1301 1027.5 1301 1051.52 1281.52 1071 1257.5 1071 1233.48 1071 1214 1051.52 1214 1027.5Z" fill="#FEC857" fill-rule="evenodd" fill-opacity="1"/><text fill="#FFFFFF" fill-opacity="1" font-family="Lato,Lato_MSFontService,sans-serif" font-style="normal" font-variant="normal" font-weight="700" font-stretch="normal" font-size="64" text-anchor="start" direction="ltr" writing-mode="lr-tb" unicode-bidi="normal" text-decoration="none" transform="matrix(1 0 0 1 1238.61 1052)">+</text><path d="M935.5 1310.5 1545.32 1310.5" stroke="#242225" stroke-width="9.16667" stroke-linecap="butt" stroke-linejoin="miter" stroke-miterlimit="8" stroke-opacity="1" fill="none" fill-rule="evenodd"/><path d="M0 0 0.000360892 1036.33" stroke="#242225" stroke-width="9.16667" stroke-linecap="butt" stroke-linejoin="miter" stroke-miterlimit="8" stroke-opacity="1" fill="none" fill-rule="evenodd" transform="matrix(1 0 0 -1 1545.5 1964.83)"/><path d="M1545.5 1130.5 2516.78 1130.5" stroke="#242225" stroke-width="9.16667" stroke-linecap="butt" stroke-linejoin="miter" stroke-miterlimit="8" stroke-opacity="1" fill="none" fill-rule="evenodd"/><path d="M1545.5 1665.5 2516.78 1665.5" stroke="#242225" stroke-width="9.16667" stroke-linecap="butt" stroke-linejoin="miter" stroke-miterlimit="8" stroke-opacity="1" fill="none" fill-rule="evenodd"/><path d="M0 0 0.000360892 201.913" stroke="#242225" stroke-width="9.16667" stroke-linecap="butt" stroke-linejoin="miter" stroke-miterlimit="8" stroke-opacity="1" fill="none" fill-rule="evenodd" transform="matrix(1 0 0 -1 1947.5 1130.41)"/><path d="M1797 962.5C1797 939.028 1816.03 920 1839.5 920 1862.97 920 1882 939.028 1882 962.5 1882 985.972 1862.97 1005 1839.5 1005 1816.03 1005 1797 985.972 1797 962.5Z" stroke="#FEC857" stroke-width="10.3125" stroke-linecap="butt" stroke-linejoin="miter" stroke-miterlimit="8" stroke-dasharray="10.3125 10.3125" stroke-opacity="1" fill="none" fill-rule="evenodd"/><text fill="#FEC857" fill-opacity="1" font-family="Lato,Lato_MSFontService,sans-serif" font-style="normal" font-variant="normal" font-weight="700" font-stretch="normal" font-size="64" text-anchor="start" direction="ltr" writing-mode="lr-tb" unicode-bidi="normal" text-decoration="none" transform="matrix(1 0 0 1 1820.89 987)">+</text><path d="M2268 1022.5C2268 998.476 2287.48 979 2311.5 979 2335.52 979 2355 998.476 2355 1022.5 2355 1046.52 2335.52 1066 2311.5 1066 2287.48 1066 2268 1046.52 2268 1022.5Z" fill="#FEC857" fill-rule="evenodd" fill-opacity="1"/><text fill="#FFFFFF" fill-opacity="1" font-family="Lato,Lato_MSFontService,sans-serif" font-style="normal" font-variant="normal" font-weight="700" font-stretch="normal" font-size="64" text-anchor="start" direction="ltr" writing-mode="lr-tb" unicode-bidi="normal" text-decoration="none" transform="matrix(1 0 0 1 2292.54 1047)">+</text><path d="M2064 967.5C2064 943.476 2083.48 924 2107.5 924 2131.52 924 2151 943.476 2151 967.5 2151 991.524 2131.52 1011 2107.5 1011 2083.48 1011 2064 991.524 2064 967.5Z" fill="#FEC857" fill-rule="evenodd" fill-opacity="1"/><text fill="#FFFFFF" fill-opacity="1" font-family="Lato,Lato_MSFontService,sans-serif" font-style="normal" font-variant="normal" font-weight="700" font-stretch="normal" font-size="64" text-anchor="start" direction="ltr" writing-mode="lr-tb" unicode-bidi="normal" text-decoration="none" transform="matrix(1 0 0 1 2088.76 992)">+</text><path d="M2057 1906C2057 1881.7 2076.48 1862 2100.5 1862 2124.52 1862 2144 1881.7 2144 1906 2144 1930.3 2124.52 1950 2100.5 1950 2076.48 1950 2057 1930.3 2057 1906Z" fill="#FEC857" fill-rule="evenodd" fill-opacity="1"/><text fill="#FFFFFF" fill-opacity="1" font-family="Lato,Lato_MSFontService,sans-serif" font-style="normal" font-variant="normal" font-weight="700" font-stretch="normal" font-size="64" text-anchor="start" direction="ltr" writing-mode="lr-tb" unicode-bidi="normal" text-decoration="none" transform="matrix(1 0 0 1 2081.8 1931)">+</text><path d="M1023 1780.5C1023 1756.48 1042.48 1737 1066.5 1737 1090.52 1737 1110 1756.48 1110 1780.5 1110 1804.52 1090.52 1824 1066.5 1824 1042.48 1824 1023 1804.52 1023 1780.5Z" fill="#FEC857" fill-rule="evenodd" fill-opacity="1"/><text fill="#FFFFFF" fill-opacity="1" font-family="Lato,Lato_MSFontService,sans-serif" font-style="normal" font-variant="normal" font-weight="700" font-stretch="normal" font-size="64" text-anchor="start" direction="ltr" writing-mode="lr-tb" unicode-bidi="normal" text-decoration="none" transform="matrix(1 0 0 1 1047.76 1805)">+</text><path d="M1261 1688C1261 1663.7 1280.48 1644 1304.5 1644 1328.52 1644 1348 1663.7 1348 1688 1348 1712.3 1328.52 1732 1304.5 1732 1280.48 1732 1261 1712.3 1261 1688Z" fill="#FEC857" fill-rule="evenodd" fill-opacity="1"/><text fill="#FFFFFF" fill-opacity="1" font-family="Lato,Lato_MSFontService,sans-serif" font-style="normal" font-variant="normal" font-weight="700" font-stretch="normal" font-size="64" text-anchor="start" direction="ltr" writing-mode="lr-tb" unicode-bidi="normal" text-decoration="none" transform="matrix(1 0 0 1 1285.58 1712)">+</text><path d="M1003 1188C1003 1164.25 1022.25 1145 1046 1145 1069.75 1145 1089 1164.25 1089 1188 1089 1211.75 1069.75 1231 1046 1231 1022.25 1231 1003 1211.75 1003 1188Z" stroke="#5662D5" stroke-width="10.3125" stroke-linecap="butt" stroke-linejoin="miter" stroke-miterlimit="8" stroke-dasharray="10.3125 10.3125" stroke-opacity="1" fill="none" fill-rule="evenodd"/><text fill="#5662D5" fill-opacity="1" font-family="Lato,Lato_MSFontService,sans-serif" font-style="normal" font-variant="normal" font-weight="700" font-stretch="normal" font-size="73" text-anchor="start" direction="ltr" writing-mode="lr-tb" unicode-bidi="normal" text-decoration="none" transform="matrix(1 0 0 1 1032.58 1216)">-</text><path d="M1002 1002.5C1002 979.028 1021.25 960 1045 960 1068.75 960 1088 979.028 1088 1002.5 1088 1025.97 1068.75 1045 1045 1045 1021.25 1045 1002 1025.97 1002 1002.5Z" fill="#5662D5" fill-rule="evenodd" fill-opacity="1"/><text fill="#FFFFFF" fill-opacity="1" font-family="Lato,Lato_MSFontService,sans-serif" font-style="normal" font-variant="normal" font-weight="700" font-stretch="normal" font-size="64" text-anchor="start" direction="ltr" writing-mode="lr-tb" unicode-bidi="normal" text-decoration="none" transform="matrix(1 0 0 1 1033.28 1027)">-</text><path d="M1736 1080C1736 1056.25 1755.03 1037 1778.5 1037 1801.97 1037 1821 1056.25 1821 1080 1821 1103.75 1801.97 1123 1778.5 1123 1755.03 1123 1736 1103.75 1736 1080Z" fill="#5662D5" fill-rule="evenodd" fill-opacity="1"/><text fill="#FFFFFF" fill-opacity="1" font-family="Lato,Lato_MSFontService,sans-serif" font-style="normal" font-variant="normal" font-weight="700" font-stretch="normal" font-size="64" text-anchor="start" direction="ltr" writing-mode="lr-tb" unicode-bidi="normal" text-decoration="none" transform="matrix(1 0 0 1 1767.13 1104)">-</text><path d="M1166 1507C1166 1483.25 1185.03 1464 1208.5 1464 1231.97 1464 1251 1483.25 1251 1507 1251 1530.75 1231.97 1550 1208.5 1550 1185.03 1550 1166 1530.75 1166 1507Z" fill="#5662D5" fill-rule="evenodd" fill-opacity="1"/><text fill="#FFFFFF" fill-opacity="1" font-family="Lato,Lato_MSFontService,sans-serif" font-style="normal" font-variant="normal" font-weight="700" font-stretch="normal" font-size="64" text-anchor="start" direction="ltr" writing-mode="lr-tb" unicode-bidi="normal" text-decoration="none" transform="matrix(1 0 0 1 1197.12 1531)">-</text><path d="M2114 1427C2114 1403.25 2133.25 1384 2157 1384 2180.75 1384 2200 1403.25 2200 1427 2200 1450.75 2180.75 1470 2157 1470 2133.25 1470 2114 1450.75 2114 1427Z" fill="#5662D5" fill-rule="evenodd" fill-opacity="1"/><text fill="#FFFFFF" fill-opacity="1" font-family="Lato,Lato_MSFontService,sans-serif" font-style="normal" font-variant="normal" font-weight="700" font-stretch="normal" font-size="64" text-anchor="start" direction="ltr" writing-mode="lr-tb" unicode-bidi="normal" text-decoration="none" transform="matrix(1 0 0 1 2145.44 1451)">-</text><path d="M365 1008C365 986.461 382.461 969 404 969 425.539 969 443 986.461 443 1008 443 1029.54 425.539 1047 404 1047 382.461 1047 365 1029.54 365 1008Z" fill="#242225" fill-rule="evenodd" fill-opacity="1"/><text fill="#242225" fill-opacity="1" font-family="Corbel,Corbel_MSFontService,sans-serif" font-style="normal" font-variant="normal" font-weight="400" font-stretch="normal" font-size="55" text-anchor="start" direction="ltr" writing-mode="lr-tb" unicode-bidi="normal" text-decoration="none" transform="matrix(1 0 0 1 508.339 1019)">G</text><text fill="#242225" fill-opacity="1" font-family="Corbel,Corbel_MSFontService,sans-serif" font-style="normal" font-variant="normal" font-weight="400" font-stretch="normal" font-size="55" text-anchor="start" direction="ltr" writing-mode="lr-tb" unicode-bidi="normal" text-decoration="none" transform="matrix(1 0 0 1 545.005 1019)">roup 0</text><text fill="#242225" fill-opacity="1" font-family="Corbel,Corbel_MSFontService,sans-serif" font-style="normal" font-variant="normal" font-weight="400" font-stretch="normal" font-size="55" text-anchor="start" direction="ltr" writing-mode="lr-tb" unicode-bidi="normal" text-decoration="none" transform="matrix(1 0 0 1 510.556 1170)">Group 1</text><rect x="368" y="1275" width="77.9997" height="78" fill="#FEC857" fill-opacity="1"/><text fill="#FFFFFF" fill-opacity="1" font-family="Lato,Lato_MSFontService,sans-serif" font-style="normal" font-variant="normal" font-weight="400" font-stretch="normal" font-size="64" text-anchor="start" direction="ltr" writing-mode="lr-tb" unicode-bidi="normal" text-decoration="none" transform="matrix(1 0 0 1 388.684 1338)">+</text><rect x="368" y="1405" width="77.9997" height="78" fill="#5662D5" fill-opacity="1"/><text fill="#FFFFFF" fill-opacity="1" font-family="Lato,Lato_MSFontService,sans-serif" font-style="normal" font-variant="normal" font-weight="400" font-stretch="normal" font-size="64" text-anchor="start" direction="ltr" writing-mode="lr-tb" unicode-bidi="normal" text-decoration="none" transform="matrix(1 0 0 1 396.132 1469)">-</text><text fill="#242225" fill-opacity="1" font-family="Corbel,Corbel_MSFontService,sans-serif" font-style="normal" font-variant="normal" font-weight="400" font-stretch="normal" font-size="55" text-anchor="start" direction="ltr" writing-mode="lr-tb" unicode-bidi="normal" text-decoration="none" transform="matrix(1 0 0 1 506.671 1325)">Positive</text><text fill="#242225" fill-opacity="1" font-family="Corbel,Corbel_MSFontService,sans-serif" font-style="normal" font-variant="normal" font-weight="400" font-stretch="normal" font-size="55" text-anchor="start" direction="ltr" writing-mode="lr-tb" unicode-bidi="normal" text-decoration="none" transform="matrix(1 0 0 1 503.625 1461)">Negative</text><text fill="#242225" fill-opacity="1" font-family="Cambria Math,Cambria Math_MSFontService,sans-serif" font-style="normal" font-variant="normal" font-weight="400" font-stretch="normal" font-size="83" text-anchor="start" direction="ltr" writing-mode="lr-tb" unicode-bidi="normal" text-decoration="none" transform="matrix(1 0 0 1 1418.29 1247)">ğ‘™</text><text fill="#242225" fill-opacity="1" font-family="Cambria Math,Cambria Math_MSFontService,sans-serif" font-style="normal" font-variant="normal" font-weight="400" font-stretch="normal" font-size="61" text-anchor="start" direction="ltr" writing-mode="lr-tb" unicode-bidi="normal" text-decoration="none" transform="matrix(1 0 0 1 1442.17 1264)">1</text><text fill="#242225" fill-opacity="1" font-family="Cambria Math,Cambria Math_MSFontService,sans-serif" font-style="normal" font-variant="normal" font-weight="400" font-stretch="normal" font-size="83" text-anchor="start" direction="ltr" writing-mode="lr-tb" unicode-bidi="normal" text-decoration="none" transform="matrix(1 0 0 1 1860.58 1083)">ğ‘™</text><text fill="#242225" fill-opacity="1" font-family="Cambria Math,Cambria Math_MSFontService,sans-serif" font-style="normal" font-variant="normal" font-weight="400" font-stretch="normal" font-size="61" text-anchor="start" direction="ltr" writing-mode="lr-tb" unicode-bidi="normal" text-decoration="none" transform="matrix(1 0 0 1 1886.36 1099)">3</text><text fill="#242225" fill-opacity="1" font-family="Cambria Math,Cambria Math_MSFontService,sans-serif" font-style="normal" font-variant="normal" font-weight="400" font-stretch="normal" font-size="83" text-anchor="start" direction="ltr" writing-mode="lr-tb" unicode-bidi="normal" text-decoration="none" transform="matrix(1 0 0 1 1446.34 1917)">ğ‘™</text><text fill="#242225" fill-opacity="1" font-family="Cambria Math,Cambria Math_MSFontService,sans-serif" font-style="normal" font-variant="normal" font-weight="400" font-stretch="normal" font-size="61" text-anchor="start" direction="ltr" writing-mode="lr-tb" unicode-bidi="normal" text-decoration="none" transform="matrix(1 0 0 1 1472.13 1933)">2</text><text fill="#242225" fill-opacity="1" font-family="Cambria Math,Cambria Math_MSFontService,sans-serif" font-style="normal" font-variant="normal" font-weight="400" font-stretch="normal" font-size="83" text-anchor="start" direction="ltr" writing-mode="lr-tb" unicode-bidi="normal" text-decoration="none" transform="matrix(1 0 0 1 2415.37 1083)">ğ‘™</text><text fill="#242225" fill-opacity="1" font-family="Cambria Math,Cambria Math_MSFontService,sans-serif" font-style="normal" font-variant="normal" font-weight="400" font-stretch="normal" font-size="61" text-anchor="start" direction="ltr" writing-mode="lr-tb" unicode-bidi="normal" text-decoration="none" transform="matrix(1 0 0 1 2441.15 1099)">4</text><text fill="#242225" fill-opacity="1" font-family="Cambria Math,Cambria Math_MSFontService,sans-serif" font-style="normal" font-variant="normal" font-weight="400" font-stretch="normal" font-size="83" text-anchor="start" direction="ltr" writing-mode="lr-tb" unicode-bidi="normal" text-decoration="none" transform="matrix(1 0 0 1 2415.37 1600)">ğ‘™</text><text fill="#242225" fill-opacity="1" font-family="Cambria Math,Cambria Math_MSFontService,sans-serif" font-style="normal" font-variant="normal" font-weight="400" font-stretch="normal" font-size="61" text-anchor="start" direction="ltr" writing-mode="lr-tb" unicode-bidi="normal" text-decoration="none" transform="matrix(1 0 0 1 2441.15 1617)">5</text><text fill="#242225" fill-opacity="1" font-family="Cambria Math,Cambria Math_MSFontService,sans-serif" font-style="normal" font-variant="normal" font-weight="400" font-stretch="normal" font-size="83" text-anchor="start" direction="ltr" writing-mode="lr-tb" unicode-bidi="normal" text-decoration="none" transform="matrix(1 0 0 1 2416.19 1918)">ğ‘™</text><text fill="#242225" fill-opacity="1" font-family="Cambria Math,Cambria Math_MSFontService,sans-serif" font-style="normal" font-variant="normal" font-weight="400" font-stretch="normal" font-size="61" text-anchor="start" direction="ltr" writing-mode="lr-tb" unicode-bidi="normal" text-decoration="none" transform="matrix(1 0 0 1 2441.97 1935)">6</text><path d="M367.5 1161.5C367.5 1139.96 384.961 1122.5 406.5 1122.5 428.039 1122.5 445.5 1139.96 445.5 1161.5 445.5 1183.04 428.039 1200.5 406.5 1200.5 384.961 1200.5 367.5 1183.04 367.5 1161.5Z" stroke="#242225" stroke-width="9.16667" stroke-linecap="butt" stroke-linejoin="miter" stroke-miterlimit="8" stroke-dasharray="9.16667 9.16667" stroke-opacity="1" fill="none" fill-rule="evenodd"/><path d="M1141 1225C1141 1201.25 1160.25 1182 1184 1182 1207.75 1182 1227 1201.25 1227 1225 1227 1248.75 1207.75 1268 1184 1268 1160.25 1268 1141 1248.75 1141 1225Z" stroke="#5662D5" stroke-width="10.3125" stroke-linecap="butt" stroke-linejoin="miter" stroke-miterlimit="8" stroke-dasharray="10.3125 10.3125" stroke-opacity="1" fill="none" fill-rule="evenodd"/><text fill="#5662D5" fill-opacity="1" font-family="Lato,Lato_MSFontService,sans-serif" font-style="normal" font-variant="normal" font-weight="700" font-stretch="normal" font-size="73" text-anchor="start" direction="ltr" writing-mode="lr-tb" unicode-bidi="normal" text-decoration="none" transform="matrix(1 0 0 1 1171 1253)">-</text><path d="M1293 1165.5C1293 1142.03 1312.25 1123 1336 1123 1359.75 1123 1379 1142.03 1379 1165.5 1379 1188.97 1359.75 1208 1336 1208 1312.25 1208 1293 1188.97 1293 1165.5Z" stroke="#5662D5" stroke-width="10.3125" stroke-linecap="butt" stroke-linejoin="miter" stroke-miterlimit="8" stroke-dasharray="10.3125 10.3125" stroke-opacity="1" fill="none" fill-rule="evenodd"/><text fill="#5662D5" fill-opacity="1" font-family="Lato,Lato_MSFontService,sans-serif" font-style="normal" font-variant="normal" font-weight="700" font-stretch="normal" font-size="73" text-anchor="start" direction="ltr" writing-mode="lr-tb" unicode-bidi="normal" text-decoration="none" transform="matrix(1 0 0 1 1323 1194)">-</text><path d="M1617 987.5C1617 964.028 1636.03 945 1659.5 945 1682.97 945 1702 964.028 1702 987.5 1702 1010.97 1682.97 1030 1659.5 1030 1636.03 1030 1617 1010.97 1617 987.5Z" stroke="#5662D5" stroke-width="10.3125" stroke-linecap="butt" stroke-linejoin="miter" stroke-miterlimit="8" stroke-dasharray="10.3125 10.3125" stroke-opacity="1" fill="none" fill-rule="evenodd"/><text fill="#5662D5" fill-opacity="1" font-family="Lato,Lato_MSFontService,sans-serif" font-style="normal" font-variant="normal" font-weight="700" font-stretch="normal" font-size="73" text-anchor="start" direction="ltr" writing-mode="lr-tb" unicode-bidi="normal" text-decoration="none" transform="matrix(1 0 0 1 1646.35 1015)">-</text><path d="M1812 1421C1812 1397.25 1831.25 1378 1855 1378 1878.75 1378 1898 1397.25 1898 1421 1898 1444.75 1878.75 1464 1855 1464 1831.25 1464 1812 1444.75 1812 1421Z" stroke="#5662D5" stroke-width="10.3125" stroke-linecap="butt" stroke-linejoin="miter" stroke-miterlimit="8" stroke-dasharray="10.3125 10.3125" stroke-opacity="1" fill="none" fill-rule="evenodd"/><text fill="#5662D5" fill-opacity="1" font-family="Lato,Lato_MSFontService,sans-serif" font-style="normal" font-variant="normal" font-weight="700" font-stretch="normal" font-size="73" text-anchor="start" direction="ltr" writing-mode="lr-tb" unicode-bidi="normal" text-decoration="none" transform="matrix(1 0 0 1 1842.1 1449)">-</text><path d="M1950 1779C1950 1755.25 1969.03 1736 1992.5 1736 2015.97 1736 2035 1755.25 2035 1779 2035 1802.75 2015.97 1822 1992.5 1822 1969.03 1822 1950 1802.75 1950 1779Z" stroke="#5662D5" stroke-width="10.3125" stroke-linecap="butt" stroke-linejoin="miter" stroke-miterlimit="8" stroke-dasharray="10.3125 10.3125" stroke-opacity="1" fill="none" fill-rule="evenodd"/><text fill="#5662D5" fill-opacity="1" font-family="Lato,Lato_MSFontService,sans-serif" font-style="normal" font-variant="normal" font-weight="700" font-stretch="normal" font-size="73" text-anchor="start" direction="ltr" writing-mode="lr-tb" unicode-bidi="normal" text-decoration="none" transform="matrix(1 0 0 1 1979.41 1807)">-</text><path d="M1711 1799.5C1711 1776.03 1730.25 1757 1754 1757 1777.75 1757 1797 1776.03 1797 1799.5 1797 1822.97 1777.75 1842 1754 1842 1730.25 1842 1711 1822.97 1711 1799.5Z" stroke="#FEC857" stroke-width="10.3125" stroke-linecap="butt" stroke-linejoin="miter" stroke-miterlimit="8" stroke-dasharray="10.3125 10.3125" stroke-opacity="1" fill="none" fill-rule="evenodd"/><text fill="#FEC857" fill-opacity="1" font-family="Lato,Lato_MSFontService,sans-serif" font-style="normal" font-variant="normal" font-weight="700" font-stretch="normal" font-size="64" text-anchor="start" direction="ltr" writing-mode="lr-tb" unicode-bidi="normal" text-decoration="none" transform="matrix(1 0 0 1 1735.14 1824)">+</text><path d="M994 1572C994 1548.25 1013.25 1529 1037 1529 1060.75 1529 1080 1548.25 1080 1572 1080 1595.75 1060.75 1615 1037 1615 1013.25 1615 994 1595.75 994 1572Z" stroke="#FEC857" stroke-width="10.3125" stroke-linecap="butt" stroke-linejoin="miter" stroke-miterlimit="8" stroke-dasharray="10.3125 10.3125" stroke-opacity="1" fill="none" fill-rule="evenodd"/><text fill="#FEC857" fill-opacity="1" font-family="Lato,Lato_MSFontService,sans-serif" font-style="normal" font-variant="normal" font-weight="700" font-stretch="normal" font-size="64" text-anchor="start" direction="ltr" writing-mode="lr-tb" unicode-bidi="normal" text-decoration="none" transform="matrix(1 0 0 1 1018.02 1596)">+</text><path d="M1342 1557C1342 1533.25 1361.25 1514 1385 1514 1408.75 1514 1428 1533.25 1428 1557 1428 1580.75 1408.75 1600 1385 1600 1361.25 1600 1342 1580.75 1342 1557Z" stroke="#FEC857" stroke-width="10.3125" stroke-linecap="butt" stroke-linejoin="miter" stroke-miterlimit="8" stroke-dasharray="10.3125 10.3125" stroke-opacity="1" fill="none" fill-rule="evenodd"/><text fill="#FEC857" fill-opacity="1" font-family="Lato,Lato_MSFontService,sans-serif" font-style="normal" font-variant="normal" font-weight="700" font-stretch="normal" font-size="64" text-anchor="start" direction="ltr" writing-mode="lr-tb" unicode-bidi="normal" text-decoration="none" transform="matrix(1 0 0 1 1366.73 1581)">+</text></g></g></svg>