<svg width="1925" height="844" xmlns="http://www.w3.org/2000/svg" xmlns:xlink="http://www.w3.org/1999/xlink" xml:space="preserve" overflow="hidden"><defs><clipPath id="clip0"><rect x="1237" y="1191" width="1925" height="844"/></clipPath><clipPath id="clip1"><rect x="1237" y="1191" width="1925" height="844"/></clipPath></defs><g clip-path="url(#clip0)" transform="translate(-1237 -1191)"><g clip-path="url(#clip1)"><text fill="#242225" fill-opacity="1" font-family="Cambria Math,Cambria Math_MSFontService,sans-serif" font-style="normal" font-variant="normal" font-weight="400" font-stretch="normal" font-size="64" text-anchor="start" direction="ltr" writing-mode="lr-tb" unicode-bidi="normal" text-decoration="none" transform="matrix(1 0 0 1 1541.14 1562)">𝑌</text><path d="M15.0312-43.125 25.9687-35.2187 24.75-33.4375 13.2812-39.0937 12.9375-39.0937 1.21875-33.4375 0-35.2187 10.8437-43.125Z" fill="#242225" fill-rule="nonzero" fill-opacity="1" transform="matrix(1 0 0 1 1550.19 1550)"/><text fill="#000000" fill-opacity="0" font-family="Arial,Arial_MSFontService,sans-serif" font-size="9.6875" direction="ltr" writing-mode="lr-tb" y="-34.6484">෠</text><text fill="#242225" fill-opacity="1" font-family="Cambria Math,Cambria Math_MSFontService,sans-serif" font-style="normal" font-variant="normal" font-weight="400" font-stretch="normal" font-size="64" text-anchor="start" direction="ltr" writing-mode="lr-tb" unicode-bidi="normal" text-decoration="none" transform="matrix(1 0 0 1 1598.91 1562)">=</text><text fill="#242225" fill-opacity="1" font-family="Cambria Math,Cambria Math_MSFontService,sans-serif" font-style="normal" font-variant="normal" font-weight="400" font-stretch="normal" font-size="64" text-anchor="start" direction="ltr" writing-mode="lr-tb" unicode-bidi="normal" text-decoration="none" transform="matrix(1 0 0 1 1664.87 1562)">0</text><text fill="#242225" fill-opacity="1" font-family="Cambria Math,Cambria Math_MSFontService,sans-serif" font-style="normal" font-variant="normal" font-weight="400" font-stretch="normal" font-size="64" text-anchor="start" direction="ltr" writing-mode="lr-tb" unicode-bidi="normal" text-decoration="none" transform="matrix(1 0 0 1 1700.39 1562)"> </text><rect x="1882" y="1345" width="633" height="380" fill="#5662D5" fill-opacity="0.305882"/><path d="M1375 1729.98 2981.15 1729.98 2981.15 1746.02 1375 1746.02ZM2973.13 1713.94 3021.26 1738 2973.13 1762.06Z" fill="#242225" fill-rule="nonzero" fill-opacity="1"/><text fill="#242225" fill-opacity="1" font-family="Corbel,Corbel_MSFontService,sans-serif" font-style="normal" font-variant="normal" font-weight="400" font-stretch="normal" font-size="64" text-anchor="start" direction="ltr" writing-mode="lr-tb" unicode-bidi="normal" text-decoration="none" transform="matrix(1 0 0 1 1970.26 1917)">confidence score </text><text fill="#242225" fill-opacity="1" font-family="Cambria Math,Cambria Math_MSFontService,sans-serif" font-style="normal" font-variant="normal" font-weight="400" font-stretch="normal" font-size="55" text-anchor="start" direction="ltr" writing-mode="lr-tb" unicode-bidi="normal" text-decoration="none" transform="matrix(1 0 0 1 2050.29 1991)">𝑷</text><path d="M2327.4 1941.95C2332.99 1943.41 2337.3 1947.22 2340.32 1953.36 2343.35 1959.5 2344.86 1966.77 2344.86 1975.17 2344.86 1983.56 2343.35 1990.83 2340.32 1996.97 2337.3 2003.11 2332.99 2006.92 2327.4 2008.39L2326.73 2006.18C2331.07 2004.56 2334.35 2001.01 2336.58 1995.54 2338.8 1990.07 2339.92 1983.29 2339.92 1975.19 2339.92 1967.08 2338.8 1960.29 2336.58 1954.81 2334.35 1949.33 2331.07 1945.78 2326.73 1944.15ZM2110.39 1941.95 2111.06 1944.15C2106.73 1945.78 2103.45 1949.33 2101.22 1954.81 2098.99 1960.29 2097.87 1967.08 2097.87 1975.19 2097.87 1983.29 2098.99 1990.07 2101.22 1995.54 2103.45 2001.01 2106.73 2004.56 2111.06 2006.18L2110.39 2008.39C2104.8 2006.92 2100.5 2003.11 2097.47 1996.97 2094.44 1990.83 2092.93 1983.56 2092.93 1975.17 2092.93 1966.77 2094.44 1959.5 2097.47 1953.36 2100.5 1947.22 2104.8 1943.41 2110.39 1941.95Z" fill="#242225" fill-rule="evenodd" fill-opacity="1"/><text fill="#242225" fill-opacity="1" font-family="Cambria Math,Cambria Math_MSFontService,sans-serif" font-style="normal" font-variant="normal" font-weight="400" font-stretch="normal" font-size="55" text-anchor="start" direction="ltr" writing-mode="lr-tb" unicode-bidi="normal" text-decoration="none" transform="matrix(1 0 0 1 2112.8 1991)">𝒀</text><path d="M16.8921-37.0605 30.5347-30.4272 29.7559-28.7353 15.3882-33.5962 15.0928-33.5962 0.751953-28.7353 0-30.4272 13.2935-37.0605Z" fill="#242225" fill-rule="nonzero" fill-opacity="1" transform="matrix(1 0 0 1 2115 1980)"/><text fill="#000000" fill-opacity="0" font-family="Arial,Arial_MSFontService,sans-serif" font-size="8.32519" direction="ltr" writing-mode="lr-tb" y="-29.776">෡</text><text fill="#242225" fill-opacity="1" font-family="Cambria Math,Cambria Math_MSFontService,sans-serif" font-style="normal" font-variant="normal" font-weight="400" font-stretch="normal" font-size="55" text-anchor="start" direction="ltr" writing-mode="lr-tb" unicode-bidi="normal" text-decoration="none" transform="matrix(1 0 0 1 2163.04 1991)">=</text><text fill="#242225" fill-opacity="1" font-family="Cambria Math,Cambria Math_MSFontService,sans-serif" font-style="normal" font-variant="normal" font-weight="400" font-stretch="normal" font-size="55" text-anchor="start" direction="ltr" writing-mode="lr-tb" unicode-bidi="normal" text-decoration="none" transform="matrix(1 0 0 1 2219.57 1991)">𝟏</text><text fill="#242225" fill-opacity="1" font-family="Cambria Math,Cambria Math_MSFontService,sans-serif" font-style="normal" font-variant="normal" font-weight="400" font-stretch="normal" font-size="55" text-anchor="start" direction="ltr" writing-mode="lr-tb" unicode-bidi="normal" text-decoration="none" transform="matrix(1 0 0 1 2252.23 1991)"> </text><text fill="#242225" fill-opacity="1" font-family="Cambria Math,Cambria Math_MSFontService,sans-serif" font-style="normal" font-variant="normal" font-weight="400" font-stretch="normal" font-size="55" text-anchor="start" direction="ltr" writing-mode="lr-tb" unicode-bidi="normal" text-decoration="none" transform="matrix(1 0 0 1 2264.26 1991)">|</text><text fill="#242225" fill-opacity="1" font-family="Cambria Math,Cambria Math_MSFontService,sans-serif" font-style="normal" font-variant="normal" font-weight="400" font-stretch="normal" font-size="55" text-anchor="start" direction="ltr" writing-mode="lr-tb" unicode-bidi="normal" text-decoration="none" transform="matrix(1 0 0 1 2281.45 1991)"> </text><text fill="#242225" fill-opacity="1" font-family="Cambria Math,Cambria Math_MSFontService,sans-serif" font-style="normal" font-variant="normal" font-weight="400" font-stretch="normal" font-size="55" text-anchor="start" direction="ltr" writing-mode="lr-tb" unicode-bidi="normal" text-decoration="none" transform="matrix(1 0 0 1 2293.48 1991)">𝒙</text><text fill="#242225" fill-opacity="1" font-family="Corbel,Corbel_MSFontService,sans-serif" font-style="normal" font-variant="normal" font-weight="700" font-stretch="normal" font-size="64" text-anchor="start" direction="ltr" writing-mode="lr-tb" unicode-bidi="normal" text-decoration="none" transform="matrix(1 0 0 1 2158.18 1812)">0.5</text><text fill="#242225" fill-opacity="1" font-family="Corbel,Corbel_MSFontService,sans-serif" font-style="normal" font-variant="normal" font-weight="700" font-stretch="normal" font-size="64" text-anchor="start" direction="ltr" writing-mode="lr-tb" unicode-bidi="normal" text-decoration="none" transform="matrix(1 0 0 1 1335.69 1819)">0.0</text><text fill="#242225" fill-opacity="1" font-family="Corbel,Corbel_MSFontService,sans-serif" font-style="normal" font-variant="normal" font-weight="700" font-stretch="normal" font-size="64" text-anchor="start" direction="ltr" writing-mode="lr-tb" unicode-bidi="normal" text-decoration="none" transform="matrix(1 0 0 1 2979.8 1812)">1.0</text><text fill="#242225" fill-opacity="1" font-family="Cambria Math,Cambria Math_MSFontService,sans-serif" font-style="normal" font-variant="normal" font-weight="400" font-stretch="normal" font-size="64" text-anchor="start" direction="ltr" writing-mode="lr-tb" unicode-bidi="normal" text-decoration="none" transform="matrix(1 0 0 1 2680.81 1562)">𝑌</text><path d="M15.0312-43.125 25.9687-35.2187 24.75-33.4375 13.2812-39.0937 12.9375-39.0937 1.21875-33.4375 0-35.2187 10.8437-43.125Z" fill="#242225" fill-rule="nonzero" fill-opacity="1" transform="matrix(1 0 0 1 2689.86 1550)"/><text fill="#000000" fill-opacity="0" font-family="Arial,Arial_MSFontService,sans-serif" font-size="9.6875" direction="ltr" writing-mode="lr-tb" y="-34.6484">෠</text><text fill="#242225" fill-opacity="1" font-family="Cambria Math,Cambria Math_MSFontService,sans-serif" font-style="normal" font-variant="normal" font-weight="400" font-stretch="normal" font-size="64" text-anchor="start" direction="ltr" writing-mode="lr-tb" unicode-bidi="normal" text-decoration="none" transform="matrix(1 0 0 1 2738.59 1562)">=</text><text fill="#242225" fill-opacity="1" font-family="Cambria Math,Cambria Math_MSFontService,sans-serif" font-style="normal" font-variant="normal" font-weight="400" font-stretch="normal" font-size="64" text-anchor="start" direction="ltr" writing-mode="lr-tb" unicode-bidi="normal" text-decoration="none" transform="matrix(1 0 0 1 2804.54 1562)">1</text><text fill="#242225" fill-opacity="1" font-family="Cambria Math,Cambria Math_MSFontService,sans-serif" font-style="normal" font-variant="normal" font-weight="400" font-stretch="normal" font-size="64" text-anchor="start" direction="ltr" writing-mode="lr-tb" unicode-bidi="normal" text-decoration="none" transform="matrix(1 0 0 1 2840.06 1562)"> </text><text fill="#242225" fill-opacity="1" font-family="Cambria Math,Cambria Math_MSFontService,sans-serif" font-style="normal" font-variant="normal" font-weight="400" font-stretch="normal" font-size="64" text-anchor="start" direction="ltr" writing-mode="lr-tb" unicode-bidi="normal" text-decoration="none" transform="matrix(1 0 0 1 1949.78 1523)">𝑌</text><path d="M15.0312-43.125 25.9687-35.2187 24.75-33.4375 13.2812-39.0937 12.9375-39.0937 1.21875-33.4375 0-35.2187 10.8437-43.125Z" fill="#242225" fill-rule="nonzero" fill-opacity="1" transform="matrix(1 0 0 1 1958.83 1511)"/><text fill="#000000" fill-opacity="0" font-family="Arial,Arial_MSFontService,sans-serif" font-size="9.6875" direction="ltr" writing-mode="lr-tb" y="-34.6484">෠</text><text fill="#242225" fill-opacity="1" font-family="Cambria Math,Cambria Math_MSFontService,sans-serif" font-style="normal" font-variant="normal" font-weight="400" font-stretch="normal" font-size="64" text-anchor="start" direction="ltr" writing-mode="lr-tb" unicode-bidi="normal" text-decoration="none" transform="matrix(1 0 0 1 2007.56 1523)">=</text><text fill="#242225" fill-opacity="1" font-family="Cambria Math,Cambria Math_MSFontService,sans-serif" font-style="normal" font-variant="normal" font-weight="400" font-stretch="normal" font-size="64" text-anchor="start" direction="ltr" writing-mode="lr-tb" unicode-bidi="normal" text-decoration="none" transform="matrix(1 0 0 1 2073.51 1523)">1</text><text fill="#242225" fill-opacity="1" font-family="Cambria Math,Cambria Math_MSFontService,sans-serif" font-style="normal" font-variant="normal" font-weight="400" font-stretch="normal" font-size="64" text-anchor="start" direction="ltr" writing-mode="lr-tb" unicode-bidi="normal" text-decoration="none" transform="matrix(1 0 0 1 2109.03 1523)"> </text><text fill="#242225" fill-opacity="1" font-family="Cambria Math,Cambria Math_MSFontService,sans-serif" font-style="normal" font-variant="normal" font-weight="400" font-stretch="normal" font-size="64" text-anchor="start" direction="ltr" writing-mode="lr-tb" unicode-bidi="normal" text-decoration="none" transform="matrix(1 0 0 1 2123.35 1523)">𝑖𝑓</text><text fill="#242225" fill-opacity="1" font-family="Cambria Math,Cambria Math_MSFontService,sans-serif" font-style="normal" font-variant="normal" font-weight="400" font-stretch="normal" font-size="64" text-anchor="start" direction="ltr" writing-mode="lr-tb" unicode-bidi="normal" text-decoration="none" transform="matrix(1 0 0 1 2180.81 1523)"> </text><text fill="#242225" fill-opacity="1" font-family="Cambria Math,Cambria Math_MSFontService,sans-serif" font-style="normal" font-variant="normal" font-weight="400" font-stretch="normal" font-size="64" text-anchor="start" direction="ltr" writing-mode="lr-tb" unicode-bidi="normal" text-decoration="none" transform="matrix(1 0 0 1 2195.13 1523)">𝑥</text><path d="M2301.41 1474.94C2307.49 1476.55 2312.16 1480.01 2315.42 1485.33 2318.68 1490.66 2320.31 1497.08 2320.31 1504.6 2320.31 1512.14 2318.69 1518.56 2315.44 1523.86 2312.19 1529.17 2307.51 1532.62 2301.41 1534.22L2300.66 1531.82C2305.47 1530.21 2309.05 1527.05 2311.39 1522.32 2313.74 1517.59 2314.91 1511.58 2314.91 1504.29 2314.91 1497.24 2313.74 1491.39 2311.41 1486.74 2309.07 1482.08 2305.46 1478.95 2300.56 1477.35ZM2255.98 1474.94 2256.83 1477.35C2251.95 1478.95 2248.34 1482.08 2246 1486.74 2243.65 1491.39 2242.48 1497.24 2242.48 1504.29 2242.48 1511.58 2243.65 1517.59 2246 1522.32 2248.34 1527.05 2251.92 1530.21 2256.73 1531.82L2255.98 1534.22C2249.88 1532.62 2245.2 1529.17 2241.95 1523.86 2238.7 1518.56 2237.08 1512.14 2237.08 1504.6 2237.08 1497.08 2238.71 1490.66 2241.97 1485.33 2245.23 1480.01 2249.9 1476.55 2255.98 1474.94Z" fill="#242225" fill-rule="evenodd" fill-opacity="1"/><text fill="#242225" fill-opacity="1" font-family="Cambria Math,Cambria Math_MSFontService,sans-serif" font-style="normal" font-variant="normal" font-weight="400" font-stretch="normal" font-size="64" text-anchor="start" direction="ltr" writing-mode="lr-tb" unicode-bidi="normal" text-decoration="none" transform="matrix(1 0 0 1 2258.08 1523)">𝐴</text><text fill="#242225" fill-opacity="1" font-family="Cambria Math,Cambria Math_MSFontService,sans-serif" font-style="normal" font-variant="normal" font-weight="400" font-stretch="normal" font-size="64" text-anchor="start" direction="ltr" writing-mode="lr-tb" unicode-bidi="normal" text-decoration="none" transform="matrix(1 0 0 1 2343.83 1523)">=</text><text fill="#242225" fill-opacity="1" font-family="Cambria Math,Cambria Math_MSFontService,sans-serif" font-style="normal" font-variant="normal" font-weight="400" font-stretch="normal" font-size="64" text-anchor="start" direction="ltr" writing-mode="lr-tb" unicode-bidi="normal" text-decoration="none" transform="matrix(1 0 0 1 2409.79 1523)">𝑎</text><text fill="#242225" fill-opacity="1" font-family="Cambria Math,Cambria Math_MSFontService,sans-serif" font-style="normal" font-variant="normal" font-weight="400" font-stretch="normal" font-size="64" text-anchor="start" direction="ltr" writing-mode="lr-tb" unicode-bidi="normal" text-decoration="none" transform="matrix(1 0 0 1 1935.09 1602)"> </text><text fill="#242225" fill-opacity="1" font-family="Cambria Math,Cambria Math_MSFontService,sans-serif" font-style="normal" font-variant="normal" font-weight="400" font-stretch="normal" font-size="64" text-anchor="start" direction="ltr" writing-mode="lr-tb" unicode-bidi="normal" text-decoration="none" transform="matrix(1 0 0 1 1949.42 1602)">𝑌</text><path d="M15.0312-43.125 25.9687-35.2187 24.75-33.4375 13.2812-39.0937 12.9375-39.0937 1.21875-33.4375 0-35.2187 10.8437-43.125Z" fill="#242225" fill-rule="nonzero" fill-opacity="1" transform="matrix(1 0 0 1 1958.47 1590)"/><text fill="#000000" fill-opacity="0" font-family="Arial,Arial_MSFontService,sans-serif" font-size="9.6875" direction="ltr" writing-mode="lr-tb" y="-34.6484">෠</text><text fill="#242225" fill-opacity="1" font-family="Cambria Math,Cambria Math_MSFontService,sans-serif" font-style="normal" font-variant="normal" font-weight="400" font-stretch="normal" font-size="64" text-anchor="start" direction="ltr" writing-mode="lr-tb" unicode-bidi="normal" text-decoration="none" transform="matrix(1 0 0 1 2007.19 1602)">=</text><text fill="#242225" fill-opacity="1" font-family="Cambria Math,Cambria Math_MSFontService,sans-serif" font-style="normal" font-variant="normal" font-weight="400" font-stretch="normal" font-size="64" text-anchor="start" direction="ltr" writing-mode="lr-tb" unicode-bidi="normal" text-decoration="none" transform="matrix(1 0 0 1 2073.14 1602)">0</text><text fill="#242225" fill-opacity="1" font-family="Cambria Math,Cambria Math_MSFontService,sans-serif" font-style="normal" font-variant="normal" font-weight="400" font-stretch="normal" font-size="64" text-anchor="start" direction="ltr" writing-mode="lr-tb" unicode-bidi="normal" text-decoration="none" transform="matrix(1 0 0 1 2108.66 1602)"> </text><text fill="#242225" fill-opacity="1" font-family="Cambria Math,Cambria Math_MSFontService,sans-serif" font-style="normal" font-variant="normal" font-weight="400" font-stretch="normal" font-size="64" text-anchor="start" direction="ltr" writing-mode="lr-tb" unicode-bidi="normal" text-decoration="none" transform="matrix(1 0 0 1 2122.99 1602)">𝑖𝑓</text><text fill="#242225" fill-opacity="1" font-family="Cambria Math,Cambria Math_MSFontService,sans-serif" font-style="normal" font-variant="normal" font-weight="400" font-stretch="normal" font-size="64" text-anchor="start" direction="ltr" writing-mode="lr-tb" unicode-bidi="normal" text-decoration="none" transform="matrix(1 0 0 1 2180.44 1602)"> </text><text fill="#242225" fill-opacity="1" font-family="Cambria Math,Cambria Math_MSFontService,sans-serif" font-style="normal" font-variant="normal" font-weight="400" font-stretch="normal" font-size="64" text-anchor="start" direction="ltr" writing-mode="lr-tb" unicode-bidi="normal" text-decoration="none" transform="matrix(1 0 0 1 2194.76 1602)">𝑥</text><path d="M2301.04 1553.94C2307.12 1555.55 2311.8 1559.01 2315.06 1564.33 2318.32 1569.66 2319.95 1576.08 2319.95 1583.6 2319.95 1591.14 2318.32 1597.56 2315.07 1602.86 2311.82 1608.17 2307.15 1611.62 2301.04 1613.22L2300.29 1610.82C2305.1 1609.21 2308.68 1606.05 2311.03 1601.32 2313.37 1596.59 2314.54 1590.58 2314.54 1583.29 2314.54 1576.24 2313.37 1570.39 2311.04 1565.74 2308.71 1561.08 2305.09 1557.95 2300.2 1556.35ZM2255.62 1553.94 2256.46 1556.35C2251.58 1557.95 2247.98 1561.08 2245.63 1565.74 2243.29 1570.39 2242.12 1576.24 2242.12 1583.29 2242.12 1590.58 2243.29 1596.59 2245.63 1601.32 2247.98 1606.05 2251.55 1609.21 2256.37 1610.82L2255.62 1613.22C2249.51 1611.62 2244.83 1608.17 2241.58 1602.86 2238.33 1597.56 2236.71 1591.14 2236.71 1583.6 2236.71 1576.08 2238.34 1569.66 2241.6 1564.33 2244.86 1559.01 2249.53 1555.55 2255.62 1553.94Z" fill="#242225" fill-rule="evenodd" fill-opacity="1"/><text fill="#242225" fill-opacity="1" font-family="Cambria Math,Cambria Math_MSFontService,sans-serif" font-style="normal" font-variant="normal" font-weight="400" font-stretch="normal" font-size="64" text-anchor="start" direction="ltr" writing-mode="lr-tb" unicode-bidi="normal" text-decoration="none" transform="matrix(1 0 0 1 2257.71 1602)">𝐴</text><text fill="#242225" fill-opacity="1" font-family="Cambria Math,Cambria Math_MSFontService,sans-serif" font-style="normal" font-variant="normal" font-weight="400" font-stretch="normal" font-size="64" text-anchor="start" direction="ltr" writing-mode="lr-tb" unicode-bidi="normal" text-decoration="none" transform="matrix(1 0 0 1 2343.47 1602)">=</text><text fill="#242225" fill-opacity="1" font-family="Cambria Math,Cambria Math_MSFontService,sans-serif" font-style="normal" font-variant="normal" font-weight="400" font-stretch="normal" font-size="64" text-anchor="start" direction="ltr" writing-mode="lr-tb" unicode-bidi="normal" text-decoration="none" transform="matrix(1 0 0 1 2409.42 1602)">𝑎</text><text fill="#242225" fill-opacity="1" font-family="Cambria Math,Cambria Math_MSFontService,sans-serif" font-style="normal" font-variant="normal" font-weight="400" font-stretch="normal" font-size="64" text-anchor="start" direction="ltr" writing-mode="lr-tb" unicode-bidi="normal" text-decoration="none" transform="matrix(1 0 0 1 2444.94 1602)">′</text><text fill="#242225" fill-opacity="1" font-family="Corbel,Corbel_MSFontService,sans-serif" font-style="normal" font-variant="normal" font-weight="700" font-stretch="normal" font-size="73" text-anchor="start" direction="ltr" writing-mode="lr-tb" unicode-bidi="normal" text-decoration="none" transform="matrix(1 0 0 1 1983.94 1283)">c</text><text fill="#242225" fill-opacity="1" font-family="Corbel,Corbel_MSFontService,sans-serif" font-style="normal" font-variant="normal" font-weight="700" font-stretch="normal" font-size="73" text-anchor="start" direction="ltr" writing-mode="lr-tb" unicode-bidi="normal" text-decoration="none" transform="matrix(1 0 0 1 2016.02 1283)">ritical region</text><text fill="#242225" fill-opacity="1" font-family="Cambria Math,Cambria Math_MSFontService,sans-serif" font-style="normal" font-variant="normal" font-weight="400" font-stretch="normal" font-size="64" text-anchor="start" direction="ltr" writing-mode="lr-tb" unicode-bidi="normal" text-decoration="none" transform="matrix(1 0 0 1 2492.92 1818)">𝜽</text><text fill="#242225" fill-opacity="1" font-family="Cambria Math,Cambria Math_MSFontService,sans-serif" font-style="normal" font-variant="normal" font-weight="400" font-stretch="normal" font-size="64" text-anchor="start" direction="ltr" writing-mode="lr-tb" unicode-bidi="normal" text-decoration="none" transform="matrix(1 0 0 1 1798.13 1821)">𝟏</text><text fill="#242225" fill-opacity="1" font-family="Cambria Math,Cambria Math_MSFontService,sans-serif" font-style="normal" font-variant="normal" font-weight="400" font-stretch="normal" font-size="64" text-anchor="start" direction="ltr" writing-mode="lr-tb" unicode-bidi="normal" text-decoration="none" transform="matrix(1 0 0 1 1850.77 1821)">−</text><text fill="#242225" fill-opacity="1" font-family="Cambria Math,Cambria Math_MSFontService,sans-serif" font-style="normal" font-variant="normal" font-weight="400" font-stretch="normal" font-size="64" text-anchor="start" direction="ltr" writing-mode="lr-tb" unicode-bidi="normal" text-decoration="none" transform="matrix(1 0 0 1 1913.15 1821)">𝜽</text></g></g></svg>