<svg width="1003" height="1004" xmlns="http://www.w3.org/2000/svg" xmlns:xlink="http://www.w3.org/1999/xlink" xml:space="preserve" overflow="hidden"><g transform="translate(-2044 -1251)"><g><path d="M0 0 799.744 799.744" stroke="#B5B5B5" stroke-width="10.3125" stroke-linecap="square" stroke-linejoin="miter" stroke-miterlimit="8" stroke-dasharray="30.9375 10.3125" stroke-opacity="1" fill="none" fill-rule="evenodd" transform="matrix(1 0 0 -1 2155 2143.74)"/><path d="M2155 2134.98 2957.49 2134.98 2957.49 2151.02 2155 2151.02ZM2949.47 2118.94 2997.59 2143 2949.47 2167.06Z" fill="#242225" fill-rule="nonzero" fill-opacity="1"/><path d="M2146.98 2143.59 2146.98 1341.1 2163.02 1341.1 2163.02 2143.59ZM2130.94 1349.13 2155 1301 2179.06 1349.13Z" fill="#242225" fill-rule="nonzero" fill-opacity="1"/><text fill="#242225" fill-opacity="1" font-family="Corbel,Corbel_MSFontService,sans-serif" font-style="normal" font-variant="normal" font-weight="400" font-stretch="normal" font-size="48" text-anchor="start" direction="ltr" writing-mode="lr-tb" unicode-bidi="normal" text-decoration="none" transform="matrix(1 0 0 1 2349.76 2210)">false positive rate</text><text fill="#242225" fill-opacity="1" font-family="Corbel,Corbel_MSFontService,sans-serif" font-style="normal" font-variant="normal" font-weight="400" font-stretch="normal" font-size="48" text-anchor="start" direction="ltr" writing-mode="lr-tb" unicode-bidi="normal" text-decoration="none" transform="matrix(-1.83697e-16 -1 1 -1.83697e-16 2109.89 1893)">true positive rate</text><path d="M2165.5 2138.5C2184.98 1857.62 2196.3 1621.13 2328.36 1487.91 2460.42 1354.68 2780.37 1334.31 2956.5 1341.87" stroke="#5662D5" stroke-width="9.16667" stroke-linecap="butt" stroke-linejoin="miter" stroke-miterlimit="8" stroke-dasharray="9.16667 9.16667" stroke-opacity="1" fill="none" fill-rule="evenodd"/><path d="M2163.5 2141.5C2183 1860.27 2194.34 1623.49 2326.57 1490.09 2458.8 1356.7 2779.15 1336.3 2955.5 1343.87" stroke="#FFC000" stroke-width="9.16667" stroke-linecap="butt" stroke-linejoin="miter" stroke-miterlimit="8" stroke-dasharray="36.6667 27.5" stroke-opacity="1" fill="none" fill-rule="evenodd"/><path d="M2495 1389C2495 1380.72 2501.72 1374 2510 1374 2518.28 1374 2525 1380.72 2525 1389 2525 1397.28 2518.28 1404 2510 1404 2501.72 1404 2495 1397.28 2495 1389Z" fill="#FEC857" fill-rule="evenodd" fill-opacity="1"/><text fill="#FDAC02" fill-opacity="1" font-family="Corbel,Corbel_MSFontService,sans-serif" font-style="normal" font-variant="normal" font-weight="700" font-stretch="normal" font-size="50" text-anchor="start" direction="ltr" writing-mode="lr-tb" unicode-bidi="normal" text-decoration="none" transform="matrix(1 0 0 1 2521.26 1442)">t=0.5</text><path d="M2495 1389C2495 1380.72 2501.72 1374 2510 1374 2518.28 1374 2525 1380.72 2525 1389 2525 1397.28 2518.28 1404 2510 1404 2501.72 1404 2495 1397.28 2495 1389Z" fill="#242225" fill-rule="evenodd" fill-opacity="1"/><path d="M2251 1564C2251 1555.72 2257.72 1549 2266 1549 2274.28 1549 2281 1555.72 2281 1564 2281 1572.28 2274.28 1579 2266 1579 2257.72 1579 2251 1572.28 2251 1564Z" fill="#FEC857" fill-rule="evenodd" fill-opacity="1"/><text fill="#5662D5" fill-opacity="1" font-family="Corbel,Corbel_MSFontService,sans-serif" font-style="normal" font-variant="normal" font-weight="700" font-stretch="normal" font-size="50" text-anchor="start" direction="ltr" writing-mode="lr-tb" unicode-bidi="normal" text-decoration="none" transform="matrix(1 0 0 1 2277.69 1618)">t=0.5</text><path d="M2251 1564C2251 1555.72 2257.72 1549 2266 1549 2274.28 1549 2281 1555.72 2281 1564 2281 1572.28 2274.28 1579 2266 1579 2257.72 1579 2251 1572.28 2251 1564Z" fill="#242225" fill-rule="evenodd" fill-opacity="1"/></g></g></svg>