<svg width="3736" height="2090" xmlns="http://www.w3.org/2000/svg" xmlns:xlink="http://www.w3.org/1999/xlink" xml:space="preserve" overflow="hidden"><defs><clipPath id="clip0"><rect x="320" y="197" width="3736" height="2090"/></clipPath></defs><g clip-path="url(#clip0)" transform="translate(-320 -197)"><path d="M335.5 569.5C396.651 556.909 434.011 582.533 527.417 569.5 620.823 556.467 618.922 583.379 671.893 569.5 724.863 555.622 846.38 595.979 934.969 569.5 1023.56 543.021 1073.85 582.503 1126.89 569.5 1179.92 556.498 1226.21 582.194 1318.8 569.5 1411.39 556.807 1520.97 600.942 1581.88 569.5 1642.78 538.058 1707.22 579.08 1750.07 569.5 1792.93 559.921 1923.45 578.4 2013.15 569.5 2102.86 560.6 2172.96 593.816 2276.23 569.5 2379.49 545.184 2447.91 582.343 2491.86 569.5 2535.81 556.657 2619.97 571.686 2707.5 569.5 2729.42 618.674 2689.27 709.149 2707.5 753.153 2725.73 797.158 2689.31 846.871 2707.5 925.447 2725.69 1004.02 2687.63 1092.51 2707.5 1137.5 2639.74 1140.78 2598.99 1114.46 2491.86 1137.5 2384.73 1160.54 2380.74 1128.68 2276.23 1137.5 2171.71 1146.32 2132.57 1129.07 2013.15 1137.5 1893.73 1145.93 1866.27 1128.06 1797.51 1137.5 1728.76 1146.94 1698.56 1127.23 1653.04 1137.5 1607.52 1147.77 1541.79 1129.55 1484.84 1137.5 1427.9 1145.45 1303.06 1119.53 1221.77 1137.5 1140.47 1155.47 1074.78 1118.58 1006.13 1137.5 937.478 1156.42 891.88 1124.79 837.933 1137.5 783.985 1150.21 700.641 1115.21 622.297 1137.5 543.952 1159.79 474.788 1112.26 335.5 1137.5 321.328 1057.4 336.406 1040.3 335.5 965.207 334.594 890.11 352.773 852.445 335.5 770.194 318.227 687.942 349.463 629.614 335.5 569.5Z" fill="#F2F2F2" fill-rule="evenodd" fill-opacity="1"/><path d="M335.5 569.5C450.843 542.139 517.499 594.047 598.576 569.5 679.654 544.953 778.342 590.858 861.653 569.5 944.964 548.143 978.464 573.165 1077.29 569.5 1176.11 565.835 1239.61 575.067 1316.65 569.5 1393.68 563.933 1425.77 582.048 1508.56 569.5 1591.36 556.952 1627.99 573.107 1724.2 569.5 1820.41 565.893 1876.77 570.334 1987.27 569.5 2097.78 568.666 2104.91 579.735 2155.47 569.5 2206.03 559.265 2328.01 584.309 2394.83 569.5 2461.64 554.691 2560.3 590.967 2707.5 569.5 2716.25 634.028 2688.73 701.596 2707.5 758.833 2726.27 816.07 2700.97 874.969 2707.5 948.167 2714.03 1021.37 2707.37 1081.51 2707.5 1137.5 2619.27 1161.77 2569.08 1113.73 2444.42 1137.5 2319.77 1161.27 2304.81 1129.68 2228.79 1137.5 2152.76 1145.32 2099.52 1117.6 2013.15 1137.5 1926.78 1157.4 1854.31 1123.54 1797.51 1137.5 1740.72 1151.46 1673.22 1128.9 1581.88 1137.5 1490.54 1146.1 1448.25 1127.02 1389.96 1137.5 1331.67 1147.98 1262.21 1121.46 1150.61 1137.5 1039 1153.54 1001.22 1115.47 934.969 1137.5 868.715 1159.53 783.495 1128.28 671.893 1137.5 560.29 1146.72 437.755 1100.3 335.5 1137.5 329.441 1060 351.24 995.917 335.5 942.487 319.76 889.057 349.624 800.736 335.5 753.153 321.376 705.57 349.026 629.652 335.5 569.5Z" stroke="#3D469C" stroke-width="9.16667" stroke-linecap="butt" stroke-linejoin="miter" stroke-miterlimit="8" stroke-dasharray="36.6667 27.5" stroke-opacity="1" fill="none" fill-rule="evenodd"/><text fill="#5662D5" fill-opacity="1" font-family="Corbel,Corbel_MSFontService,sans-serif" font-style="normal" font-variant="normal" font-weight="700" font-stretch="normal" font-size="92" text-anchor="start" direction="ltr" writing-mode="lr-tb" unicode-bidi="normal" text-decoration="none" transform="matrix(1 0 0 1 684.905 750)">Allocation</text><text fill="#181818" fill-opacity="1" font-family="Corbel,Corbel_MSFontService,sans-serif" font-style="normal" font-variant="normal" font-weight="400" font-stretch="normal" font-size="73" text-anchor="start" direction="ltr" writing-mode="lr-tb" unicode-bidi="normal" text-decoration="none" transform="matrix(1 0 0 1 546.259 867)">The system extends or </text><text fill="#181818" fill-opacity="1" font-family="Corbel,Corbel_MSFontService,sans-serif" font-style="normal" font-variant="normal" font-weight="400" font-stretch="normal" font-size="73" text-anchor="start" direction="ltr" writing-mode="lr-tb" unicode-bidi="normal" text-decoration="none" transform="matrix(1 0 0 1 536.245 946)">witholds opportunities, </text><text fill="#181818" fill-opacity="1" font-family="Corbel,Corbel_MSFontService,sans-serif" font-style="normal" font-variant="normal" font-weight="400" font-stretch="normal" font-size="73" text-anchor="start" direction="ltr" writing-mode="lr-tb" unicode-bidi="normal" text-decoration="none" transform="matrix(1 0 0 1 495.27 1025)">resources, or information.</text><text fill="#5662D5" fill-opacity="1" font-family="Corbel,Corbel_MSFontService,sans-serif" font-style="normal" font-variant="normal" font-weight="700" font-stretch="normal" font-size="92" text-anchor="start" direction="ltr" writing-mode="lr-tb" unicode-bidi="normal" text-decoration="none" transform="matrix(1 0 0 1 3207.53 750)">Representation</text><text fill="#181818" fill-opacity="1" font-family="Corbel,Corbel_MSFontService,sans-serif" font-style="normal" font-variant="normal" font-weight="400" font-stretch="normal" font-size="73" text-anchor="start" direction="ltr" writing-mode="lr-tb" unicode-bidi="normal" text-decoration="none" transform="matrix(1 0 0 1 3049.54 864)">The development/usage of the </text><text fill="#181818" fill-opacity="1" font-family="Corbel,Corbel_MSFontService,sans-serif" font-style="normal" font-variant="normal" font-weight="400" font-stretch="normal" font-size="73" text-anchor="start" direction="ltr" writing-mode="lr-tb" unicode-bidi="normal" text-decoration="none" transform="matrix(1 0 0 1 3129.56 943)">system overrepresents or </text><text fill="#181818" fill-opacity="1" font-family="Corbel,Corbel_MSFontService,sans-serif" font-style="normal" font-variant="normal" font-weight="400" font-stretch="normal" font-size="73" text-anchor="start" direction="ltr" writing-mode="lr-tb" unicode-bidi="normal" text-decoration="none" transform="matrix(1 0 0 1 3043.35 1022)">underrepresents/erases certain </text><text fill="#181818" fill-opacity="1" font-family="Corbel,Corbel_MSFontService,sans-serif" font-style="normal" font-variant="normal" font-weight="400" font-stretch="normal" font-size="73" text-anchor="start" direction="ltr" writing-mode="lr-tb" unicode-bidi="normal" text-decoration="none" transform="matrix(1 0 0 1 3398.56 1101)">groups.</text><text fill="#5662D5" fill-opacity="1" font-family="Corbel,Corbel_MSFontService,sans-serif" font-style="normal" font-variant="normal" font-weight="700" font-stretch="normal" font-size="92" text-anchor="start" direction="ltr" writing-mode="lr-tb" unicode-bidi="normal" text-decoration="none" transform="matrix(1 0 0 1 1839.7 750)">Quality</text><text fill="#5662D5" fill-opacity="1" font-family="Corbel,Corbel_MSFontService,sans-serif" font-style="normal" font-variant="normal" font-weight="700" font-stretch="normal" font-size="92" text-anchor="start" direction="ltr" writing-mode="lr-tb" unicode-bidi="normal" text-decoration="none" transform="matrix(1 0 0 1 2134.18 750)">-</text><text fill="#5662D5" fill-opacity="1" font-family="Corbel,Corbel_MSFontService,sans-serif" font-style="normal" font-variant="normal" font-weight="700" font-stretch="normal" font-size="92" text-anchor="start" direction="ltr" writing-mode="lr-tb" unicode-bidi="normal" text-decoration="none" transform="matrix(1 0 0 1 2164.55 750)">of</text><text fill="#5662D5" fill-opacity="1" font-family="Corbel,Corbel_MSFontService,sans-serif" font-style="normal" font-variant="normal" font-weight="700" font-stretch="normal" font-size="92" text-anchor="start" direction="ltr" writing-mode="lr-tb" unicode-bidi="normal" text-decoration="none" transform="matrix(1 0 0 1 2244.11 750)">-</text><text fill="#5662D5" fill-opacity="1" font-family="Corbel,Corbel_MSFontService,sans-serif" font-style="normal" font-variant="normal" font-weight="700" font-stretch="normal" font-size="92" text-anchor="start" direction="ltr" writing-mode="lr-tb" unicode-bidi="normal" text-decoration="none" transform="matrix(1 0 0 1 2272.69 750)">Service</text><text fill="#181818" fill-opacity="1" font-family="Corbel,Corbel_MSFontService,sans-serif" font-style="normal" font-variant="normal" font-weight="400" font-stretch="normal" font-size="73" text-anchor="start" direction="ltr" writing-mode="lr-tb" unicode-bidi="normal" text-decoration="none" transform="matrix(1 0 0 1 1803.83 864)">The system does not work </text><text fill="#181818" fill-opacity="1" font-family="Corbel,Corbel_MSFontService,sans-serif" font-style="normal" font-variant="normal" font-weight="400" font-stretch="normal" font-size="73" text-anchor="start" direction="ltr" writing-mode="lr-tb" unicode-bidi="normal" text-decoration="none" transform="matrix(1 0 0 1 1806.39 943)">equally well for all groups. </text><text fill="#5662D5" fill-opacity="1" font-family="Corbel,Corbel_MSFontService,sans-serif" font-style="normal" font-variant="normal" font-weight="700" font-stretch="normal" font-size="92" text-anchor="start" direction="ltr" writing-mode="lr-tb" unicode-bidi="normal" text-decoration="none" transform="matrix(1 0 0 1 626.467 1514)">Stereotyping</text><text fill="#181818" fill-opacity="1" font-family="Corbel,Corbel_MSFontService,sans-serif" font-style="normal" font-variant="normal" font-weight="400" font-stretch="normal" font-size="73" text-anchor="start" direction="ltr" writing-mode="lr-tb" unicode-bidi="normal" text-decoration="none" transform="matrix(1 0 0 1 553.993 1631)">The system reinforces </text><text fill="#181818" fill-opacity="1" font-family="Corbel,Corbel_MSFontService,sans-serif" font-style="normal" font-variant="normal" font-weight="400" font-stretch="normal" font-size="73" text-anchor="start" direction="ltr" writing-mode="lr-tb" unicode-bidi="normal" text-decoration="none" transform="matrix(1 0 0 1 698.643 1710)">stereotypes.</text><text fill="#5662D5" fill-opacity="1" font-family="Corbel,Corbel_MSFontService,sans-serif" font-style="normal" font-variant="normal" font-weight="700" font-stretch="normal" font-size="92" text-anchor="start" direction="ltr" writing-mode="lr-tb" unicode-bidi="normal" text-decoration="none" transform="matrix(1 0 0 1 3298.58 1514)">Procedural</text><text fill="#181818" fill-opacity="1" font-family="Corbel,Corbel_MSFontService,sans-serif" font-style="normal" font-variant="normal" font-weight="400" font-stretch="normal" font-size="73" text-anchor="start" direction="ltr" writing-mode="lr-tb" unicode-bidi="normal" text-decoration="none" transform="matrix(1 0 0 1 3049.51 1627)">The system makes decisions in </text><text fill="#181818" fill-opacity="1" font-family="Corbel,Corbel_MSFontService,sans-serif" font-style="normal" font-variant="normal" font-weight="400" font-stretch="normal" font-size="73" text-anchor="start" direction="ltr" writing-mode="lr-tb" unicode-bidi="normal" text-decoration="none" transform="matrix(1 0 0 1 3137.58 1706)">a way that violates social </text><text fill="#181818" fill-opacity="1" font-family="Corbel,Corbel_MSFontService,sans-serif" font-style="normal" font-variant="normal" font-weight="400" font-stretch="normal" font-size="73" text-anchor="start" direction="ltr" writing-mode="lr-tb" unicode-bidi="normal" text-decoration="none" transform="matrix(1 0 0 1 3406.58 1785)">norms.</text><text fill="#5662D5" fill-opacity="1" font-family="Corbel,Corbel_MSFontService,sans-serif" font-style="normal" font-variant="normal" font-weight="700" font-stretch="normal" font-size="92" text-anchor="start" direction="ltr" writing-mode="lr-tb" unicode-bidi="normal" text-decoration="none" transform="matrix(1 0 0 1 1963.38 1514)">Denigration</text><text fill="#181818" fill-opacity="1" font-family="Corbel,Corbel_MSFontService,sans-serif" font-style="normal" font-variant="normal" font-weight="400" font-stretch="normal" font-size="73" text-anchor="start" direction="ltr" writing-mode="lr-tb" unicode-bidi="normal" text-decoration="none" transform="matrix(1 0 0 1 1870.86 1627)">The system is actively </text><text fill="#181818" fill-opacity="1" font-family="Corbel,Corbel_MSFontService,sans-serif" font-style="normal" font-variant="normal" font-weight="400" font-stretch="normal" font-size="73" text-anchor="start" direction="ltr" writing-mode="lr-tb" unicode-bidi="normal" text-decoration="none" transform="matrix(1 0 0 1 1834.76 1706)">derogatory or offensive.</text><text fill="#242225" fill-opacity="1" font-family="Corbel,Corbel_MSFontService,sans-serif" font-style="normal" font-variant="normal" font-weight="400" font-stretch="normal" font-size="55" text-anchor="start" direction="ltr" writing-mode="lr-tb" unicode-bidi="normal" text-decoration="none" transform="matrix(1 0 0 1 2428.31 269)">Majority of fairness </text><text fill="#242225" fill-opacity="1" font-family="Corbel,Corbel_MSFontService,sans-serif" font-style="normal" font-variant="normal" font-weight="400" font-stretch="normal" font-size="55" text-anchor="start" direction="ltr" writing-mode="lr-tb" unicode-bidi="normal" text-decoration="none" transform="matrix(1 0 0 1 2423.45 335)">research focuses on </text><text fill="#242225" fill-opacity="1" font-family="Corbel,Corbel_MSFontService,sans-serif" font-style="normal" font-variant="normal" font-weight="400" font-stretch="normal" font-size="55" text-anchor="start" direction="ltr" writing-mode="lr-tb" unicode-bidi="normal" text-decoration="none" transform="matrix(1 0 0 1 2458.1 401)">these two harms</text><path d="M0 0C82.4998 0 165 77.8583 165 155.716" stroke="#5662D5" stroke-width="9.16667" stroke-linecap="butt" stroke-linejoin="miter" stroke-miterlimit="8" stroke-opacity="1" fill="none" fill-rule="evenodd" transform="matrix(-1 1.22465e-16 1.22465e-16 1 2365.5 322.5)"/><path d="M335.5 1304.5C420.196 1298.32 470.028 1322.61 536.71 1304.5 603.392 1286.39 647.22 1317.11 716.74 1304.5 786.26 1291.89 888.354 1325.92 949.72 1304.5 1011.09 1283.08 1105.57 1325.28 1150.93 1304.5 1196.29 1283.72 1279.81 1305.13 1394.5 1304.5 1398.53 1359.18 1372.67 1462.56 1394.5 1529.57 1416.33 1596.59 1383.06 1698.29 1394.5 1741.91 1405.94 1785.53 1385.23 1873.02 1394.5 1941.5 1316.87 1952.12 1273.42 1930.62 1203.88 1941.5 1134.34 1952.38 1074.8 1928.99 992.08 1941.5 909.361 1954.01 872.172 1929.39 780.28 1941.5 688.388 1953.61 622.223 1933.37 579.07 1941.5 535.917 1949.63 424.275 1931.14 335.5 1941.5 309.235 1878.39 350.707 1807.74 335.5 1716.43 320.293 1625.11 356.247 1591.07 335.5 1491.35 314.753 1391.64 337.934 1376.91 335.5 1304.5Z" stroke="#3D469C" stroke-width="9.16667" stroke-linecap="butt" stroke-linejoin="miter" stroke-miterlimit="8" stroke-dasharray="36.6667 27.5" stroke-opacity="1" fill="none" fill-rule="evenodd"/><text fill="#242225" fill-opacity="1" font-family="Corbel,Corbel_MSFontService,sans-serif" font-style="normal" font-variant="normal" font-weight="400" font-stretch="normal" font-size="55" text-anchor="start" direction="ltr" writing-mode="lr-tb" unicode-bidi="normal" text-decoration="none" transform="matrix(1 0 0 1 960.246 2102)">Most prevalent in </text><text fill="#242225" fill-opacity="1" font-family="Corbel,Corbel_MSFontService,sans-serif" font-style="normal" font-variant="normal" font-weight="400" font-stretch="normal" font-size="55" text-anchor="start" direction="ltr" writing-mode="lr-tb" unicode-bidi="normal" text-decoration="none" transform="matrix(1 0 0 1 954.654 2168)">unstructured data</text><path d="M921.77 2117.87C872.135 2117.87 822.5 2059.18 822.5 2000.5" stroke="#5662D5" stroke-width="9.16667" stroke-linecap="butt" stroke-linejoin="miter" stroke-miterlimit="8" stroke-opacity="1" fill="none" fill-rule="evenodd"/><path d="M2984.5 1304.5C3069.12 1298.32 3118.9 1322.61 3185.52 1304.5 3252.14 1286.39 3295.93 1317.11 3365.38 1304.5 3434.83 1291.89 3536.83 1325.92 3598.14 1304.5 3659.45 1283.08 3753.84 1325.28 3799.16 1304.5 3844.48 1283.72 3927.92 1305.13 4042.5 1304.5 4046.53 1359.18 4020.69 1462.56 4042.5 1529.57 4064.31 1596.59 4031.07 1698.29 4042.5 1741.91 4053.93 1785.53 4033.24 1873.02 4042.5 1941.5 3964.95 1952.12 3921.53 1930.62 3852.06 1941.5 3782.59 1952.38 3723.1 1928.99 3640.46 1941.5 3557.82 1954.01 3520.67 1929.39 3428.86 1941.5 3337.05 1953.61 3270.95 1933.37 3227.84 1941.5 3184.73 1949.63 3073.19 1931.14 2984.5 1941.5 2958.26 1878.39 2999.69 1807.74 2984.5 1716.43 2969.31 1625.11 3005.23 1591.07 2984.5 1491.35 2963.77 1391.64 2986.93 1376.91 2984.5 1304.5Z" stroke="#3D469C" stroke-width="9.16667" stroke-linecap="butt" stroke-linejoin="miter" stroke-miterlimit="8" stroke-dasharray="36.6667 27.5" stroke-opacity="1" fill="none" fill-rule="evenodd"/><text fill="#242225" fill-opacity="1" font-family="Corbel,Corbel_MSFontService,sans-serif" font-style="normal" font-variant="normal" font-weight="400" font-stretch="normal" font-size="55" text-anchor="start" direction="ltr" writing-mode="lr-tb" unicode-bidi="normal" text-decoration="none" transform="matrix(1 0 0 1 2852.07 2104)">Closely related to </text><text fill="#242225" fill-opacity="1" font-family="Corbel,Corbel_MSFontService,sans-serif" font-style="normal" font-variant="normal" font-weight="400" font-stretch="normal" font-size="55" text-anchor="start" direction="ltr" writing-mode="lr-tb" unicode-bidi="normal" text-decoration="none" transform="matrix(1 0 0 1 2900.77 2170)">interpretable </text><text fill="#242225" fill-opacity="1" font-family="Corbel,Corbel_MSFontService,sans-serif" font-style="normal" font-variant="normal" font-weight="400" font-stretch="normal" font-size="55" text-anchor="start" direction="ltr" writing-mode="lr-tb" unicode-bidi="normal" text-decoration="none" transform="matrix(1 0 0 1 2853.22 2236)">machine learning</text><path d="M0 0C101.278 0 202.556 77.8103 202.556 155.62" stroke="#5662D5" stroke-width="9.16667" stroke-linecap="butt" stroke-linejoin="miter" stroke-miterlimit="8" stroke-opacity="1" fill="none" fill-rule="evenodd" transform="matrix(1 0 0 -1 3310.5 2154.12)"/></g></svg>