<svg width="1614" height="752" xmlns="http://www.w3.org/2000/svg" xmlns:xlink="http://www.w3.org/1999/xlink" xml:space="preserve" overflow="hidden"><g transform="translate(-430 -1420)"><g><path d="M436.387 1425.26 514.358 1425.26 514.358 1511.1 436.387 1511.1Z" fill="#5662D5" fill-rule="evenodd" fill-opacity="1"/><path d="M514.358 1425.26 753.821 1425.26 753.821 1511.1 514.358 1511.1Z" fill="#5662D5" fill-rule="evenodd" fill-opacity="1"/><path d="M753.821 1425.26 1107.18 1425.26 1107.18 1511.1 753.821 1511.1Z" fill="#5662D5" fill-rule="evenodd" fill-opacity="1"/><path d="M1107.18 1425.26 1190.35 1425.26 1190.35 1511.1 1107.18 1511.1Z" fill="#5662D5" fill-rule="evenodd" fill-opacity="1"/><path d="M436.387 1511.1 514.358 1511.1 514.358 1584.71 436.387 1584.71Z" fill="#D1D3EF" fill-rule="evenodd" fill-opacity="1"/><path d="M514.358 1511.1 753.821 1511.1 753.821 1584.71 514.358 1584.71Z" fill="#D1D3EF" fill-rule="evenodd" fill-opacity="1"/><path d="M753.821 1511.1 1107.18 1511.1 1107.18 1584.71 753.821 1584.71Z" fill="#D1D3EF" fill-rule="evenodd" fill-opacity="1"/><path d="M1107.18 1511.1 1190.35 1511.1 1190.35 1584.71 1107.18 1584.71Z" fill="#D1D3EF" fill-rule="evenodd" fill-opacity="1"/><path d="M436.387 1584.71 514.358 1584.71 514.358 1670.55 436.387 1670.55Z" fill="#E9EAF7" fill-rule="evenodd" fill-opacity="1"/><path d="M514.358 1584.71 753.821 1584.71 753.821 1670.55 514.358 1670.55Z" fill="#E9EAF7" fill-rule="evenodd" fill-opacity="1"/><path d="M753.821 1584.71 1107.18 1584.71 1107.18 1670.55 753.821 1670.55Z" fill="#E9EAF7" fill-rule="evenodd" fill-opacity="1"/><path d="M1107.18 1584.71 1190.35 1584.71 1190.35 1670.55 1107.18 1670.55Z" fill="#E9EAF7" fill-rule="evenodd" fill-opacity="1"/><path d="M436.387 1670.55 514.358 1670.55 514.358 1756.39 436.387 1756.39Z" fill="#D1D3EF" fill-rule="evenodd" fill-opacity="1"/><path d="M514.358 1670.55 753.821 1670.55 753.821 1756.39 514.358 1756.39Z" fill="#D1D3EF" fill-rule="evenodd" fill-opacity="1"/><path d="M753.821 1670.55 1107.18 1670.55 1107.18 1756.39 753.821 1756.39Z" fill="#D1D3EF" fill-rule="evenodd" fill-opacity="1"/><path d="M1107.18 1670.55 1190.35 1670.55 1190.35 1756.39 1107.18 1756.39Z" fill="#D1D3EF" fill-rule="evenodd" fill-opacity="1"/><path d="M436.387 1756.39 514.358 1756.39 514.358 1842.23 436.387 1842.23Z" fill="#E9EAF7" fill-rule="evenodd" fill-opacity="1"/><path d="M514.358 1756.39 753.821 1756.39 753.821 1842.23 514.358 1842.23Z" fill="#E9EAF7" fill-rule="evenodd" fill-opacity="1"/><path d="M753.821 1756.39 1107.18 1756.39 1107.18 1842.23 753.821 1842.23Z" fill="#E9EAF7" fill-rule="evenodd" fill-opacity="1"/><path d="M1107.18 1756.39 1190.35 1756.39 1190.35 1842.23 1107.18 1842.23Z" fill="#E9EAF7" fill-rule="evenodd" fill-opacity="1"/><path d="M436.387 1842.23 514.358 1842.23 514.358 1928.07 436.387 1928.07Z" fill="#D1D3EF" fill-rule="evenodd" fill-opacity="1"/><path d="M514.358 1842.23 753.821 1842.23 753.821 1928.07 514.358 1928.07Z" fill="#D1D3EF" fill-rule="evenodd" fill-opacity="1"/><path d="M753.821 1842.23 1107.18 1842.23 1107.18 1928.07 753.821 1928.07Z" fill="#D1D3EF" fill-rule="evenodd" fill-opacity="1"/><path d="M1107.18 1842.23 1190.35 1842.23 1190.35 1928.07 1107.18 1928.07Z" fill="#D1D3EF" fill-rule="evenodd" fill-opacity="1"/><path d="M436.387 1928.07 514.358 1928.07 514.358 2001.68 436.387 2001.68Z" fill="#E9EAF7" fill-rule="evenodd" fill-opacity="1"/><path d="M514.358 1928.07 753.821 1928.07 753.821 2001.68 514.358 2001.68Z" fill="#E9EAF7" fill-rule="evenodd" fill-opacity="1"/><path d="M753.821 1928.07 1107.18 1928.07 1107.18 2001.68 753.821 2001.68Z" fill="#E9EAF7" fill-rule="evenodd" fill-opacity="1"/><path d="M1107.18 1928.07 1190.35 1928.07 1190.35 2001.68 1107.18 2001.68Z" fill="#E9EAF7" fill-rule="evenodd" fill-opacity="1"/><path d="M436.387 2001.68 514.358 2001.68 514.358 2075.29 436.387 2075.29Z" fill="#D1D3EF" fill-rule="evenodd" fill-opacity="1"/><path d="M514.358 2001.68 753.821 2001.68 753.821 2075.29 514.358 2075.29Z" fill="#D1D3EF" fill-rule="evenodd" fill-opacity="1"/><path d="M753.821 2001.68 1107.18 2001.68 1107.18 2075.29 753.821 2075.29Z" fill="#D1D3EF" fill-rule="evenodd" fill-opacity="1"/><path d="M1107.18 2001.68 1190.35 2001.68 1190.35 2075.29 1107.18 2075.29Z" fill="#D1D3EF" fill-rule="evenodd" fill-opacity="1"/><path d="M436.387 2075.29 514.358 2075.29 514.358 2161.13 436.387 2161.13Z" fill="#E9EAF7" fill-rule="evenodd" fill-opacity="1"/><path d="M514.358 2075.29 753.821 2075.29 753.821 2161.13 514.358 2161.13Z" fill="#E9EAF7" fill-rule="evenodd" fill-opacity="1"/><path d="M753.821 2075.29 1107.18 2075.29 1107.18 2161.13 753.821 2161.13Z" fill="#E9EAF7" fill-rule="evenodd" fill-opacity="1"/><path d="M1107.18 2075.29 1190.35 2075.29 1190.35 2161.13 1107.18 2161.13Z" fill="#E9EAF7" fill-rule="evenodd" fill-opacity="1"/><path d="M514.358 1422.97 514.358 2163.42" stroke="#FFFFFF" stroke-width="4.58333" stroke-linecap="butt" stroke-linejoin="round" stroke-miterlimit="10" stroke-opacity="1" fill="none" fill-rule="evenodd"/><path d="M753.821 1422.97 753.821 2163.42" stroke="#FFFFFF" stroke-width="4.58333" stroke-linecap="butt" stroke-linejoin="round" stroke-miterlimit="10" stroke-opacity="1" fill="none" fill-rule="evenodd"/><path d="M1107.18 1422.97 1107.18 2163.42" stroke="#FFFFFF" stroke-width="4.58333" stroke-linecap="butt" stroke-linejoin="round" stroke-miterlimit="10" stroke-opacity="1" fill="none" fill-rule="evenodd"/><path d="M434.095 1511.1 1192.64 1511.1" stroke="#FFFFFF" stroke-width="13.75" stroke-linecap="butt" stroke-linejoin="round" stroke-miterlimit="10" stroke-opacity="1" fill="none" fill-rule="evenodd"/><path d="M434.095 1584.71 1192.64 1584.71" stroke="#FFFFFF" stroke-width="4.58333" stroke-linecap="butt" stroke-linejoin="round" stroke-miterlimit="10" stroke-opacity="1" fill="none" fill-rule="evenodd"/><path d="M434.095 1670.55 1192.64 1670.55" stroke="#FFFFFF" stroke-width="4.58333" stroke-linecap="butt" stroke-linejoin="round" stroke-miterlimit="10" stroke-opacity="1" fill="none" fill-rule="evenodd"/><path d="M434.095 1756.39 1192.64 1756.39" stroke="#FFFFFF" stroke-width="4.58333" stroke-linecap="butt" stroke-linejoin="round" stroke-miterlimit="10" stroke-opacity="1" fill="none" fill-rule="evenodd"/><path d="M434.095 1842.23 1192.64 1842.23" stroke="#FFFFFF" stroke-width="4.58333" stroke-linecap="butt" stroke-linejoin="round" stroke-miterlimit="10" stroke-opacity="1" fill="none" fill-rule="evenodd"/><path d="M434.095 1928.07 1192.64 1928.07" stroke="#FFFFFF" stroke-width="4.58333" stroke-linecap="butt" stroke-linejoin="round" stroke-miterlimit="10" stroke-opacity="1" fill="none" fill-rule="evenodd"/><path d="M434.095 2001.68 1192.64 2001.68" stroke="#FFFFFF" stroke-width="4.58333" stroke-linecap="butt" stroke-linejoin="round" stroke-miterlimit="10" stroke-opacity="1" fill="none" fill-rule="evenodd"/><path d="M434.095 2075.29 1192.64 2075.29" stroke="#FFFFFF" stroke-width="4.58333" stroke-linecap="butt" stroke-linejoin="round" stroke-miterlimit="10" stroke-opacity="1" fill="none" fill-rule="evenodd"/><path d="M436.387 1422.97 436.387 2163.42" stroke="#FFFFFF" stroke-width="4.58333" stroke-linecap="butt" stroke-linejoin="round" stroke-miterlimit="10" stroke-opacity="1" fill="none" fill-rule="evenodd"/><path d="M1190.35 1422.97 1190.35 2163.42" stroke="#FFFFFF" stroke-width="4.58333" stroke-linecap="butt" stroke-linejoin="round" stroke-miterlimit="10" stroke-opacity="1" fill="none" fill-rule="evenodd"/><path d="M434.095 1425.26 1192.64 1425.26" stroke="#FFFFFF" stroke-width="4.58333" stroke-linecap="butt" stroke-linejoin="round" stroke-miterlimit="10" stroke-opacity="1" fill="none" fill-rule="evenodd"/><path d="M434.095 2161.13 1192.64 2161.13" stroke="#FFFFFF" stroke-width="4.58333" stroke-linecap="butt" stroke-linejoin="round" stroke-miterlimit="10" stroke-opacity="1" fill="none" fill-rule="evenodd"/><g><text fill="#FFFFFF" fill-opacity="1" font-family="Corbel,Corbel_MSFontService,sans-serif" font-style="normal" font-variant="normal" font-weight="700" font-stretch="normal" font-size="41" text-anchor="start" direction="ltr" writing-mode="lr-tb" unicode-bidi="normal" text-decoration="none" transform="matrix(1 0 0 1 1131.29 1476)">Y</text></g><g><text fill="#FFFFFF" fill-opacity="1" font-family="Corbel,Corbel_MSFontService,sans-serif" font-style="normal" font-variant="normal" font-weight="700" font-stretch="normal" font-size="41" text-anchor="start" direction="ltr" writing-mode="lr-tb" unicode-bidi="normal" text-decoration="none" transform="matrix(1 0 0 1 777.932 1476)">Highest Degree</text></g><g><text fill="#FFFFFF" fill-opacity="1" font-family="Corbel,Corbel_MSFontService,sans-serif" font-style="normal" font-variant="normal" font-weight="700" font-stretch="normal" font-size="41" text-anchor="start" direction="ltr" writing-mode="lr-tb" unicode-bidi="normal" text-decoration="none" transform="matrix(1 0 0 1 538.469 1476)">Ethnicity</text></g><text fill="#242225" fill-opacity="1" font-family="Corbel,Corbel_MSFontService,sans-serif" font-style="normal" font-variant="normal" font-weight="400" font-stretch="normal" font-size="41" text-anchor="start" direction="ltr" writing-mode="lr-tb" unicode-bidi="normal" text-decoration="none" transform="matrix(1 0 0 1 1139.6 1562)">1</text><g><text fill="#242225" fill-opacity="1" font-family="Corbel,Corbel_MSFontService,sans-serif" font-style="normal" font-variant="normal" font-weight="400" font-stretch="normal" font-size="41" text-anchor="start" direction="ltr" writing-mode="lr-tb" unicode-bidi="normal" text-decoration="none" transform="matrix(1 0 0 1 777.932 1562)">high school</text></g><g><text fill="#242225" fill-opacity="1" font-family="Corbel,Corbel_MSFontService,sans-serif" font-style="normal" font-variant="normal" font-weight="400" font-stretch="normal" font-size="41" text-anchor="start" direction="ltr" writing-mode="lr-tb" unicode-bidi="normal" text-decoration="none" transform="matrix(1 0 0 1 538.469 1562)">native</text></g><g><text fill="#242225" fill-opacity="1" font-family="Corbel,Corbel_MSFontService,sans-serif" font-style="normal" font-variant="normal" font-weight="400" font-stretch="normal" font-size="41" text-anchor="start" direction="ltr" writing-mode="lr-tb" unicode-bidi="normal" text-decoration="none" transform="matrix(1 0 0 1 460.498 1562)">1</text></g><text fill="#242225" fill-opacity="1" font-family="Corbel,Corbel_MSFontService,sans-serif" font-style="normal" font-variant="normal" font-weight="400" font-stretch="normal" font-size="41" text-anchor="start" direction="ltr" writing-mode="lr-tb" unicode-bidi="normal" text-decoration="none" transform="matrix(1 0 0 1 1139.6 1636)">1</text><g><text fill="#242225" fill-opacity="1" font-family="Corbel,Corbel_MSFontService,sans-serif" font-style="normal" font-variant="normal" font-weight="400" font-stretch="normal" font-size="41" text-anchor="start" direction="ltr" writing-mode="lr-tb" unicode-bidi="normal" text-decoration="none" transform="matrix(1 0 0 1 777.932 1636)">university</text></g><g><text fill="#242225" fill-opacity="1" font-family="Corbel,Corbel_MSFontService,sans-serif" font-style="normal" font-variant="normal" font-weight="400" font-stretch="normal" font-size="41" text-anchor="start" direction="ltr" writing-mode="lr-tb" unicode-bidi="normal" text-decoration="none" transform="matrix(1 0 0 1 538.469 1636)">non</text></g><text fill="#242225" fill-opacity="1" font-family="Corbel,Corbel_MSFontService,sans-serif" font-style="normal" font-variant="normal" font-weight="400" font-stretch="normal" font-size="41" text-anchor="start" direction="ltr" writing-mode="lr-tb" unicode-bidi="normal" text-decoration="none" transform="matrix(1 0 0 1 603.781 1636)">-</text><text fill="#242225" fill-opacity="1" font-family="Corbel,Corbel_MSFontService,sans-serif" font-style="normal" font-variant="normal" font-weight="400" font-stretch="normal" font-size="41" text-anchor="start" direction="ltr" writing-mode="lr-tb" unicode-bidi="normal" text-decoration="none" transform="matrix(1 0 0 1 617.531 1636)">native</text><g><text fill="#242225" fill-opacity="1" font-family="Corbel,Corbel_MSFontService,sans-serif" font-style="normal" font-variant="normal" font-weight="400" font-stretch="normal" font-size="41" text-anchor="start" direction="ltr" writing-mode="lr-tb" unicode-bidi="normal" text-decoration="none" transform="matrix(1 0 0 1 460.498 1636)">2</text></g><text fill="#242225" fill-opacity="1" font-family="Corbel,Corbel_MSFontService,sans-serif" font-style="normal" font-variant="normal" font-weight="400" font-stretch="normal" font-size="41" text-anchor="start" direction="ltr" writing-mode="lr-tb" unicode-bidi="normal" text-decoration="none" transform="matrix(1 0 0 1 1138.16 1722)">0</text><g><text fill="#242225" fill-opacity="1" font-family="Corbel,Corbel_MSFontService,sans-serif" font-style="normal" font-variant="normal" font-weight="400" font-stretch="normal" font-size="41" text-anchor="start" direction="ltr" writing-mode="lr-tb" unicode-bidi="normal" text-decoration="none" transform="matrix(1 0 0 1 777.932 1722)">high school</text></g><g><text fill="#242225" fill-opacity="1" font-family="Corbel,Corbel_MSFontService,sans-serif" font-style="normal" font-variant="normal" font-weight="400" font-stretch="normal" font-size="41" text-anchor="start" direction="ltr" writing-mode="lr-tb" unicode-bidi="normal" text-decoration="none" transform="matrix(1 0 0 1 538.469 1722)">non</text></g><text fill="#242225" fill-opacity="1" font-family="Corbel,Corbel_MSFontService,sans-serif" font-style="normal" font-variant="normal" font-weight="400" font-stretch="normal" font-size="41" text-anchor="start" direction="ltr" writing-mode="lr-tb" unicode-bidi="normal" text-decoration="none" transform="matrix(1 0 0 1 603.781 1722)">-</text><text fill="#242225" fill-opacity="1" font-family="Corbel,Corbel_MSFontService,sans-serif" font-style="normal" font-variant="normal" font-weight="400" font-stretch="normal" font-size="41" text-anchor="start" direction="ltr" writing-mode="lr-tb" unicode-bidi="normal" text-decoration="none" transform="matrix(1 0 0 1 617.531 1722)">native</text><g><text fill="#242225" fill-opacity="1" font-family="Corbel,Corbel_MSFontService,sans-serif" font-style="normal" font-variant="normal" font-weight="400" font-stretch="normal" font-size="41" text-anchor="start" direction="ltr" writing-mode="lr-tb" unicode-bidi="normal" text-decoration="none" transform="matrix(1 0 0 1 460.498 1722)">3</text></g><text fill="#242225" fill-opacity="1" font-family="Corbel,Corbel_MSFontService,sans-serif" font-style="normal" font-variant="normal" font-weight="400" font-stretch="normal" font-size="41" text-anchor="start" direction="ltr" writing-mode="lr-tb" unicode-bidi="normal" text-decoration="none" transform="matrix(1 0 0 1 1138.16 1807)">0</text><g><text fill="#242225" fill-opacity="1" font-family="Corbel,Corbel_MSFontService,sans-serif" font-style="normal" font-variant="normal" font-weight="400" font-stretch="normal" font-size="41" text-anchor="start" direction="ltr" writing-mode="lr-tb" unicode-bidi="normal" text-decoration="none" transform="matrix(1 0 0 1 777.932 1807)">applied university</text></g><g><text fill="#242225" fill-opacity="1" font-family="Corbel,Corbel_MSFontService,sans-serif" font-style="normal" font-variant="normal" font-weight="400" font-stretch="normal" font-size="41" text-anchor="start" direction="ltr" writing-mode="lr-tb" unicode-bidi="normal" text-decoration="none" transform="matrix(1 0 0 1 538.469 1807)">non</text></g><text fill="#242225" fill-opacity="1" font-family="Corbel,Corbel_MSFontService,sans-serif" font-style="normal" font-variant="normal" font-weight="400" font-stretch="normal" font-size="41" text-anchor="start" direction="ltr" writing-mode="lr-tb" unicode-bidi="normal" text-decoration="none" transform="matrix(1 0 0 1 603.781 1807)">-</text><text fill="#242225" fill-opacity="1" font-family="Corbel,Corbel_MSFontService,sans-serif" font-style="normal" font-variant="normal" font-weight="400" font-stretch="normal" font-size="41" text-anchor="start" direction="ltr" writing-mode="lr-tb" unicode-bidi="normal" text-decoration="none" transform="matrix(1 0 0 1 617.531 1807)">native</text><g><text fill="#242225" fill-opacity="1" font-family="Corbel,Corbel_MSFontService,sans-serif" font-style="normal" font-variant="normal" font-weight="400" font-stretch="normal" font-size="41" text-anchor="start" direction="ltr" writing-mode="lr-tb" unicode-bidi="normal" text-decoration="none" transform="matrix(1 0 0 1 460.498 1807)">4</text></g><text fill="#242225" fill-opacity="1" font-family="Corbel,Corbel_MSFontService,sans-serif" font-style="normal" font-variant="normal" font-weight="400" font-stretch="normal" font-size="41" text-anchor="start" direction="ltr" writing-mode="lr-tb" unicode-bidi="normal" text-decoration="none" transform="matrix(1 0 0 1 1138.16 1893)">0</text><g><text fill="#242225" fill-opacity="1" font-family="Corbel,Corbel_MSFontService,sans-serif" font-style="normal" font-variant="normal" font-weight="400" font-stretch="normal" font-size="41" text-anchor="start" direction="ltr" writing-mode="lr-tb" unicode-bidi="normal" text-decoration="none" transform="matrix(1 0 0 1 777.932 1893)">applied university</text></g><g><text fill="#242225" fill-opacity="1" font-family="Corbel,Corbel_MSFontService,sans-serif" font-style="normal" font-variant="normal" font-weight="400" font-stretch="normal" font-size="41" text-anchor="start" direction="ltr" writing-mode="lr-tb" unicode-bidi="normal" text-decoration="none" transform="matrix(1 0 0 1 538.469 1893)">native</text></g><g><text fill="#242225" fill-opacity="1" font-family="Corbel,Corbel_MSFontService,sans-serif" font-style="normal" font-variant="normal" font-weight="400" font-stretch="normal" font-size="41" text-anchor="start" direction="ltr" writing-mode="lr-tb" unicode-bidi="normal" text-decoration="none" transform="matrix(1 0 0 1 460.498 1893)">5</text></g><text fill="#242225" fill-opacity="1" font-family="Corbel,Corbel_MSFontService,sans-serif" font-style="normal" font-variant="normal" font-weight="400" font-stretch="normal" font-size="41" text-anchor="start" direction="ltr" writing-mode="lr-tb" unicode-bidi="normal" text-decoration="none" transform="matrix(1 0 0 1 1138.16 1979)">0</text><g><text fill="#242225" fill-opacity="1" font-family="Corbel,Corbel_MSFontService,sans-serif" font-style="normal" font-variant="normal" font-weight="400" font-stretch="normal" font-size="41" text-anchor="start" direction="ltr" writing-mode="lr-tb" unicode-bidi="normal" text-decoration="none" transform="matrix(1 0 0 1 777.932 1979)">university</text></g><g><text fill="#242225" fill-opacity="1" font-family="Corbel,Corbel_MSFontService,sans-serif" font-style="normal" font-variant="normal" font-weight="400" font-stretch="normal" font-size="41" text-anchor="start" direction="ltr" writing-mode="lr-tb" unicode-bidi="normal" text-decoration="none" transform="matrix(1 0 0 1 538.469 1979)">native</text></g><g><text fill="#242225" fill-opacity="1" font-family="Corbel,Corbel_MSFontService,sans-serif" font-style="normal" font-variant="normal" font-weight="400" font-stretch="normal" font-size="41" text-anchor="start" direction="ltr" writing-mode="lr-tb" unicode-bidi="normal" text-decoration="none" transform="matrix(1 0 0 1 460.498 1979)">6</text></g><text fill="#242225" fill-opacity="1" font-family="Corbel,Corbel_MSFontService,sans-serif" font-style="normal" font-variant="normal" font-weight="400" font-stretch="normal" font-size="41" text-anchor="start" direction="ltr" writing-mode="lr-tb" unicode-bidi="normal" text-decoration="none" transform="matrix(1 0 0 1 1139.6 2053)">1</text><g><text fill="#242225" fill-opacity="1" font-family="Corbel,Corbel_MSFontService,sans-serif" font-style="normal" font-variant="normal" font-weight="400" font-stretch="normal" font-size="41" text-anchor="start" direction="ltr" writing-mode="lr-tb" unicode-bidi="normal" text-decoration="none" transform="matrix(1 0 0 1 777.932 2053)">university</text></g><g><text fill="#242225" fill-opacity="1" font-family="Corbel,Corbel_MSFontService,sans-serif" font-style="normal" font-variant="normal" font-weight="400" font-stretch="normal" font-size="41" text-anchor="start" direction="ltr" writing-mode="lr-tb" unicode-bidi="normal" text-decoration="none" transform="matrix(1 0 0 1 538.469 2053)">native</text></g><g><text fill="#242225" fill-opacity="1" font-family="Corbel,Corbel_MSFontService,sans-serif" font-style="normal" font-variant="normal" font-weight="400" font-stretch="normal" font-size="41" text-anchor="start" direction="ltr" writing-mode="lr-tb" unicode-bidi="normal" text-decoration="none" transform="matrix(1 0 0 1 460.498 2053)">7</text></g><text fill="#242225" fill-opacity="1" font-family="Corbel,Corbel_MSFontService,sans-serif" font-style="normal" font-variant="normal" font-weight="400" font-stretch="normal" font-size="41" text-anchor="start" direction="ltr" writing-mode="lr-tb" unicode-bidi="normal" text-decoration="none" transform="matrix(1 0 0 1 1139.6 2126)">1</text><g><text fill="#242225" fill-opacity="1" font-family="Corbel,Corbel_MSFontService,sans-serif" font-style="normal" font-variant="normal" font-weight="400" font-stretch="normal" font-size="41" text-anchor="start" direction="ltr" writing-mode="lr-tb" unicode-bidi="normal" text-decoration="none" transform="matrix(1 0 0 1 777.932 2126)">university</text></g><g><text fill="#242225" fill-opacity="1" font-family="Corbel,Corbel_MSFontService,sans-serif" font-style="normal" font-variant="normal" font-weight="400" font-stretch="normal" font-size="41" text-anchor="start" direction="ltr" writing-mode="lr-tb" unicode-bidi="normal" text-decoration="none" transform="matrix(1 0 0 1 538.469 2126)">non</text></g><text fill="#242225" fill-opacity="1" font-family="Corbel,Corbel_MSFontService,sans-serif" font-style="normal" font-variant="normal" font-weight="400" font-stretch="normal" font-size="41" text-anchor="start" direction="ltr" writing-mode="lr-tb" unicode-bidi="normal" text-decoration="none" transform="matrix(1 0 0 1 603.781 2126)">-</text><text fill="#242225" fill-opacity="1" font-family="Corbel,Corbel_MSFontService,sans-serif" font-style="normal" font-variant="normal" font-weight="400" font-stretch="normal" font-size="41" text-anchor="start" direction="ltr" writing-mode="lr-tb" unicode-bidi="normal" text-decoration="none" transform="matrix(1 0 0 1 617.531 2126)">native</text><g><text fill="#242225" fill-opacity="1" font-family="Corbel,Corbel_MSFontService,sans-serif" font-style="normal" font-variant="normal" font-weight="400" font-stretch="normal" font-size="41" text-anchor="start" direction="ltr" writing-mode="lr-tb" unicode-bidi="normal" text-decoration="none" transform="matrix(1 0 0 1 460.498 2126)">8</text></g><path d="M1281.5 1686.92 1398.58 1686.92 1398.58 1696.08 1281.5 1696.08ZM1394 1677.75 1421.5 1691.5 1394 1705.25Z" fill="#5662D5" fill-rule="nonzero" fill-opacity="1"/><path d="M1502.59 1425.23 1579.02 1425.23 1579.02 1547.86 1502.59 1547.86Z" fill="#5662D5" fill-rule="evenodd" fill-opacity="1"/><path d="M1579.02 1425.23 1701.92 1425.23 1701.92 1547.86 1579.02 1547.86Z" fill="#5662D5" fill-rule="evenodd" fill-opacity="1"/><path d="M1701.92 1425.23 1824.81 1425.23 1824.81 1547.86 1701.92 1547.86Z" fill="#5662D5" fill-rule="evenodd" fill-opacity="1"/><path d="M1824.81 1425.23 1947.71 1425.23 1947.71 1547.86 1824.81 1547.86Z" fill="#5662D5" fill-rule="evenodd" fill-opacity="1"/><path d="M1947.71 1425.23 2029.92 1425.23 2029.92 1547.86 1947.71 1547.86Z" fill="#5662D5" fill-rule="evenodd" fill-opacity="1"/><path d="M1502.59 1547.86 1579.02 1547.86 1579.02 1623.98 1502.59 1623.98Z" fill="#D1D3EF" fill-rule="evenodd" fill-opacity="1"/><path d="M1579.02 1547.86 1701.92 1547.86 1701.92 1623.98 1579.02 1623.98Z" fill="#D1D3EF" fill-rule="evenodd" fill-opacity="1"/><path d="M1701.92 1547.86 1824.81 1547.86 1824.81 1623.98 1701.92 1623.98Z" fill="#D1D3EF" fill-rule="evenodd" fill-opacity="1"/><path d="M1824.81 1547.86 1947.71 1547.86 1947.71 1623.98 1824.81 1623.98Z" fill="#D1D3EF" fill-rule="evenodd" fill-opacity="1"/><path d="M1947.71 1547.86 2029.92 1547.86 2029.92 1623.98 1947.71 1623.98Z" fill="#D1D3EF" fill-rule="evenodd" fill-opacity="1"/><path d="M1502.59 1623.98 1579.02 1623.98 1579.02 1700.1 1502.59 1700.1Z" fill="#E9EAF7" fill-rule="evenodd" fill-opacity="1"/><path d="M1579.02 1623.98 1701.92 1623.98 1701.92 1700.1 1579.02 1700.1Z" fill="#E9EAF7" fill-rule="evenodd" fill-opacity="1"/><path d="M1701.92 1623.98 1824.81 1623.98 1824.81 1700.1 1701.92 1700.1Z" fill="#E9EAF7" fill-rule="evenodd" fill-opacity="1"/><path d="M1824.81 1623.98 1947.71 1623.98 1947.71 1700.1 1824.81 1700.1Z" fill="#E9EAF7" fill-rule="evenodd" fill-opacity="1"/><path d="M1947.71 1623.98 2029.92 1623.98 2029.92 1700.1 1947.71 1700.1Z" fill="#E9EAF7" fill-rule="evenodd" fill-opacity="1"/><path d="M1502.59 1700.1 1579.02 1700.1 1579.02 1776.21 1502.59 1776.21Z" fill="#D1D3EF" fill-rule="evenodd" fill-opacity="1"/><path d="M1579.02 1700.1 1701.92 1700.1 1701.92 1776.21 1579.02 1776.21Z" fill="#D1D3EF" fill-rule="evenodd" fill-opacity="1"/><path d="M1701.92 1700.1 1824.81 1700.1 1824.81 1776.21 1701.92 1776.21Z" fill="#D1D3EF" fill-rule="evenodd" fill-opacity="1"/><path d="M1824.81 1700.1 1947.71 1700.1 1947.71 1776.21 1824.81 1776.21Z" fill="#D1D3EF" fill-rule="evenodd" fill-opacity="1"/><path d="M1947.71 1700.1 2029.92 1700.1 2029.92 1776.21 1947.71 1776.21Z" fill="#D1D3EF" fill-rule="evenodd" fill-opacity="1"/><path d="M1502.59 1776.21 1579.02 1776.21 1579.02 1852.33 1502.59 1852.33Z" fill="#E9EAF7" fill-rule="evenodd" fill-opacity="1"/><path d="M1579.02 1776.21 1701.92 1776.21 1701.92 1852.33 1579.02 1852.33Z" fill="#E9EAF7" fill-rule="evenodd" fill-opacity="1"/><path d="M1701.92 1776.21 1824.81 1776.21 1824.81 1852.33 1701.92 1852.33Z" fill="#E9EAF7" fill-rule="evenodd" fill-opacity="1"/><path d="M1824.81 1776.21 1947.71 1776.21 1947.71 1852.33 1824.81 1852.33Z" fill="#E9EAF7" fill-rule="evenodd" fill-opacity="1"/><path d="M1947.71 1776.21 2029.92 1776.21 2029.92 1852.33 1947.71 1852.33Z" fill="#E9EAF7" fill-rule="evenodd" fill-opacity="1"/><path d="M1502.59 1852.33 1579.02 1852.33 1579.02 1928.44 1502.59 1928.44Z" fill="#D1D3EF" fill-rule="evenodd" fill-opacity="1"/><path d="M1579.02 1852.33 1701.92 1852.33 1701.92 1928.44 1579.02 1928.44Z" fill="#D1D3EF" fill-rule="evenodd" fill-opacity="1"/><path d="M1701.92 1852.33 1824.81 1852.33 1824.81 1928.44 1701.92 1928.44Z" fill="#D1D3EF" fill-rule="evenodd" fill-opacity="1"/><path d="M1824.81 1852.33 1947.71 1852.33 1947.71 1928.44 1824.81 1928.44Z" fill="#D1D3EF" fill-rule="evenodd" fill-opacity="1"/><path d="M1947.71 1852.33 2029.92 1852.33 2029.92 1928.44 1947.71 1928.44Z" fill="#D1D3EF" fill-rule="evenodd" fill-opacity="1"/><path d="M1502.59 1928.44 1579.02 1928.44 1579.02 2004.56 1502.59 2004.56Z" fill="#E9EAF7" fill-rule="evenodd" fill-opacity="1"/><path d="M1579.02 1928.44 1701.92 1928.44 1701.92 2004.56 1579.02 2004.56Z" fill="#E9EAF7" fill-rule="evenodd" fill-opacity="1"/><path d="M1701.92 1928.44 1824.81 1928.44 1824.81 2004.56 1701.92 2004.56Z" fill="#E9EAF7" fill-rule="evenodd" fill-opacity="1"/><path d="M1824.81 1928.44 1947.71 1928.44 1947.71 2004.56 1824.81 2004.56Z" fill="#E9EAF7" fill-rule="evenodd" fill-opacity="1"/><path d="M1947.71 1928.44 2029.92 1928.44 2029.92 2004.56 1947.71 2004.56Z" fill="#E9EAF7" fill-rule="evenodd" fill-opacity="1"/><path d="M1502.59 2004.56 1579.02 2004.56 1579.02 2080.67 1502.59 2080.67Z" fill="#D1D3EF" fill-rule="evenodd" fill-opacity="1"/><path d="M1579.02 2004.56 1701.92 2004.56 1701.92 2080.67 1579.02 2080.67Z" fill="#D1D3EF" fill-rule="evenodd" fill-opacity="1"/><path d="M1701.92 2004.56 1824.81 2004.56 1824.81 2080.67 1701.92 2080.67Z" fill="#D1D3EF" fill-rule="evenodd" fill-opacity="1"/><path d="M1824.81 2004.56 1947.71 2004.56 1947.71 2080.67 1824.81 2080.67Z" fill="#D1D3EF" fill-rule="evenodd" fill-opacity="1"/><path d="M1947.71 2004.56 2029.92 2004.56 2029.92 2080.67 1947.71 2080.67Z" fill="#D1D3EF" fill-rule="evenodd" fill-opacity="1"/><path d="M1502.59 2080.67 1579.02 2080.67 1579.02 2156.79 1502.59 2156.79Z" fill="#E9EAF7" fill-rule="evenodd" fill-opacity="1"/><path d="M1579.02 2080.67 1701.92 2080.67 1701.92 2156.79 1579.02 2156.79Z" fill="#E9EAF7" fill-rule="evenodd" fill-opacity="1"/><path d="M1701.92 2080.67 1824.81 2080.67 1824.81 2156.79 1701.92 2156.79Z" fill="#E9EAF7" fill-rule="evenodd" fill-opacity="1"/><path d="M1824.81 2080.67 1947.71 2080.67 1947.71 2156.79 1824.81 2156.79Z" fill="#E9EAF7" fill-rule="evenodd" fill-opacity="1"/><path d="M1947.71 2080.67 2029.92 2080.67 2029.92 2156.79 1947.71 2156.79Z" fill="#E9EAF7" fill-rule="evenodd" fill-opacity="1"/><path d="M1579.02 1422.94 1579.02 2159.08" stroke="#FFFFFF" stroke-width="4.58333" stroke-linecap="butt" stroke-linejoin="round" stroke-miterlimit="10" stroke-opacity="1" fill="none" fill-rule="evenodd"/><path d="M1701.92 1422.94 1701.92 2159.08" stroke="#FFFFFF" stroke-width="4.58333" stroke-linecap="butt" stroke-linejoin="round" stroke-miterlimit="10" stroke-opacity="1" fill="none" fill-rule="evenodd"/><path d="M1824.81 1422.94 1824.81 2159.08" stroke="#FFFFFF" stroke-width="4.58333" stroke-linecap="butt" stroke-linejoin="round" stroke-miterlimit="10" stroke-opacity="1" fill="none" fill-rule="evenodd"/><path d="M1947.71 1422.94 1947.71 2159.08" stroke="#FFFFFF" stroke-width="4.58333" stroke-linecap="butt" stroke-linejoin="round" stroke-miterlimit="10" stroke-opacity="1" fill="none" fill-rule="evenodd"/><path d="M1500.3 1547.86 2032.22 1547.86" stroke="#FFFFFF" stroke-width="13.75" stroke-linecap="butt" stroke-linejoin="round" stroke-miterlimit="10" stroke-opacity="1" fill="none" fill-rule="evenodd"/><path d="M1500.3 1623.98 2032.22 1623.98" stroke="#FFFFFF" stroke-width="4.58333" stroke-linecap="butt" stroke-linejoin="round" stroke-miterlimit="10" stroke-opacity="1" fill="none" fill-rule="evenodd"/><path d="M1500.3 1700.1 2032.22 1700.1" stroke="#FFFFFF" stroke-width="4.58333" stroke-linecap="butt" stroke-linejoin="round" stroke-miterlimit="10" stroke-opacity="1" fill="none" fill-rule="evenodd"/><path d="M1500.3 1776.21 2032.22 1776.21" stroke="#FFFFFF" stroke-width="4.58333" stroke-linecap="butt" stroke-linejoin="round" stroke-miterlimit="10" stroke-opacity="1" fill="none" fill-rule="evenodd"/><path d="M1500.3 1852.33 2032.22 1852.33" stroke="#FFFFFF" stroke-width="4.58333" stroke-linecap="butt" stroke-linejoin="round" stroke-miterlimit="10" stroke-opacity="1" fill="none" fill-rule="evenodd"/><path d="M1500.3 1928.44 2032.22 1928.44" stroke="#FFFFFF" stroke-width="4.58333" stroke-linecap="butt" stroke-linejoin="round" stroke-miterlimit="10" stroke-opacity="1" fill="none" fill-rule="evenodd"/><path d="M1500.3 2004.56 2032.22 2004.56" stroke="#FFFFFF" stroke-width="4.58333" stroke-linecap="butt" stroke-linejoin="round" stroke-miterlimit="10" stroke-opacity="1" fill="none" fill-rule="evenodd"/><path d="M1500.3 2080.67 2032.22 2080.67" stroke="#FFFFFF" stroke-width="4.58333" stroke-linecap="butt" stroke-linejoin="round" stroke-miterlimit="10" stroke-opacity="1" fill="none" fill-rule="evenodd"/><path d="M1502.59 1422.94 1502.59 2159.08" stroke="#FFFFFF" stroke-width="4.58333" stroke-linecap="butt" stroke-linejoin="round" stroke-miterlimit="10" stroke-opacity="1" fill="none" fill-rule="evenodd"/><path d="M2029.92 1422.94 2029.92 2159.08" stroke="#FFFFFF" stroke-width="4.58333" stroke-linecap="butt" stroke-linejoin="round" stroke-miterlimit="10" stroke-opacity="1" fill="none" fill-rule="evenodd"/><path d="M1500.3 1425.23 2032.22 1425.23" stroke="#FFFFFF" stroke-width="4.58333" stroke-linecap="butt" stroke-linejoin="round" stroke-miterlimit="10" stroke-opacity="1" fill="none" fill-rule="evenodd"/><path d="M1500.3 2156.79 2032.22 2156.79" stroke="#FFFFFF" stroke-width="4.58333" stroke-linecap="butt" stroke-linejoin="round" stroke-miterlimit="10" stroke-opacity="1" fill="none" fill-rule="evenodd"/><g><text fill="#FFFFFF" fill-opacity="1" font-family="Corbel,Corbel_MSFontService,sans-serif" font-style="normal" font-variant="normal" font-weight="700" font-stretch="normal" font-size="41" text-anchor="start" direction="ltr" writing-mode="lr-tb" unicode-bidi="normal" text-decoration="none" transform="matrix(1 0 0 1 1971.34 1476)">Y</text></g><g><text fill="#FFFFFF" fill-opacity="1" font-family="Corbel,Corbel_MSFontService,sans-serif" font-style="normal" font-variant="normal" font-weight="700" font-stretch="normal" font-size="41" text-anchor="start" direction="ltr" writing-mode="lr-tb" unicode-bidi="normal" text-decoration="none" transform="matrix(1 0 0 1 1848.45 1476)">Z=3</text></g><g><text fill="#FFFFFF" fill-opacity="1" font-family="Corbel,Corbel_MSFontService,sans-serif" font-style="normal" font-variant="normal" font-weight="700" font-stretch="normal" font-size="41" text-anchor="start" direction="ltr" writing-mode="lr-tb" unicode-bidi="normal" text-decoration="none" transform="matrix(1 0 0 1 1725.55 1476)">Z=2</text></g><g><text fill="#FFFFFF" fill-opacity="1" font-family="Corbel,Corbel_MSFontService,sans-serif" font-style="normal" font-variant="normal" font-weight="700" font-stretch="normal" font-size="41" text-anchor="start" direction="ltr" writing-mode="lr-tb" unicode-bidi="normal" text-decoration="none" transform="matrix(1 0 0 1 1602.65 1476)">Z=1</text></g><text fill="#242225" fill-opacity="1" font-family="Corbel,Corbel_MSFontService,sans-serif" font-style="normal" font-variant="normal" font-weight="400" font-stretch="normal" font-size="41" text-anchor="start" direction="ltr" writing-mode="lr-tb" unicode-bidi="normal" text-decoration="none" transform="matrix(1 0 0 1 1979.65 1599)">1</text><g><text fill="#242225" fill-opacity="1" font-family="Corbel,Corbel_MSFontService,sans-serif" font-style="normal" font-variant="normal" font-weight="400" font-stretch="normal" font-size="41" text-anchor="start" direction="ltr" writing-mode="lr-tb" unicode-bidi="normal" text-decoration="none" transform="matrix(1 0 0 1 1848.45 1599)">0.1</text></g><g><text fill="#242225" fill-opacity="1" font-family="Corbel,Corbel_MSFontService,sans-serif" font-style="normal" font-variant="normal" font-weight="400" font-stretch="normal" font-size="41" text-anchor="start" direction="ltr" writing-mode="lr-tb" unicode-bidi="normal" text-decoration="none" transform="matrix(1 0 0 1 1725.55 1599)">0.2</text></g><g><text fill="#242225" fill-opacity="1" font-family="Corbel,Corbel_MSFontService,sans-serif" font-style="normal" font-variant="normal" font-weight="400" font-stretch="normal" font-size="41" text-anchor="start" direction="ltr" writing-mode="lr-tb" unicode-bidi="normal" text-decoration="none" transform="matrix(1 0 0 1 1602.65 1599)">0.1</text></g><g><text fill="#242225" fill-opacity="1" font-family="Corbel,Corbel_MSFontService,sans-serif" font-style="normal" font-variant="normal" font-weight="400" font-stretch="normal" font-size="41" text-anchor="start" direction="ltr" writing-mode="lr-tb" unicode-bidi="normal" text-decoration="none" transform="matrix(1 0 0 1 1526.22 1599)">1</text></g><text fill="#242225" fill-opacity="1" font-family="Corbel,Corbel_MSFontService,sans-serif" font-style="normal" font-variant="normal" font-weight="400" font-stretch="normal" font-size="41" text-anchor="start" direction="ltr" writing-mode="lr-tb" unicode-bidi="normal" text-decoration="none" transform="matrix(1 0 0 1 1979.65 1675)">1</text><g><text fill="#242225" fill-opacity="1" font-family="Corbel,Corbel_MSFontService,sans-serif" font-style="normal" font-variant="normal" font-weight="400" font-stretch="normal" font-size="41" text-anchor="start" direction="ltr" writing-mode="lr-tb" unicode-bidi="normal" text-decoration="none" transform="matrix(1 0 0 1 1848.45 1675)">0.6</text></g><g><text fill="#242225" fill-opacity="1" font-family="Corbel,Corbel_MSFontService,sans-serif" font-style="normal" font-variant="normal" font-weight="400" font-stretch="normal" font-size="41" text-anchor="start" direction="ltr" writing-mode="lr-tb" unicode-bidi="normal" text-decoration="none" transform="matrix(1 0 0 1 1725.55 1675)">0.4</text></g><g><text fill="#242225" fill-opacity="1" font-family="Corbel,Corbel_MSFontService,sans-serif" font-style="normal" font-variant="normal" font-weight="400" font-stretch="normal" font-size="41" text-anchor="start" direction="ltr" writing-mode="lr-tb" unicode-bidi="normal" text-decoration="none" transform="matrix(1 0 0 1 1602.65 1675)">0.7</text></g><g><text fill="#242225" fill-opacity="1" font-family="Corbel,Corbel_MSFontService,sans-serif" font-style="normal" font-variant="normal" font-weight="400" font-stretch="normal" font-size="41" text-anchor="start" direction="ltr" writing-mode="lr-tb" unicode-bidi="normal" text-decoration="none" transform="matrix(1 0 0 1 1526.22 1675)">2</text></g><text fill="#242225" fill-opacity="1" font-family="Corbel,Corbel_MSFontService,sans-serif" font-style="normal" font-variant="normal" font-weight="400" font-stretch="normal" font-size="41" text-anchor="start" direction="ltr" writing-mode="lr-tb" unicode-bidi="normal" text-decoration="none" transform="matrix(1 0 0 1 1978.22 1751)">0</text><g><text fill="#242225" fill-opacity="1" font-family="Corbel,Corbel_MSFontService,sans-serif" font-style="normal" font-variant="normal" font-weight="400" font-stretch="normal" font-size="41" text-anchor="start" direction="ltr" writing-mode="lr-tb" unicode-bidi="normal" text-decoration="none" transform="matrix(1 0 0 1 1848.45 1751)">0.1</text></g><g><text fill="#242225" fill-opacity="1" font-family="Corbel,Corbel_MSFontService,sans-serif" font-style="normal" font-variant="normal" font-weight="400" font-stretch="normal" font-size="41" text-anchor="start" direction="ltr" writing-mode="lr-tb" unicode-bidi="normal" text-decoration="none" transform="matrix(1 0 0 1 1725.55 1751)">0.3</text></g><g><text fill="#242225" fill-opacity="1" font-family="Corbel,Corbel_MSFontService,sans-serif" font-style="normal" font-variant="normal" font-weight="400" font-stretch="normal" font-size="41" text-anchor="start" direction="ltr" writing-mode="lr-tb" unicode-bidi="normal" text-decoration="none" transform="matrix(1 0 0 1 1602.65 1751)">0.8</text></g><g><text fill="#242225" fill-opacity="1" font-family="Corbel,Corbel_MSFontService,sans-serif" font-style="normal" font-variant="normal" font-weight="400" font-stretch="normal" font-size="41" text-anchor="start" direction="ltr" writing-mode="lr-tb" unicode-bidi="normal" text-decoration="none" transform="matrix(1 0 0 1 1526.22 1751)">3</text></g><text fill="#242225" fill-opacity="1" font-family="Corbel,Corbel_MSFontService,sans-serif" font-style="normal" font-variant="normal" font-weight="400" font-stretch="normal" font-size="41" text-anchor="start" direction="ltr" writing-mode="lr-tb" unicode-bidi="normal" text-decoration="none" transform="matrix(1 0 0 1 1978.22 1827)">0</text><g><text fill="#242225" fill-opacity="1" font-family="Corbel,Corbel_MSFontService,sans-serif" font-style="normal" font-variant="normal" font-weight="400" font-stretch="normal" font-size="41" text-anchor="start" direction="ltr" writing-mode="lr-tb" unicode-bidi="normal" text-decoration="none" transform="matrix(1 0 0 1 1848.45 1827)">0.1</text></g><g><text fill="#242225" fill-opacity="1" font-family="Corbel,Corbel_MSFontService,sans-serif" font-style="normal" font-variant="normal" font-weight="400" font-stretch="normal" font-size="41" text-anchor="start" direction="ltr" writing-mode="lr-tb" unicode-bidi="normal" text-decoration="none" transform="matrix(1 0 0 1 1725.55 1827)">0.2</text></g><g><text fill="#242225" fill-opacity="1" font-family="Corbel,Corbel_MSFontService,sans-serif" font-style="normal" font-variant="normal" font-weight="400" font-stretch="normal" font-size="41" text-anchor="start" direction="ltr" writing-mode="lr-tb" unicode-bidi="normal" text-decoration="none" transform="matrix(1 0 0 1 1602.65 1827)">0.2</text></g><g><text fill="#242225" fill-opacity="1" font-family="Corbel,Corbel_MSFontService,sans-serif" font-style="normal" font-variant="normal" font-weight="400" font-stretch="normal" font-size="41" text-anchor="start" direction="ltr" writing-mode="lr-tb" unicode-bidi="normal" text-decoration="none" transform="matrix(1 0 0 1 1526.22 1827)">4</text></g><text fill="#242225" fill-opacity="1" font-family="Corbel,Corbel_MSFontService,sans-serif" font-style="normal" font-variant="normal" font-weight="400" font-stretch="normal" font-size="41" text-anchor="start" direction="ltr" writing-mode="lr-tb" unicode-bidi="normal" text-decoration="none" transform="matrix(1 0 0 1 1978.22 1903)">0</text><g><text fill="#242225" fill-opacity="1" font-family="Corbel,Corbel_MSFontService,sans-serif" font-style="normal" font-variant="normal" font-weight="400" font-stretch="normal" font-size="41" text-anchor="start" direction="ltr" writing-mode="lr-tb" unicode-bidi="normal" text-decoration="none" transform="matrix(1 0 0 1 1848.45 1903)">0.6</text></g><g><text fill="#242225" fill-opacity="1" font-family="Corbel,Corbel_MSFontService,sans-serif" font-style="normal" font-variant="normal" font-weight="400" font-stretch="normal" font-size="41" text-anchor="start" direction="ltr" writing-mode="lr-tb" unicode-bidi="normal" text-decoration="none" transform="matrix(1 0 0 1 1725.55 1903)">0.9</text></g><g><text fill="#242225" fill-opacity="1" font-family="Corbel,Corbel_MSFontService,sans-serif" font-style="normal" font-variant="normal" font-weight="400" font-stretch="normal" font-size="41" text-anchor="start" direction="ltr" writing-mode="lr-tb" unicode-bidi="normal" text-decoration="none" transform="matrix(1 0 0 1 1602.65 1903)">0.5</text></g><g><text fill="#242225" fill-opacity="1" font-family="Corbel,Corbel_MSFontService,sans-serif" font-style="normal" font-variant="normal" font-weight="400" font-stretch="normal" font-size="41" text-anchor="start" direction="ltr" writing-mode="lr-tb" unicode-bidi="normal" text-decoration="none" transform="matrix(1 0 0 1 1526.22 1903)">5</text></g><text fill="#242225" fill-opacity="1" font-family="Corbel,Corbel_MSFontService,sans-serif" font-style="normal" font-variant="normal" font-weight="400" font-stretch="normal" font-size="41" text-anchor="start" direction="ltr" writing-mode="lr-tb" unicode-bidi="normal" text-decoration="none" transform="matrix(1 0 0 1 1978.22 1979)">0</text><g><text fill="#242225" fill-opacity="1" font-family="Corbel,Corbel_MSFontService,sans-serif" font-style="normal" font-variant="normal" font-weight="400" font-stretch="normal" font-size="41" text-anchor="start" direction="ltr" writing-mode="lr-tb" unicode-bidi="normal" text-decoration="none" transform="matrix(1 0 0 1 1848.45 1979)">0.4</text></g><g><text fill="#242225" fill-opacity="1" font-family="Corbel,Corbel_MSFontService,sans-serif" font-style="normal" font-variant="normal" font-weight="400" font-stretch="normal" font-size="41" text-anchor="start" direction="ltr" writing-mode="lr-tb" unicode-bidi="normal" text-decoration="none" transform="matrix(1 0 0 1 1725.55 1979)">0.9</text></g><g><text fill="#242225" fill-opacity="1" font-family="Corbel,Corbel_MSFontService,sans-serif" font-style="normal" font-variant="normal" font-weight="400" font-stretch="normal" font-size="41" text-anchor="start" direction="ltr" writing-mode="lr-tb" unicode-bidi="normal" text-decoration="none" transform="matrix(1 0 0 1 1602.65 1979)">0.1</text></g><g><text fill="#242225" fill-opacity="1" font-family="Corbel,Corbel_MSFontService,sans-serif" font-style="normal" font-variant="normal" font-weight="400" font-stretch="normal" font-size="41" text-anchor="start" direction="ltr" writing-mode="lr-tb" unicode-bidi="normal" text-decoration="none" transform="matrix(1 0 0 1 1526.22 1979)">6</text></g><text fill="#242225" fill-opacity="1" font-family="Corbel,Corbel_MSFontService,sans-serif" font-style="normal" font-variant="normal" font-weight="400" font-stretch="normal" font-size="41" text-anchor="start" direction="ltr" writing-mode="lr-tb" unicode-bidi="normal" text-decoration="none" transform="matrix(1 0 0 1 1979.65 2055)">1</text><g><text fill="#242225" fill-opacity="1" font-family="Corbel,Corbel_MSFontService,sans-serif" font-style="normal" font-variant="normal" font-weight="400" font-stretch="normal" font-size="41" text-anchor="start" direction="ltr" writing-mode="lr-tb" unicode-bidi="normal" text-decoration="none" transform="matrix(1 0 0 1 1848.45 2055)">0.2</text></g><g><text fill="#242225" fill-opacity="1" font-family="Corbel,Corbel_MSFontService,sans-serif" font-style="normal" font-variant="normal" font-weight="400" font-stretch="normal" font-size="41" text-anchor="start" direction="ltr" writing-mode="lr-tb" unicode-bidi="normal" text-decoration="none" transform="matrix(1 0 0 1 1725.55 2055)">0.7</text></g><g><text fill="#242225" fill-opacity="1" font-family="Corbel,Corbel_MSFontService,sans-serif" font-style="normal" font-variant="normal" font-weight="400" font-stretch="normal" font-size="41" text-anchor="start" direction="ltr" writing-mode="lr-tb" unicode-bidi="normal" text-decoration="none" transform="matrix(1 0 0 1 1602.65 2055)">0.1</text></g><g><text fill="#242225" fill-opacity="1" font-family="Corbel,Corbel_MSFontService,sans-serif" font-style="normal" font-variant="normal" font-weight="400" font-stretch="normal" font-size="41" text-anchor="start" direction="ltr" writing-mode="lr-tb" unicode-bidi="normal" text-decoration="none" transform="matrix(1 0 0 1 1526.22 2055)">7</text></g><text fill="#242225" fill-opacity="1" font-family="Corbel,Corbel_MSFontService,sans-serif" font-style="normal" font-variant="normal" font-weight="400" font-stretch="normal" font-size="41" text-anchor="start" direction="ltr" writing-mode="lr-tb" unicode-bidi="normal" text-decoration="none" transform="matrix(1 0 0 1 1979.65 2131)">1</text><g><text fill="#242225" fill-opacity="1" font-family="Corbel,Corbel_MSFontService,sans-serif" font-style="normal" font-variant="normal" font-weight="400" font-stretch="normal" font-size="41" text-anchor="start" direction="ltr" writing-mode="lr-tb" unicode-bidi="normal" text-decoration="none" transform="matrix(1 0 0 1 1848.45 2131)">0.2</text></g><g><text fill="#242225" fill-opacity="1" font-family="Corbel,Corbel_MSFontService,sans-serif" font-style="normal" font-variant="normal" font-weight="400" font-stretch="normal" font-size="41" text-anchor="start" direction="ltr" writing-mode="lr-tb" unicode-bidi="normal" text-decoration="none" transform="matrix(1 0 0 1 1725.55 2131)">0.1</text></g><g><text fill="#242225" fill-opacity="1" font-family="Corbel,Corbel_MSFontService,sans-serif" font-style="normal" font-variant="normal" font-weight="400" font-stretch="normal" font-size="41" text-anchor="start" direction="ltr" writing-mode="lr-tb" unicode-bidi="normal" text-decoration="none" transform="matrix(1 0 0 1 1602.65 2131)">0.9</text></g><g><text fill="#242225" fill-opacity="1" font-family="Corbel,Corbel_MSFontService,sans-serif" font-style="normal" font-variant="normal" font-weight="400" font-stretch="normal" font-size="41" text-anchor="start" direction="ltr" writing-mode="lr-tb" unicode-bidi="normal" text-decoration="none" transform="matrix(1 0 0 1 1526.22 2131)">8</text></g></g></g></svg>