<svg width="1063" height="876" xmlns="http://www.w3.org/2000/svg" xmlns:xlink="http://www.w3.org/1999/xlink" xml:space="preserve" overflow="hidden"><g transform="translate(-2814 -838)"><g><path d="M3020 1228C3102.5 1228 3185 1305.86 3185 1383.72" stroke="#3C3C3C" stroke-width="5.72917" stroke-linecap="butt" stroke-linejoin="miter" stroke-miterlimit="8" stroke-opacity="1" fill="none" fill-rule="evenodd"/><path d="M3056 954C3056 944.059 3064.06 936 3074 936 3083.94 936 3092 944.059 3092 954 3092 963.941 3083.94 972 3074 972 3064.06 972 3056 963.941 3056 954Z" fill="#5662D5" fill-rule="evenodd" fill-opacity="0.2"/><path d="M3181 857.5C3181 847.283 3189.28 839 3199.5 839 3209.72 839 3218 847.283 3218 857.5 3218 867.717 3209.72 876 3199.5 876 3189.28 876 3181 867.717 3181 857.5Z" fill="#5662D5" fill-rule="evenodd" fill-opacity="0.2"/><path d="M3224 996.5C3224 986.283 3232.06 978 3242 978 3251.94 978 3260 986.283 3260 996.5 3260 1006.72 3251.94 1015 3242 1015 3232.06 1015 3224 1006.72 3224 996.5Z" fill="#5662D5" fill-rule="evenodd" fill-opacity="0.2"/><path d="M3098 1082.5C3098 1072.28 3106.28 1064 3116.5 1064 3126.72 1064 3135 1072.28 3135 1082.5 3135 1092.72 3126.72 1101 3116.5 1101 3106.28 1101 3098 1092.72 3098 1082.5Z" fill="#5662D5" fill-rule="evenodd" fill-opacity="0.2"/><path d="M3137 954.5C3137 944.283 3145.06 936 3155 936 3164.94 936 3173 944.283 3173 954.5 3173 964.717 3164.94 973 3155 973 3145.06 973 3137 964.717 3137 954.5Z" fill="#5662D5" fill-rule="evenodd" fill-opacity="0.2"/><path d="M3143 1031.5C3143 1021.28 3151.28 1013 3161.5 1013 3171.72 1013 3180 1021.28 3180 1031.5 3180 1041.72 3171.72 1050 3161.5 1050 3151.28 1050 3143 1041.72 3143 1031.5Z" fill="#5662D5" fill-rule="evenodd" fill-opacity="0.2"/><path d="M3342 1121.5C3342 1111.28 3350.06 1103 3360 1103 3369.94 1103 3378 1111.28 3378 1121.5 3378 1131.72 3369.94 1140 3360 1140 3350.06 1140 3342 1131.72 3342 1121.5Z" fill="#5662D5" fill-rule="evenodd" fill-opacity="0.2"/><path d="M2992 1181.5C2992 1171.28 3000.28 1163 3010.5 1163 3020.72 1163 3029 1171.28 3029 1181.5 3029 1191.72 3020.72 1200 3010.5 1200 3000.28 1200 2992 1191.72 2992 1181.5Z" fill="#5662D5" fill-rule="evenodd" fill-opacity="0.2"/><path d="M3510 990.5C3510 980.283 3518.28 972 3528.5 972 3538.72 972 3547 980.283 3547 990.5 3547 1000.72 3538.72 1009 3528.5 1009 3518.28 1009 3510 1000.72 3510 990.5Z" fill="#FDAC02" fill-rule="evenodd" fill-opacity="0.2"/><path d="M3660 1207.5C3660 1197.28 3668.28 1189 3678.5 1189 3688.72 1189 3697 1197.28 3697 1207.5 3697 1217.72 3688.72 1226 3678.5 1226 3668.28 1226 3660 1217.72 3660 1207.5Z" fill="#FDAC02" fill-rule="evenodd" fill-opacity="0.2"/><path d="M3513 1145.5C3513 1135.28 3521.06 1127 3531 1127 3540.94 1127 3549 1135.28 3549 1145.5 3549 1155.72 3540.94 1164 3531 1164 3521.06 1164 3513 1155.72 3513 1145.5Z" fill="#FDAC02" fill-rule="evenodd" fill-opacity="0.2"/><path d="M3733 1431.5C3733 1421.28 3741.06 1413 3751 1413 3760.94 1413 3769 1421.28 3769 1431.5 3769 1441.72 3760.94 1450 3751 1450 3741.06 1450 3733 1441.72 3733 1431.5Z" fill="#FDAC02" fill-rule="evenodd" fill-opacity="0.2"/><path d="M3226 1192.5C3226 1182.28 3234.06 1174 3244 1174 3253.94 1174 3262 1182.28 3262 1192.5 3262 1202.72 3253.94 1211 3244 1211 3234.06 1211 3226 1202.72 3226 1192.5Z" fill="#5662D5" fill-rule="evenodd" fill-opacity="0.2"/><path d="M3490 1269C3490 1259.06 3498.28 1251 3508.5 1251 3518.72 1251 3527 1259.06 3527 1269 3527 1278.94 3518.72 1287 3508.5 1287 3498.28 1287 3490 1278.94 3490 1269Z" fill="#FDAC02" fill-rule="evenodd" fill-opacity="0.2"/><path d="M3568 1200.5C3568 1190.28 3576.06 1182 3586 1182 3595.94 1182 3604 1190.28 3604 1200.5 3604 1210.72 3595.94 1219 3586 1219 3576.06 1219 3568 1210.72 3568 1200.5Z" fill="#FDAC02" fill-rule="evenodd" fill-opacity="0.2"/><path d="M3148 1107C3148 1097.06 3156.06 1089 3166 1089 3175.94 1089 3184 1097.06 3184 1107 3184 1116.94 3175.94 1125 3166 1125 3156.06 1125 3148 1116.94 3148 1107Z" fill="#5662D5" fill-rule="evenodd" fill-opacity="0.2"/><path d="M3245 1435C3245 1425.06 3253.28 1417 3263.5 1417 3273.72 1417 3282 1425.06 3282 1435 3282 1444.94 3273.72 1453 3263.5 1453 3253.28 1453 3245 1444.94 3245 1435Z" fill="#DB483A" fill-rule="evenodd" fill-opacity="0.2"/><path d="M3493 1362C3493 1352.06 3501.06 1344 3511 1344 3520.94 1344 3529 1352.06 3529 1362 3529 1371.94 3520.94 1380 3511 1380 3501.06 1380 3493 1371.94 3493 1362Z" fill="#FDAC02" fill-rule="evenodd" fill-opacity="0.2"/><path d="M3615 1321.5C3615 1311.28 3623.28 1303 3633.5 1303 3643.72 1303 3652 1311.28 3652 1321.5 3652 1331.72 3643.72 1340 3633.5 1340 3623.28 1340 3615 1331.72 3615 1321.5Z" fill="#FDAC02" fill-rule="evenodd" fill-opacity="0.2"/><path d="M3567 1496C3567 1486.06 3575.06 1478 3585 1478 3594.94 1478 3603 1486.06 3603 1496 3603 1505.94 3594.94 1514 3585 1514 3575.06 1514 3567 1505.94 3567 1496Z" fill="#FDAC02" fill-rule="evenodd" fill-opacity="0.2"/><path d="M3795 1353C3795 1343.06 3803.28 1335 3813.5 1335 3823.72 1335 3832 1343.06 3832 1353 3832 1362.94 3823.72 1371 3813.5 1371 3803.28 1371 3795 1362.94 3795 1353Z" fill="#FDAC02" fill-rule="evenodd" fill-opacity="0.2"/><path d="M2845 1343C2845 1333.06 2853.06 1325 2863 1325 2872.94 1325 2881 1333.06 2881 1343 2881 1352.94 2872.94 1361 2863 1361 2853.06 1361 2845 1352.94 2845 1343Z" fill="#5662D5" fill-rule="evenodd" fill-opacity="0.2"/><path d="M3038 1528C3038 1518.06 3046.06 1510 3056 1510 3065.94 1510 3074 1518.06 3074 1528 3074 1537.94 3065.94 1546 3056 1546 3046.06 1546 3038 1537.94 3038 1528Z" fill="#DB483A" fill-rule="evenodd" fill-opacity="0.2"/><path d="M2945 1093.5C2945 1083.28 2953.28 1075 2963.5 1075 2973.72 1075 2982 1083.28 2982 1093.5 2982 1103.72 2973.72 1112 2963.5 1112 2953.28 1112 2945 1103.72 2945 1093.5Z" fill="#5662D5" fill-rule="evenodd" fill-opacity="0.2"/><path d="M3078 1437C3078 1427.06 3086.28 1419 3096.5 1419 3106.72 1419 3115 1427.06 3115 1437 3115 1446.94 3106.72 1455 3096.5 1455 3086.28 1455 3078 1446.94 3078 1437Z" fill="#DB483A" fill-rule="evenodd" fill-opacity="0.2"/><path d="M3133 1492C3133 1482.06 3141.28 1474 3151.5 1474 3161.72 1474 3170 1482.06 3170 1492 3170 1501.94 3161.72 1510 3151.5 1510 3141.28 1510 3133 1501.94 3133 1492Z" fill="#DB483A" fill-rule="evenodd" fill-opacity="0.2"/><path d="M3771 1193C3771 1183.06 3779.28 1175 3789.5 1175 3799.72 1175 3808 1183.06 3808 1193 3808 1202.94 3799.72 1211 3789.5 1211 3779.28 1211 3771 1202.94 3771 1193Z" fill="#FDAC02" fill-rule="evenodd" fill-opacity="0.2"/><path d="M3571 1389C3571 1379.06 3579.28 1371 3589.5 1371 3599.72 1371 3608 1379.06 3608 1389 3608 1398.94 3599.72 1407 3589.5 1407 3579.28 1407 3571 1398.94 3571 1389Z" fill="#FDAC02" fill-rule="evenodd" fill-opacity="0.2"/><path d="M3740 1258C3740 1248.06 3748.06 1240 3758 1240 3767.94 1240 3776 1248.06 3776 1258 3776 1267.94 3767.94 1276 3758 1276 3748.06 1276 3740 1267.94 3740 1258Z" fill="#FDAC02" fill-rule="evenodd" fill-opacity="0.2"/><path d="M3687 1358.5C3687 1348.28 3695.28 1340 3705.5 1340 3715.72 1340 3724 1348.28 3724 1358.5 3724 1368.72 3715.72 1377 3705.5 1377 3695.28 1377 3687 1368.72 3687 1358.5Z" fill="#FDAC02" fill-rule="evenodd" fill-opacity="0.2"/><path d="M3838 1376.5C3838 1366.28 3846.06 1358 3856 1358 3865.94 1358 3874 1366.28 3874 1376.5 3874 1386.72 3865.94 1395 3856 1395 3846.06 1395 3838 1386.72 3838 1376.5Z" fill="#FDAC02" fill-rule="evenodd" fill-opacity="0.2"/><path d="M3330 1387.5C3330 1377.28 3338.28 1369 3348.5 1369 3358.72 1369 3367 1377.28 3367 1387.5 3367 1397.72 3358.72 1406 3348.5 1406 3338.28 1406 3330 1397.72 3330 1387.5Z" fill="#DB483A" fill-rule="evenodd" fill-opacity="0.2"/><path d="M3264 1625C3264 1615.06 3272.28 1607 3282.5 1607 3292.72 1607 3301 1615.06 3301 1625 3301 1634.94 3292.72 1643 3282.5 1643 3272.28 1643 3264 1634.94 3264 1625Z" fill="#DB483A" fill-rule="evenodd" fill-opacity="0.2"/><path d="M3665 1513.5C3665 1503.28 3673.28 1495 3683.5 1495 3693.72 1495 3702 1503.28 3702 1513.5 3702 1523.72 3693.72 1532 3683.5 1532 3673.28 1532 3665 1523.72 3665 1513.5Z" fill="#FDAC02" fill-rule="evenodd" fill-opacity="0.2"/><path d="M3613 1613.5C3613 1603.28 3621.06 1595 3631 1595 3640.94 1595 3649 1603.28 3649 1613.5 3649 1623.72 3640.94 1632 3631 1632 3621.06 1632 3613 1623.72 3613 1613.5Z" fill="#FDAC02" fill-rule="evenodd" fill-opacity="0.2"/><path d="M3668 1668.5C3668 1658.28 3676.06 1650 3686 1650 3695.94 1650 3704 1658.28 3704 1668.5 3704 1678.72 3695.94 1687 3686 1687 3676.06 1687 3668 1678.72 3668 1668.5Z" fill="#FDAC02" fill-rule="evenodd" fill-opacity="0.2"/><path d="M3097 1213.5C3097 1203.28 3105.06 1195 3115 1195 3124.94 1195 3133 1203.28 3133 1213.5 3133 1223.72 3124.94 1232 3115 1232 3105.06 1232 3097 1223.72 3097 1213.5Z" fill="#5662D5" fill-rule="evenodd" fill-opacity="0.2"/><path d="M2927 1577C2927 1567.06 2935.06 1559 2945 1559 2954.94 1559 2963 1567.06 2963 1577 2963 1586.94 2954.94 1595 2945 1595 2935.06 1595 2927 1586.94 2927 1577Z" fill="#DB483A" fill-rule="evenodd" fill-opacity="0.2"/><path d="M3163 1219.5C3163 1209.28 3171.28 1201 3181.5 1201 3191.72 1201 3200 1209.28 3200 1219.5 3200 1229.72 3191.72 1238 3181.5 1238 3171.28 1238 3163 1229.72 3163 1219.5Z" fill="#5662D5" fill-rule="evenodd" fill-opacity="0.2"/><path d="M2815 1165.5C2815 1155.28 2823.06 1147 2833 1147 2842.94 1147 2851 1155.28 2851 1165.5 2851 1175.72 2842.94 1184 2833 1184 2823.06 1184 2815 1175.72 2815 1165.5Z" fill="#5662D5" fill-rule="evenodd" fill-opacity="0.2"/><path d="M3164 1599C3164 1589.06 3172.28 1581 3182.5 1581 3192.72 1581 3201 1589.06 3201 1599 3201 1608.94 3192.72 1617 3182.5 1617 3172.28 1617 3164 1608.94 3164 1599Z" fill="#DB483A" fill-rule="evenodd" fill-opacity="0.2"/><path d="M3354 1526.5C3354 1516.28 3362.28 1508 3372.5 1508 3382.72 1508 3391 1516.28 3391 1526.5 3391 1536.72 3382.72 1545 3372.5 1545 3362.28 1545 3354 1536.72 3354 1526.5Z" fill="#DB483A" fill-rule="evenodd" fill-opacity="0.2"/><path d="M3243 1548.5C3243 1538.28 3251.06 1530 3261 1530 3270.94 1530 3279 1538.28 3279 1548.5 3279 1558.72 3270.94 1567 3261 1567 3251.06 1567 3243 1558.72 3243 1548.5Z" fill="#DB483A" fill-rule="evenodd" fill-opacity="0.2"/><path d="M3575 1693.5C3575 1683.28 3583.06 1675 3593 1675 3602.94 1675 3611 1683.28 3611 1693.5 3611 1703.72 3602.94 1712 3593 1712 3583.06 1712 3575 1703.72 3575 1693.5Z" fill="#FDAC02" fill-rule="evenodd" fill-opacity="0.2"/><path d="M3024 1059.5C3024 1049.28 3032.28 1041 3042.5 1041 3052.72 1041 3061 1049.28 3061 1059.5 3061 1069.72 3052.72 1078 3042.5 1078 3032.28 1078 3024 1069.72 3024 1059.5Z" fill="#5662D5" fill-rule="evenodd" fill-opacity="1"/><path d="M3597 1291.5C3597 1281.28 3605.06 1273 3615 1273 3624.94 1273 3633 1281.28 3633 1291.5 3633 1301.72 3624.94 1310 3615 1310 3605.06 1310 3597 1301.72 3597 1291.5Z" fill="#FDAC02" fill-rule="evenodd" fill-opacity="1"/><path d="M3173 1421.5C3173 1411.28 3181.06 1403 3191 1403 3200.94 1403 3209 1411.28 3209 1421.5 3209 1431.72 3200.94 1440 3191 1440 3181.06 1440 3173 1431.72 3173 1421.5Z" fill="#DB483A" fill-rule="evenodd" fill-opacity="1"/><text fill="#242225" fill-opacity="1" font-family="Cambria Math,Cambria Math_MSFontService,sans-serif" font-style="normal" font-variant="normal" font-weight="400" font-stretch="normal" font-size="55" text-anchor="start" direction="ltr" writing-mode="lr-tb" unicode-bidi="normal" text-decoration="none" transform="matrix(1 0 0 1 3059.87 1113)">𝑣</text><text fill="#242225" fill-opacity="1" font-family="Cambria Math,Cambria Math_MSFontService,sans-serif" font-style="normal" font-variant="normal" font-weight="400" font-stretch="normal" font-size="40" text-anchor="start" direction="ltr" writing-mode="lr-tb" unicode-bidi="normal" text-decoration="none" transform="matrix(1 0 0 1 3087.85 1125)">1</text><text fill="#242225" fill-opacity="1" font-family="Cambria Math,Cambria Math_MSFontService,sans-serif" font-style="normal" font-variant="normal" font-weight="400" font-stretch="normal" font-size="55" text-anchor="start" direction="ltr" writing-mode="lr-tb" unicode-bidi="normal" text-decoration="none" transform="matrix(1 0 0 1 3641.95 1341)">𝑣</text><text fill="#242225" fill-opacity="1" font-family="Cambria Math,Cambria Math_MSFontService,sans-serif" font-style="normal" font-variant="normal" font-weight="400" font-stretch="normal" font-size="40" text-anchor="start" direction="ltr" writing-mode="lr-tb" unicode-bidi="normal" text-decoration="none" transform="matrix(1 0 0 1 3671.21 1352)">3</text><text fill="#242225" fill-opacity="1" font-family="Cambria Math,Cambria Math_MSFontService,sans-serif" font-style="normal" font-variant="normal" font-weight="400" font-stretch="normal" font-size="55" text-anchor="start" direction="ltr" writing-mode="lr-tb" unicode-bidi="normal" text-decoration="none" transform="matrix(1 0 0 1 3214.55 1474)">𝑣</text><text fill="#242225" fill-opacity="1" font-family="Cambria Math,Cambria Math_MSFontService,sans-serif" font-style="normal" font-variant="normal" font-weight="400" font-stretch="normal" font-size="40" text-anchor="start" direction="ltr" writing-mode="lr-tb" unicode-bidi="normal" text-decoration="none" transform="matrix(1 0 0 1 3243.82 1485)">2</text><path d="M3319 928C3319 918.059 3327.28 910 3337.5 910 3347.72 910 3356 918.059 3356 928 3356 937.941 3347.72 946 3337.5 946 3327.28 946 3319 937.941 3319 928Z" fill="#242225" fill-rule="evenodd" fill-opacity="1"/><text fill="#242225" fill-opacity="1" font-family="Cambria Math,Cambria Math_MSFontService,sans-serif" font-style="normal" font-variant="normal" font-weight="400" font-stretch="normal" font-size="55" text-anchor="start" direction="ltr" writing-mode="lr-tb" unicode-bidi="normal" text-decoration="none" transform="matrix(1 0 0 1 3364.38 978)">𝑥</text><path d="M21.7624 7.5374 25.9225 9.46091 23.999 13.6211 19.8389 11.6976ZM30.0827 11.3844 34.2429 13.308 32.3194 17.4681 28.1592 15.5446ZM38.4031 15.2315 42.5632 17.155 40.6397 21.3152 36.4795 19.3916ZM46.7234 19.0785 50.8836 21.002 48.96 25.1622 44.7999 23.2387ZM55.0437 22.9255 59.2039 24.8491 57.2804 29.0092 53.1202 27.0857ZM63.3641 26.7726 67.5243 28.6961 65.6007 32.8563 61.4406 30.9327ZM71.6844 30.6196 75.8446 32.5431 73.9211 36.7033 69.7609 34.7798ZM80.0048 34.4666 84.1649 36.3902 82.2414 40.5503 78.0812 38.6268ZM88.3251 38.3137 92.4853 40.2372 90.5618 44.3974 86.4016 42.4738ZM96.6454 42.1607 100.806 44.0842 98.8821 48.2444 94.7219 46.3209ZM104.966 46.0077 109.126 47.9313 107.202 52.0914 103.042 50.1679ZM113.286 49.8548 117.446 51.7783 115.523 55.9385 111.363 54.0149ZM121.606 53.7018 125.767 55.6253 123.843 59.7855 119.683 57.862ZM129.927 57.5488 134.087 59.4724 132.164 63.6325 128.003 61.709ZM138.247 61.3959 142.407 63.3194 140.484 67.4796 136.324 65.5561ZM146.568 65.2429 150.728 67.1664 148.804 71.3266 144.644 69.4031ZM154.888 69.0899 159.048 71.0135 157.125 75.1736 152.964 73.2501ZM163.208 72.937 167.368 74.8605 165.445 79.0207 161.285 77.0971ZM171.529 76.784 175.689 78.7075 173.765 82.8677 169.605 80.9442ZM179.849 80.631 184.009 82.5546 182.086 86.7147 177.925 84.7912ZM188.169 84.4781 192.329 86.4016 190.406 90.5618 186.246 88.6383ZM196.49 88.3251 200.65 90.2486 198.726 94.4088 194.566 92.4853ZM204.81 92.1722 208.97 94.0957 207.047 98.2559 202.886 96.3323ZM213.13 96.0192 217.29 97.9427 215.367 102.103 211.207 100.179ZM221.451 99.8662 223.101 100.629 221.177 104.79 219.527 104.026ZM19.1905 24.0216 0 0 30.7316-0.939403ZM223.75 88.3054 242.94 112.327 212.209 113.266Z" fill="#5662D5" fill-rule="nonzero" fill-opacity="1" transform="matrix(-1 0 0 1 3308.44 935.5)"/><text fill="#242225" fill-opacity="1" font-family="Cambria Math,Cambria Math_MSFontService,sans-serif" font-style="normal" font-variant="normal" font-weight="400" font-stretch="normal" font-size="55" text-anchor="start" direction="ltr" writing-mode="lr-tb" unicode-bidi="normal" text-decoration="none" transform="matrix(0.905628 -0.424072 0.424072 0.905628 3091.92 1004)">𝑑</text><text fill="#242225" fill-opacity="1" font-family="Cambria Math,Cambria Math_MSFontService,sans-serif" font-style="normal" font-variant="normal" font-weight="400" font-stretch="normal" font-size="55" text-anchor="start" direction="ltr" writing-mode="lr-tb" unicode-bidi="normal" text-decoration="none" transform="matrix(0.905628 -0.424072 0.424072 0.905628 3122.55 990)">(</text><text fill="#242225" fill-opacity="1" font-family="Cambria Math,Cambria Math_MSFontService,sans-serif" font-style="normal" font-variant="normal" font-weight="400" font-stretch="normal" font-size="55" text-anchor="start" direction="ltr" writing-mode="lr-tb" unicode-bidi="normal" text-decoration="none" transform="matrix(0.905628 -0.424072 0.424072 0.905628 3143.3 980)">𝑥</text><text fill="#242225" fill-opacity="1" font-family="Cambria Math,Cambria Math_MSFontService,sans-serif" font-style="normal" font-variant="normal" font-weight="400" font-stretch="normal" font-size="55" text-anchor="start" direction="ltr" writing-mode="lr-tb" unicode-bidi="normal" text-decoration="none" transform="matrix(0.905628 -0.424072 0.424072 0.905628 3171.28 967)">,</text><text fill="#242225" fill-opacity="1" font-family="Cambria Math,Cambria Math_MSFontService,sans-serif" font-style="normal" font-variant="normal" font-weight="400" font-stretch="normal" font-size="55" text-anchor="start" direction="ltr" writing-mode="lr-tb" unicode-bidi="normal" text-decoration="none" transform="matrix(0.905628 -0.424072 0.424072 0.905628 3189.96 958)">𝑣</text><text fill="#242225" fill-opacity="1" font-family="Cambria Math,Cambria Math_MSFontService,sans-serif" font-style="normal" font-variant="normal" font-weight="400" font-stretch="normal" font-size="40" text-anchor="start" direction="ltr" writing-mode="lr-tb" unicode-bidi="normal" text-decoration="none" transform="matrix(0.905628 -0.424072 0.424072 0.905628 3220.06 956)">1</text><text fill="#242225" fill-opacity="1" font-family="Cambria Math,Cambria Math_MSFontService,sans-serif" font-style="normal" font-variant="normal" font-weight="400" font-stretch="normal" font-size="55" text-anchor="start" direction="ltr" writing-mode="lr-tb" unicode-bidi="normal" text-decoration="none" transform="matrix(0.905628 -0.424072 0.424072 0.905628 3238.65 935)">)</text></g></g></svg>